SplineFontDB: 3.0
FontName: Vremena
FullName: Vremena
FamilyName: Vremena
Weight: Regular
Copyright: Copyright (c) 2009 by abstrkt. All rights reserved.
Version: 001.001
ItalicAngle: 0
UnderlinePosition: -100
UnderlineWidth: 50
Ascent: 750
Descent: 250
InvalidEm: 0
sfntRevision: 0x00010000
LayerCount: 2
Layer: 0 0 "Arri+AOgA-re" 1
Layer: 1 0 "Avant" 0
XUID: [1021 809 1845788318 6120935]
StyleMap: 0x0000
FSType: 4
OS2Version: 2
OS2_WeightWidthSlopeOnly: 0
OS2_UseTypoMetrics: 0
CreationTime: 1251911371
ModificationTime: 1251911371
PfmFamily: 81
TTFWeight: 400
TTFWidth: 5
LineGap: 9
VLineGap: 0
Panose: 0 0 0 0 0 0 0 0 0 0
OS2TypoAscent: 750
OS2TypoAOffset: 0
OS2TypoDescent: -250
OS2TypoDOffset: 0
OS2TypoLinegap: 0
OS2WinAscent: 890
OS2WinAOffset: 0
OS2WinDescent: 358
OS2WinDOffset: 0
HheadAscent: 750
HheadAOffset: 0
HheadDescent: -250
HheadDOffset: 0
OS2SubXSize: 700
OS2SubYSize: 650
OS2SubXOff: 0
OS2SubYOff: 140
OS2SupXSize: 700
OS2SupYSize: 650
OS2SupXOff: 0
OS2SupYOff: 477
OS2StrikeYSize: 50
OS2StrikeYPos: 250
OS2CapHeight: 650
OS2XHeight: 450
OS2Vendor: 'pyrs'
OS2CodePages: 00000007.00000000
OS2UnicodeRanges: 8000020f.0000000a.00000000.00000000
Lookup: 258 0 0 "'kern' Horizontal Kerning in Latin lookup 0" { "'kern' Horizontal Kerning in Latin lookup 0 per glyph data 0"  "'kern' Horizontal Kerning in Latin lookup 0 per glyph data 1"  } ['kern' ('latn' <'dflt' > ) ]
DEI: 91125
LangName: 1033 "" "" "" "FONTLAB:OTFEXPORT" "" "" "" "Vremena is a trademark of abstrkt." "abstrkt" "Roman Gornitsky" "Copyright (c) 2009 by abstrkt. All rights reserved." "" "http://abstrkt.ru"
Encoding: UnicodeBmp
UnicodeInterp: none
NameList: Adobe Glyph List
DisplaySize: -48
AntiAlias: 1
FitToEm: 0
WinInfo: 38 38 14
BeginPrivate: 2
BlueValues 13 [0 0 450 460]
OtherBlues 11 [-210 -200]
EndPrivate
BeginChars: 65538 343

StartChar: afii10080
Encoding: 1086 1086 1
Width: 479
Flags: MW
HStem: -10 21G<174.5 298.5> 440 20G<179.5 303.5>
LayerCount: 2
Fore
SplineSet
22 225 m 0
 22 361 120 460 239 460 c 0
 368 460 457 361 457 225 c 0
 457 89 358 -10 239 -10 c 0
 110 -10 22 89 22 225 c 0
131 210 m 0
 146 91 202 12 264 22 c 0
 336 33 362 121 347 240 c 0
 332 359 276 438 214 428 c 0
 142 420 116 329 131 210 c 0
EndSplineSet
EndChar

StartChar: afii10079
Encoding: 1085 1085 2
Width: 565
Flags: MW
HStem: 0 21G<20 20 20 264 301 301 301 545> 220 32<190 375 190 375> 220 230<190 264 301 375 190 190>
VStem: 94 96<44 220 252 405> 375 96<44 220 220 220 252 405 44 405>
LayerCount: 2
Fore
SplineSet
20 0 m 1xd8
 94 44 l 1
 94 405 l 1
 20 450 l 1
 264 450 l 1xb8
 190 405 l 1
 190 252 l 1
 375 252 l 1xd8
 375 405 l 1
 301 450 l 1
 545 450 l 1xb8
 471 405 l 1
 471 44 l 1
 545 0 l 1
 301 0 l 1
 375 44 l 1
 375 220 l 1
 190 220 l 1
 190 44 l 1
 264 0 l 1
 20 0 l 1xd8
EndSplineSet
EndChar

StartChar: afii10081
Encoding: 1087 1087 3
Width: 575
Flags: MW
HStem: 0 21G<27 27 27 271 304 304 304 548> 418 32<197 378 197 197>
VStem: 101 96<44 405 405 405> 378 96<44 405 44 418 44 418>
LayerCount: 2
Fore
SplineSet
27 0 m 1
 101 44 l 1
 101 405 l 1
 27 450 l 1
 548 450 l 1
 474 405 l 1
 474 44 l 1
 548 0 l 1
 304 0 l 1
 378 44 l 1
 378 418 l 1
 197 418 l 1
 197 44 l 1
 271 0 l 1
 27 0 l 1
EndSplineSet
EndChar

StartChar: afii10074
Encoding: 1080 1080 4
Width: 569
Flags: MW
HStem: 0 21G<20 20 20 264 305 305 305 549> 430 20G<20 264 264 264 305 549 549 549>
VStem: 94 96<44 61 113 405> 379 96<44 334 334 334 388 405 44 405>
LayerCount: 2
Fore
SplineSet
20 0 m 1
 94 44 l 1
 94 405 l 1
 20 450 l 1
 264 450 l 1
 190 405 l 1
 190 113 l 1
 379 388 l 1
 379 405 l 1
 305 450 l 1
 549 450 l 1
 475 405 l 1
 475 44 l 1
 549 0 l 1
 305 0 l 1
 379 44 l 1
 379 334 l 1
 190 61 l 1
 190 44 l 1
 264 0 l 1
 20 0 l 1
EndSplineSet
EndChar

StartChar: afii10084
Encoding: 1090 1090 5
Width: 467
Flags: MW
HStem: 0 21G<101 101 101 365> 423 27<106 185 106 106 281 281 281 360>
VStem: 185 96<43 423 43 423>
LayerCount: 2
Fore
SplineSet
101 0 m 1
 185 43 l 1
 185 423 l 1
 106 423 l 1
 20 307 l 1
 20 450 l 1
 447 450 l 1
 447 307 l 1
 360 423 l 1
 281 423 l 1
 281 43 l 1
 365 0 l 1
 101 0 l 1
EndSplineSet
EndChar

StartChar: afii10068
Encoding: 1075 1075 6
Width: 433
Flags: MW
HStem: 0 21G<20 20 20 281> 423 27<190 322 190 190>
VStem: 94 96<54 405 405 405>
LayerCount: 2
Fore
SplineSet
20 0 m 1
 94 44 l 1
 94 405 l 1
 20 450 l 1
 407 450 l 1
 407 314 l 1
 322 423 l 1
 190 423 l 1
 190 54 l 1
 281 0 l 1
 20 0 l 1
EndSplineSet
EndChar

StartChar: afii10088
Encoding: 1094 1094 7
Width: 563
Flags: MW
HStem: -160 21G<540 540> 0 32<190 371 190 446> 430 20G<20 264 264 264 297 541 541 541>
VStem: 94 96<44 405 32 405> 371 96<32 405 32 405>
LayerCount: 2
Fore
SplineSet
264 450 m 1
 190 405 l 1
 190 32 l 1
 371 32 l 1
 371 405 l 1
 297 450 l 1
 541 450 l 1
 467 405 l 1
 467 32 l 1
 540 32 l 1
 540 -160 l 1
 446 0 l 1
 20 0 l 1
 94 44 l 1
 94 405 l 1
 20 450 l 1
 264 450 l 1
EndSplineSet
EndChar

StartChar: afii10090
Encoding: 1096 1096 8
Width: 782
Flags: MW
HStem: 0 32<190 343 439 592> 430 20G<20 254 254 254 279 503 503 503 528 762 762 762>
VStem: 94 96<44 405 405 405> 343 96<32 415 32 415> 592 96<44 405 44 406 44 406>
CounterMasks: 1 38
LayerCount: 2
Fore
SplineSet
762 450 m 1
 688 405 l 1
 688 44 l 1
 762 0 l 1
 20 0 l 1
 94 44 l 1
 94 405 l 1
 20 450 l 1
 254 450 l 1
 190 406 l 1
 190 32 l 1
 343 32 l 1
 343 415 l 1
 279 450 l 1
 503 450 l 1
 439 415 l 1
 439 32 l 1
 592 32 l 1
 592 406 l 1
 528 450 l 1
 762 450 l 1
EndSplineSet
EndChar

StartChar: afii10096
Encoding: 1102 1102 9
Width: 729
Flags: MW
HStem: -20 20G<20 20 20 264> -10 21G<430 552.5> 210 32 210 250 430 20G<20 264 264 264>
VStem: 94 96<44 207 239 405>
LayerCount: 2
Fore
SplineSet
20 0 m 1xac
 94 44 l 1
 94 405 l 1
 20 450 l 1
 264 450 l 1xac
 190 405 l 1
 190 239 l 1
 281 245 l 1
 290 371 380 460 493 460 c 0
 622 460 706 361 706 225 c 0
 706 89 612 -10 493 -10 c 0x54
 367 -10 285 83 281 213 c 1
 190 207 l 1
 190 44 l 1
 264 0 l 1
 20 0 l 1xac
390 210 m 0
 405 91 456 12 518 22 c 0
 590 33 611 121 596 240 c 0
 581 359 530 438 468 428 c 0
 396 420 375 329 390 210 c 0
EndSplineSet
EndChar

StartChar: afii10091
Encoding: 1097 1097 10
Width: 781
Flags: MW
HStem: -160 21G<758 758> 0 32<190 343 439 592> 430 20G<20 254 254 254 279 503 503 503 528 759 759 759>
VStem: 94 96<44 405 405 405> 343 96<32 415 32 415> 592 93<32 405 32 406 32 406>
LayerCount: 2
Fore
SplineSet
664 0 m 1
 20 0 l 1
 94 44 l 1
 94 405 l 1
 20 450 l 1
 254 450 l 1
 190 406 l 1
 190 32 l 1
 343 32 l 1
 343 415 l 1
 279 450 l 1
 503 450 l 1
 439 415 l 1
 439 32 l 1
 592 32 l 1
 592 406 l 1
 528 450 l 1
 759 450 l 1
 685 405 l 1
 685 32 l 1
 758 32 l 1
 758 -160 l 1
 664 0 l 1
EndSplineSet
EndChar

StartChar: afii10083
Encoding: 1089 1089 11
Width: 437
Flags: MW
HStem: -10 21G<168.5 284> 297 163<180.5 365.5>
VStem: 305 96<337 351 335.5 377>
LayerCount: 2
Fore
SplineSet
123 209 m 0
 145 92 231 61 293 70 c 0
 340 77 388 116 414 182 c 1
 409 67 335 -10 233 -10 c 0
 104 -10 25 92 25 225 c 0
 25 358 120 460 241 460 c 0
 341 460 398 410 401 351 c 0
 401 320 380 297 351 297 c 0
 318 297 305 326 305 348 c 0
 305 406 274 438 223 430 c 0
 151 420 101 328 123 209 c 0
EndSplineSet
EndChar

StartChar: afii10070
Encoding: 1077 1077 12
Width: 442
Flags: MW
HStem: -10 21G<165 283.5> 261 25 261 199
VStem: 25 93<245 252 245 279 245 290> 319 97
LayerCount: 2
Fore
SplineSet
417 271 m 1xd8
 118 252 l 1
 118 238 119 224 122 209 c 0
 144 95 225 60 290 70 c 0
 339 77 388 112 416 182 c 1
 411 67 336 -10 231 -10 c 0
 99 -10 25 95 25 225 c 0
 25 355 112 460 234 460 c 0xb8
 363 460 417 389 417 271 c 1xd8
319 293 m 1
 319 398 275 437 216 430 c 0
 160 422 121 362 118 279 c 1
 319 293 l 1
EndSplineSet
EndChar

StartChar: afii10094
Encoding: 1100 1100 13
Width: 465
Flags: MW
HStem: 0 32<190 251 251 271> 226 32<190 251 190 271> 226 224<190 251 190 190>
VStem: 94 96<44 226 258 405> 345 100<103 153>
LayerCount: 2
Fore
SplineSet
264 450 m 1xb8
 190 405 l 1
 190 258 l 1
 271 258 l 2xd8
 351 258 445 228 445 128 c 0
 445 28 351 0 271 0 c 2
 20 0 l 1
 94 44 l 1
 94 405 l 1
 20 450 l 1
 264 450 l 1xb8
251 226 m 2xb8
 190 226 l 1
 190 32 l 1
 251 32 l 2
 311 32 345 78 345 128 c 0
 345 178 321 226 251 226 c 2xb8
EndSplineSet
EndChar

StartChar: afii10093
Encoding: 1099 1099 14
Width: 714
Flags: MW
HStem: 0 32<190 251 251 271> 226 32<190 251 190 271> 226 224<190 251 190 190>
VStem: 94 96<44 226 258 405> 345 100<103 153> 524 96<44 405 44 405>
LayerCount: 2
Fore
SplineSet
694 450 m 1xbc
 620 405 l 1
 620 44 l 1
 694 0 l 1
 450 0 l 1
 524 44 l 1
 524 405 l 1
 450 450 l 1
 694 450 l 1xbc
264 450 m 1
 190 405 l 1
 190 258 l 1
 271 258 l 2xdc
 351 258 445 228 445 128 c 0
 445 28 351 0 271 0 c 2
 20 0 l 1
 94 44 l 1
 94 405 l 1
 20 450 l 1
 264 450 l 1
251 226 m 2xbc
 190 226 l 1
 190 32 l 1
 251 32 l 2
 311 32 345 78 345 128 c 0
 345 178 321 226 251 226 c 2xbc
EndSplineSet
EndChar

StartChar: afii10092
Encoding: 1098 1098 15
Width: 517
Flags: MW
HStem: 0 32<242 303 303 323> 226 32<242 303 242 323> 423 27<118.5 146>
VStem: 23 219<307 405 32 450> 146 96<44 226 258 405> 397 100<103 153>
LayerCount: 2
Fore
SplineSet
316 450 m 1xf4
 242 405 l 1
 242 258 l 1
 323 258 l 2
 403 258 497 228 497 128 c 0
 497 28 403 0 323 0 c 2
 72 0 l 1
 146 44 l 1
 146 423 l 1xec
 91 423 61 394 23 307 c 1
 23 450 l 1
 316 450 l 1xf4
303 226 m 2
 242 226 l 1
 242 32 l 1
 303 32 l 2
 363 32 397 78 397 128 c 0
 397 178 373 226 303 226 c 2
EndSplineSet
EndChar

StartChar: afii10087
Encoding: 1093 1093 16
Width: 523
Flags: MW
HStem: 0 21G<-2 -2 -2 202 278 278 278 523> 430 20G<7 252 252 252 286 490 490 490>
LayerCount: 2
Fore
SplineSet
-2 0 m 1
 90 56 l 1
 214 217 l 1
 85 405 l 1
 7 450 l 1
 252 450 l 1
 190 414 l 1
 276 289 l 1
 361 402 l 1
 286 450 l 1
 490 450 l 1
 397 395 l 1
 296 261 l 1
 445 45 l 1
 523 0 l 1
 278 0 l 1
 340 36 l 1
 234 188 l 1
 125 47 l 1
 202 0 l 1
 -2 0 l 1
EndSplineSet
EndChar

StartChar: afii10082
Encoding: 1088 1088 18
Width: 523
Flags: MW
HStem: -200 21G<21 21 21 265> 397 63<295.5 319>
VStem: 95 96<-155 25 71 100 100 337 364 383 383 383> 395 103
LayerCount: 2
Fore
SplineSet
21 -200 m 1
 95 -155 l 1
 95 383 l 1
 21 405 l 1
 191 460 l 1
 191 364 l 1
 221 419 268 460 323 460 c 0
 433 460 498 375 498 235 c 0
 498 96 399 -10 286 -10 c 0
 244 -10 214 4 191 25 c 1
 191 -155 l 1
 265 -200 l 1
 21 -200 l 1
395 245 m 0
 389 338 348 397 290 397 c 0
 252 397 218 377 191 337 c 1
 191 100 l 2
 191 42 245 14 292 21 c 0
 364 32 403 127 395 245 c 0
EndSplineSet
EndChar

StartChar: afii10089
Encoding: 1095 1095 19
Width: 537
Flags: MW
HStem: 0 202<273 275.5 223.5 517 273 273> 160 42<223.5 250.5> 430 20G<0 244 244 244 273 517 517 517>
VStem: 74 96<301 313 313 405 279 405> 347 96<44 210 210 210 234 405 44 405>
LayerCount: 2
Fore
SplineSet
74 301 m 2x78
 74 405 l 1
 0 450 l 1
 244 450 l 1
 170 405 l 1
 170 313 l 2
 170 245 190 202 257 202 c 0
 294 202 324 216 347 234 c 1
 347 405 l 1
 273 450 l 1
 517 450 l 1
 443 405 l 1
 443 44 l 1
 517 0 l 1
 273 0 l 1xb8
 347 44 l 1
 347 210 l 1
 319 182 280 160 221 160 c 0
 175 160 74 174 74 301 c 2x78
EndSplineSet
EndChar

StartChar: afii10069
Encoding: 1076 1076 20
Width: 512
Flags: MW
HStem: -160 21G<0 0 489 489> 0 32<105 320> 418 32<172 320 172 172>
VStem: 128 40 320 96<32 405 32 418 32 418>
LayerCount: 2
Fore
SplineSet
490 450 m 1
 416 405 l 1
 416 32 l 1
 489 32 l 1
 489 -160 l 1
 395 0 l 1
 94 0 l 1
 0 -160 l 1
 0 32 l 1
 26 32 l 2
 102 32 121 154 125 243 c 2
 132 405 l 1
 42 450 l 1
 490 450 l 1
320 418 m 1
 172 418 l 1
 164 223 l 2
 162 170 151 64 105 32 c 1
 320 32 l 1
 320 418 l 1
EndSplineSet
EndChar

StartChar: afii10097
Encoding: 1103 1103 21
Width: 516
Flags: MW
HStem: 0 230<3 326 263 326 263 496 252 326> 198 32<288 326 288 288> 418 32<244 264 264 326>
VStem: 70 100<300 350 300 375> 326 96<45 198 198 198 230 406 45 418 45 418>
LayerCount: 2
Fore
SplineSet
252 0 m 1xb8
 326 45 l 1
 326 198 l 1
 288 198 l 2x78
 251 196 219 183 197 126 c 2
 149 0 l 1
 3 0 l 1
 68 46 l 1
 104 131 l 2
 123 173 151 204 189 208 c 1
 125 220 70 250 70 325 c 0
 70 425 164 450 244 450 c 2
 496 450 l 1
 422 406 l 1
 422 45 l 1
 496 0 l 1
 252 0 l 1xb8
263 230 m 2xb8
 326 230 l 1
 326 418 l 1
 264 418 l 2
 204 418 170 375 170 325 c 0
 170 275 193 230 263 230 c 2xb8
EndSplineSet
EndChar

StartChar: afii10067
Encoding: 1074 1074 22
Width: 479
Flags: MW
HStem: 0 32<190 261 261 281> 220 32<190 241 241 261 190 241> 418 32<190 241 190 190>
VStem: 94 96<44 220 32 252 252 405 405 405> 332 100<309 359> 352 80 352 105<100 150>
LayerCount: 2
Fore
SplineSet
261 450 m 2xf2
 338 450 432 434 432 334 c 0xf4
 432 281 387 248 333 240 c 1
 333 237 l 1
 405 229 457 186 457 125 c 0
 457 25 358 0 281 0 c 2
 20 0 l 1
 94 44 l 1
 94 405 l 1
 20 450 l 1
 261 450 l 2xf2
261 220 m 2
 190 220 l 1
 190 32 l 1
 261 32 l 2
 321 32 352 75 352 125 c 0
 352 175 328 220 261 220 c 2
241 418 m 2
 190 418 l 1
 190 252 l 1
 241 252 l 2
 298 252 332 284 332 334 c 0xf8
 332 384 308 418 241 418 c 2
EndSplineSet
EndChar

StartChar: afii10076
Encoding: 1082 1082 23
Width: 524
Flags: MW
HStem: 0 21G<20 264 20 20 365 512 365 365> 220 32<190 199 199 218 190 199> 352 98 440 20G<381 426.5>
VStem: 94 96<45 220 252 405>
LayerCount: 2
Fore
SplineSet
190 252 m 1xe8
 199 252 l 2
 239 252 279 265 309 345 c 0
 326 392 350 460 412 460 c 0
 441 460 476 448 476 409 c 0
 476 372 451 352 426 352 c 0
 378 352 381 430 341 325 c 0
 324 280 307 252 273 238 c 1
 375 228 402 152 451 45 c 1
 472 30 491 15 512 0 c 1
 365 0 l 1
 327 90 287 216 218 220 c 1
 190 220 l 1
 190 45 l 1
 215 30 239 15 264 0 c 1
 20 0 l 1
 45 15 69 30 94 45 c 1
 94 406 l 1
 69 421 45 435 20 450 c 1
 264 450 l 1xd8
 239 435 215 420 190 405 c 1
 190 252 l 1xe8
EndSplineSet
EndChar

StartChar: afii10072
Encoding: 1078 1078 24
Width: 740
Flags: MW
HStem: 0 21G<13 158 13 13 248 492 248 248 582 582 582 727> 220 32<280.5 322 308 322 308 322 418 433 433 434> 352 98 440 20G<90.5 135 605 649.5>
VStem: 322 96<45 220 45 220 252 406>
LayerCount: 2
Fore
SplineSet
248 0 m 1xe8
 322 45 l 1
 322 220 l 1
 306 220 l 2
 255 220 230 180 208 126 c 2
 158 0 l 1
 13 0 l 1
 70 42 l 1
 112 133 l 2
 141 196 180 228 236 239 c 1
 214 254 195 280 178 325 c 0
 137 430 142 352 94 352 c 0
 70 352 44 371 44 410 c 0
 44 445 76 460 105 460 c 0
 165 460 191 399 210 345 c 0
 239 265 271 252 308 252 c 2xe8
 322 252 l 1
 322 406 l 1
 248 450 l 1
 492 450 l 1
 418 406 l 1xd8
 418 252 l 1
 433 252 l 2
 470 252 501 265 530 345 c 0
 550 399 575 460 635 460 c 0
 664 460 697 445 697 410 c 0
 697 371 671 352 647 352 c 0xe8
 599 352 603 430 562 325 c 0
 545 280 526 254 504 239 c 1xd8
 560 228 599 196 629 133 c 2
 670 42 l 1
 727 0 l 1
 582 0 l 1
 532 126 l 2
 510 180 485 220 434 220 c 2
 418 220 l 1
 418 45 l 1
 492 0 l 1
 248 0 l 1xe8
EndSplineSet
EndChar

StartChar: afii10085
Encoding: 1091 1091 25
Width: 545
Flags: MW
HStem: -211 109<130.5 144.5 118.5 170> 430 20G<0 246 246 246 341 545 545 545>
LayerCount: 2
Fore
SplineSet
545 450 m 1
 463 399 l 1
 259 -101 l 2
 225 -188 191 -211 149 -211 c 0
 112 -211 83 -189 83 -156 c 0
 83 -122 104 -102 133 -102 c 0
 156 -102 164 -115 178 -123 c 0
 194 -134 208 -123 220 -92 c 2
 263 13 l 1
 78 404 l 1
 0 450 l 1
 246 450 l 1
 178 410 l 1
 311 132 l 1
 419 400 l 1
 341 450 l 1
 545 450 l 1
EndSplineSet
EndChar

StartChar: afii10078
Encoding: 1084 1084 26
Width: 659
Flags: MW
HStem: 0 21G<20 215 20 20 295 315 295 295 395 639 395 395> 430 20G<20 202 202 202 468 639 639 639>
VStem: 100 35<50 374 50 402 50 402> 469 96<44 374 374 374>
LayerCount: 2
Fore
SplineSet
395 0 m 1
 469 44 l 1
 469 374 l 1
 315 0 l 1
 295 0 l 1
 135 374 l 1
 135 50 l 1
 215 0 l 1
 20 0 l 1
 100 50 l 1
 100 402 l 1
 20 450 l 1
 202 450 l 1
 337 133 l 1
 468 450 l 1
 639 450 l 1
 565 405 l 1
 565 44 l 1
 639 0 l 1
 395 0 l 1
EndSplineSet
EndChar

StartChar: afii10065
Encoding: 1072 1072 27
Width: 446
Flags: MW
HStem: -10 58<98 195.5> 297 163<71 269> 431 29<182 230>
VStem: 23 96<105.5 133> 41 90<333.5 348> 272 95<53 61 93 265 265 265 294 311 53 355.5>
LayerCount: 2
Fore
SplineSet
367 311 m 2xd4
 367 53 l 1
 441 83 l 1
 404 12 366 -10 330 -10 c 0
 295 -10 272 11 272 61 c 1
 211 17 l 2
 185 -2 162 -10 131 -10 c 0
 65 -10 23 36 23 103 c 0
 23 163 62 210 140 241 c 2
 272 294 l 1xb4
 272 311 l 2
 272 400 255 431 205 431 c 0
 159 431 131 407 131 348 c 0xcc
 131 316 112 297 85 297 c 0
 57 297 41 319 41 348 c 0
 42 413 132 460 214 460 c 0
 324 460 367 402 367 311 c 2xd4
272 93 m 1
 272 265 l 1
 207 238 l 2
 142 211 119 169 119 129 c 0
 119 82 140 48 183 48 c 0
 208 48 235 63 272 93 c 1
EndSplineSet
EndChar

StartChar: afii10077
Encoding: 1083 1083 28
Width: 522
Flags: MW
HStem: -10 21G<49 86.5> 0 95 418 32<180 332 180 180>
VStem: 140 39<223 405> 332 96<44 405 44 418 44 418>
LayerCount: 2
Fore
SplineSet
258 0 m 1x78
 332 44 l 1
 332 418 l 1
 180 418 l 1
 179 223 l 2
 178 186 177 124 161 73 c 0
 146 27 111 -10 62 -10 c 0xb8
 36 -10 0 3 0 42 c 0
 0 80 23 96 46 95 c 0
 79 95 75 60 101 63 c 0
 137 68 140 184 140 243 c 2
 140 405 l 1
 60 450 l 1
 502 450 l 1
 428 405 l 1
 428 44 l 1
 502 0 l 1
 258 0 l 1x78
EndSplineSet
EndChar

StartChar: afii10066
Encoding: 1073 1073 29
Width: 485
Flags: MW
HStem: -10 21G<172 304> 680 20G<439 439>
LayerCount: 2
Fore
SplineSet
460 221 m 0
 460 88 365 -10 243 -10 c 0
 101 -10 25 115 25 278 c 0
 25 448 84 594 218 620 c 2
 380 651 l 1
 439 700 l 1
 439 638 429 559 350 546 c 2
 205 520 l 2
 168 514 134 502 114 476 c 0
 85 440 77 391 70 330 c 1
 108 407 177 440 243 441 c 0
 375 442 460 354 460 221 c 0
136 205 m 0
 153 86 206 13 268 22 c 0
 339 33 364 116 349 235 c 0
 334 354 281 415 219 407 c 0
 147 398 122 302 136 205 c 0
EndSplineSet
EndChar

StartChar: afii10075
Encoding: 1081 1081 30
Width: 569
Flags: MW
HStem: 0 21G<20 20 20 264 305 305 305 549> 430 20G<20 264 264 264 305 549 549 549> 509 21<268 302.5 268 319> 509 139<176.5 319>
VStem: 94 96<44 61 113 405> 143 98<594 607.5> 330 98<594 607.5 563 620.5> 379 96<44 334 334 334 388 405 44 405>
LayerCount: 2
Fore
SplineSet
196 648 m 0xd6
 222 648 241 633 241 608 c 0
 241 580 218 575 224 557 c 0
 229 540 251 530 285 530 c 0xe6
 320 530 341 540 347 557 c 0
 353 575 330 580 330 608 c 0
 330 633 349 648 375 648 c 0
 414 648 428 619 428 596 c 0
 428 530 353 509 285 509 c 0
 217 509 143 530 143 596 c 0
 143 619 157 648 196 648 c 0xd6
20 0 m 1
 94 44 l 1
 94 405 l 1
 20 450 l 1
 264 450 l 1
 190 405 l 1
 190 113 l 1
 379 388 l 1
 379 405 l 1
 305 450 l 1
 549 450 l 1
 475 405 l 1
 475 44 l 1
 549 0 l 1
 305 0 l 1
 379 44 l 1
 379 334 l 1
 190 61 l 1
 190 44 l 1
 264 0 l 1
 20 0 l 1
EndSplineSet
EndChar

StartChar: afii10095
Encoding: 1101 1101 31
Width: 441
Flags: MW
HStem: -10 21G<156 274> 228 32<152 326 152 324> 429 31<188.5 244>
VStem: 326 91<260 260>
LayerCount: 2
Fore
SplineSet
152 228 m 1
 152 260 l 1
 326 260 l 1
 327 358 281 429 207 429 c 0
 139 429 89 373 56 281 c 1
 56 460 l 1
 108 424 l 1
 133 440 167 460 210 460 c 0
 356 460 417 358 417 225 c 0
 417 95 341 -10 207 -10 c 0
 105 -10 33 67 25 182 c 1
 55 108 109 73 150 66 c 0
 234 51 305 92 322 209 c 0
 323 215 323 221 324 228 c 1
 152 228 l 1
EndSplineSet
EndChar

StartChar: afii10086
Encoding: 1092 1092 32
Width: 713
Flags: MW
HStem: -200 225<234 234 234 258 455.5 478> -10 35<197.5 231 483 516.5> 424 36<198 231 148 258 483 515.5> 640 20G<404 404>
VStem: 27 104<178.5 271.5 178.5 298> 308 96<-155 49 -155 49 79 370 401 571 571 571> 581 105<178.5 271.5>
LayerCount: 2
Fore
SplineSet
234 -200 m 1xbe
 308 -155 l 1
 308 49 l 1
 288 16 256 -10 206 -10 c 0
 90 -10 27 79 27 225 c 0
 27 371 90 460 206 460 c 0
 256 460 288 434 308 401 c 1
 308 571 l 1
 234 605 l 1
 404 660 l 1
 404 401 l 1
 424 434 458 460 508 460 c 0
 624 460 686 371 686 225 c 0
 686 79 624 -10 508 -10 c 0x7e
 458 -10 424 16 404 49 c 1
 404 -155 l 1
 478 -200 l 1
 234 -200 l 1xbe
476 424 m 0xbe
 435 424 414 392 404 370 c 1
 404 79 l 1
 414 57 435 25 476 25 c 0
 557 25 581 132 581 225 c 0
 581 318 555 424 476 424 c 0xbe
238 424 m 0
 158 424 131 318 131 225 c 0
 131 132 157 25 238 25 c 0
 278 25 297 57 308 79 c 1
 308 370 l 1
 297 392 278 424 238 424 c 0
EndSplineSet
EndChar

StartChar: afii10073
Encoding: 1079 1079 33
Width: 416
Flags: MW
HStem: -10 48<153.5 214 143.5 244> -10 249<153.5 268> 220 32<152 177 177 194 152 177> 429 31<179.5 218>
VStem: 270 97 283 100
LayerCount: 2
Fore
SplineSet
152 252 m 1xb4
 177 252 l 2xb8
 237 252 269 285 270 335 c 0
 271 388 248 429 188 429 c 0
 120 429 83 373 50 281 c 1
 50 460 l 1
 102 424 l 1
 118 438 153 460 206 460 c 0
 297 460 367 427 367 344 c 0
 367 281 322 250 268 242 c 1
 268 239 l 1x58
 346 236 384 185 383 126 c 0
 379 29 289 -10 199 -10 c 0
 108 -10 42 45 35 138 c 1
 58 79 106 38 181 38 c 0
 247 38 283 83 283 136 c 0
 283 183 261 220 194 220 c 2
 152 220 l 1
 152 252 l 1xb4
EndSplineSet
EndChar

StartChar: afii10031
Encoding: 1053 1053 34
Width: 734
Flags: MW
HStem: 0 21G<27 27 27 307 427 427 427 707> 320 35<223 511 223 511> 630 20G<27 307 307 307 427 707 707 707>
VStem: 111 112<51 320 355 599> 511 112<51 320 320 320 355 599 51 599>
LayerCount: 2
Fore
SplineSet
27 0 m 1
 111 51 l 1
 111 599 l 1
 27 650 l 1
 307 650 l 1
 223 599 l 1
 223 355 l 1
 511 355 l 1
 511 599 l 1
 427 650 l 1
 707 650 l 1
 623 599 l 1
 623 51 l 1
 707 0 l 1
 427 0 l 1
 511 51 l 1
 511 320 l 1
 223 320 l 1
 223 51 l 1
 307 0 l 1
 27 0 l 1
EndSplineSet
EndChar

StartChar: afii10033
Encoding: 1055 1055 35
Width: 724
Flags: MW
HStem: 0 21G<27 27 27 307 417 417 417 697> 615 35<223 504 223 223>
VStem: 111 112<51 599 599 599> 504 109<51 599 51 615 51 615>
LayerCount: 2
Fore
SplineSet
27 0 m 1
 111 51 l 1
 111 599 l 1
 27 650 l 1
 697 650 l 1
 613 599 l 1
 613 51 l 1
 697 0 l 1
 417 0 l 1
 504 51 l 1
 504 615 l 1
 223 615 l 1
 223 51 l 1
 307 0 l 1
 27 0 l 1
EndSplineSet
EndChar

StartChar: i
Encoding: 105 105 36
Width: 284
Flags: MW
HStem: 0 21G<20 264 264 264> 540 120<118 151>
VStem: 75 120<582.5 616>
LayerCount: 2
Fore
SplineSet
20 405 m 1
 94 383 l 1
 94 44 l 1
 20 0 l 1
 264 0 l 1
 190 44 l 1
 190 460 l 1
 20 405 l 1
75 599 m 0
 75 633 101 660 135 660 c 0
 169 660 195 633 195 599 c 0
 195 566 168 540 134 540 c 0
 101 540 75 566 75 599 c 0
EndSplineSet
EndChar

StartChar: period
Encoding: 46 46 37
Width: 214
Flags: MW
HStem: -7 120<90 123>
VStem: 47 120<36.5 70>
LayerCount: 2
Fore
SplineSet
47 53 m 0
 47 87 73 113 107 113 c 0
 141 113 167 87 167 53 c 0
 167 20 140 -7 106 -7 c 0
 73 -7 47 20 47 53 c 0
EndSplineSet
EndChar

StartChar: comma
Encoding: 44 44 38
Width: 241
Flags: MW
HStem: -158 21G -7 120<93.5 116>
VStem: 50 141<35.5 50.5 -20.5 69>
LayerCount: 2
Fore
SplineSet
50 52 m 0
 50 86 74 113 113 113 c 0
 155 113 191 88 191 13 c 0
 191 -54 143 -125 63 -158 c 1
 129 -121 153 -47 146 4 c 1
 135 -3 124 -7 108 -7 c 0
 74 -7 50 19 50 52 c 0
EndSplineSet
EndChar

StartChar: colon
Encoding: 58 58 39
Width: 220
Flags: MW
HStem: 28 120<93 126> 301 120<93 126>
VStem: 50 120<71.5 105 344.5 378>
LayerCount: 2
Fore
SplineSet
50 88 m 0
 50 122 76 148 110 148 c 0
 144 148 170 122 170 88 c 0
 170 55 143 28 109 28 c 0
 76 28 50 55 50 88 c 0
50 361 m 0
 50 395 76 421 110 421 c 0
 144 421 170 395 170 361 c 0
 170 328 143 301 109 301 c 0
 76 301 50 328 50 361 c 0
EndSplineSet
EndChar

StartChar: semicolon
Encoding: 59 59 40
Width: 242
Flags: MW
HStem: -158 21G -7 120<93.5 116> 301 120<93 126>
VStem: 50 120<344.5 378> 50 141<35.5 50.5 -20.5 69>
LayerCount: 2
Fore
SplineSet
50 52 m 0xe8
 50 86 74 113 113 113 c 0
 155 113 191 88 191 13 c 0
 191 -54 143 -125 63 -158 c 1
 129 -121 153 -47 146 4 c 1
 135 -3 124 -7 108 -7 c 0
 74 -7 50 19 50 52 c 0xe8
50 361 m 0
 50 395 76 421 110 421 c 0
 144 421 170 395 170 361 c 0xf0
 170 328 143 301 109 301 c 0
 76 301 50 328 50 361 c 0
EndSplineSet
EndChar

StartChar: endash
Encoding: 8211 8211 41
Width: 490
Flags: MW
HStem: 220 32<30 460 30 460>
LayerCount: 2
Fore
SplineSet
30 220 m 1
 30 252 l 1
 460 252 l 1
 460 220 l 1
 30 220 l 1
EndSplineSet
EndChar

StartChar: emdash
Encoding: 8212 8212 42
Width: 591
Flags: MW
HStem: 220 32<0 591 0 591>
LayerCount: 2
Fore
SplineSet
0 220 m 1
 0 252 l 1
 591 252 l 1
 591 220 l 1
 0 220 l 1
EndSplineSet
EndChar

StartChar: periodcentered
Encoding: 183 183 43
Width: 214
Flags: MW
HStem: 275 120<90 123>
VStem: 47 120<318.5 352>
LayerCount: 2
Fore
SplineSet
47 335 m 0
 47 369 73 395 107 395 c 0
 141 395 167 369 167 335 c 0
 167 302 140 275 106 275 c 0
 73 275 47 302 47 335 c 0
EndSplineSet
EndChar

StartChar: hyphen
Encoding: 45 45 44
Width: 369
Flags: MW
HStem: 220 32<40 329 40 329>
LayerCount: 2
Fore
SplineSet
40 220 m 1
 40 252 l 1
 329 252 l 1
 329 220 l 1
 40 220 l 1
EndSplineSet
EndChar

StartChar: afii10026
Encoding: 1048 1048 45
Width: 736
Flags: MW
HStem: 0 21G<27 27 27 307 429 429 429 709> 630 20G<27 307 307 307 429 709 709 709>
VStem: 111 112<51 63 130 599> 513 112<51 513 513 513 580 599 51 599>
LayerCount: 2
Fore
SplineSet
27 0 m 1
 111 51 l 1
 111 599 l 1
 27 650 l 1
 307 650 l 1
 223 599 l 1
 223 130 l 1
 513 580 l 1
 513 599 l 1
 429 650 l 1
 709 650 l 1
 625 599 l 1
 625 51 l 1
 709 0 l 1
 429 0 l 1
 513 51 l 1
 513 513 l 1
 223 63 l 1
 223 51 l 1
 307 0 l 1
 27 0 l 1
EndSplineSet
EndChar

StartChar: afii10042
Encoding: 1064 1064 46
Width: 1017
Flags: MW
HStem: 0 35<223 452 564 794> 630 20G<27 307 307 307 368 648 648 648 710 990 990 990>
VStem: 111 112<51 599 35 599> 452 112<35 599 35 599> 794 112<51 599 51 599 51 599>
LayerCount: 2
Fore
SplineSet
990 650 m 1
 906 599 l 1
 906 51 l 1
 990 0 l 1
 27 0 l 1
 111 51 l 1
 111 599 l 1
 27 650 l 1
 307 650 l 1
 223 599 l 1
 223 35 l 1
 452 35 l 1
 452 599 l 1
 368 650 l 1
 648 650 l 1
 564 599 l 1
 564 35 l 1
 794 35 l 1
 794 599 l 1
 710 650 l 1
 990 650 l 1
EndSplineSet
EndChar

StartChar: afii10040
Encoding: 1062 1062 47
Width: 730
Flags: MW
HStem: -200 21G<709 709> 0 35<223 507 223 591> 630 20G<27 307 307 307 423 703 703 703>
VStem: 111 112<51 599 35 599> 507 112<35 599 35 599>
LayerCount: 2
Fore
SplineSet
27 0 m 1
 111 51 l 1
 111 599 l 1
 27 650 l 1
 307 650 l 1
 223 599 l 1
 223 35 l 1
 507 35 l 1
 507 599 l 1
 423 650 l 1
 703 650 l 1
 619 599 l 1
 619 35 l 1
 709 35 l 1
 709 -200 l 1
 591 0 l 1
 27 0 l 1
EndSplineSet
EndChar

StartChar: afii10043
Encoding: 1065 1065 48
Width: 1017
Flags: MW
HStem: -200 21G<996 996> 0 35<223 452 564 794> 630 20G<27 307 307 307 368 648 648 648 710 990 990 990>
VStem: 111 112<51 599 35 599> 452 112<35 599 35 599> 794 112<35 599 35 599>
LayerCount: 2
Fore
SplineSet
996 35 m 1
 996 -200 l 1
 878 0 l 1
 27 0 l 1
 111 51 l 1
 111 599 l 1
 27 650 l 1
 307 650 l 1
 223 599 l 1
 223 35 l 1
 452 35 l 1
 452 599 l 1
 368 650 l 1
 648 650 l 1
 564 599 l 1
 564 35 l 1
 794 35 l 1
 794 599 l 1
 710 650 l 1
 990 650 l 1
 906 599 l 1
 906 35 l 1
 996 35 l 1
EndSplineSet
EndChar

StartChar: afii10020
Encoding: 1043 1043 49
Width: 574
Flags: MW
HStem: 0 21G<27 327 27 27> 615 35<223 434 223 223>
VStem: 111 112<61 599 599 599>
LayerCount: 2
Fore
SplineSet
544 650 m 1
 544 444 l 1
 434 615 l 1
 223 615 l 1
 223 61 l 1
 327 0 l 1
 27 0 l 1
 111 51 l 1
 111 599 l 1
 27 650 l 1
 544 650 l 1
EndSplineSet
EndChar

StartChar: afii10036
Encoding: 1058 1058 50
Width: 644
Flags: MW
HStem: 0 21G<162 482 162 162> 615 35<140 266 140 140 378 504 378 378>
VStem: 266 112<61 615 61 615>
LayerCount: 2
Fore
SplineSet
614 650 m 1
 614 430 l 1
 504 615 l 1
 378 615 l 1
 378 61 l 1
 482 0 l 1
 162 0 l 1
 266 61 l 1
 266 615 l 1
 140 615 l 1
 30 430 l 1
 30 650 l 1
 614 650 l 1
EndSplineSet
EndChar

StartChar: afii10041
Encoding: 1063 1063 51
Width: 694
Flags: MW
HStem: 0 21G<377 667 377 377> 253 51<294 346> 630 20G<17 297 297 297 387 667 667 667>
VStem: 101 112<472 489 489 599 419 599> 471 112<56 315 315 315 345 599 51 599>
LayerCount: 2
Fore
SplineSet
297 650 m 1
 213 599 l 1
 213 489 l 2
 213 349 243 304 345 304 c 0
 395 304 431 319 471 345 c 1
 471 599 l 1
 387 650 l 1
 667 650 l 1
 583 599 l 1
 583 51 l 1
 667 0 l 1
 377 0 l 1
 471 56 l 1
 471 315 l 1
 444 289 387 253 305 253 c 0
 184 253 101 301 101 472 c 2
 101 599 l 1
 17 650 l 1
 297 650 l 1
EndSplineSet
EndChar

StartChar: afii10022
Encoding: 1045 1045 52
Width: 593
Flags: MW
HStem: 0 35<223 450 223 560> 320 35<223 337 223 338 223 337> 615 35<223 441 223 223>
VStem: 111 112<51 320 355 599 599 599>
LayerCount: 2
Fore
SplineSet
27 0 m 1
 111 51 l 1
 111 599 l 1
 27 650 l 1
 545 650 l 1
 545 430 l 1
 441 615 l 1
 223 615 l 1
 223 355 l 1
 337 355 l 1
 412 458 l 1
 412 218 l 1
 338 320 l 1
 223 320 l 1
 223 35 l 1
 450 35 l 1
 560 220 l 1
 560 0 l 1
 27 0 l 1
EndSplineSet
EndChar

StartChar: I
Encoding: 73 73 53
Width: 334
Flags: MW
HStem: 0 21G<27 307 27 27> 630 20G<27 307 307 307>
VStem: 111 112<51 599 51 599>
LayerCount: 2
Fore
SplineSet
307 650 m 1
 223 599 l 1
 223 51 l 1
 307 0 l 1
 27 0 l 1
 111 51 l 1
 111 599 l 1
 27 650 l 1
 307 650 l 1
EndSplineSet
EndChar

StartChar: T
Encoding: 84 84 54
Width: 637
Flags: MW
HStem: 0 21G<162 482 162 162> 615 35<140 266 140 140 378 504 378 378>
VStem: 266 112<61 615 61 615>
LayerCount: 2
Fore
SplineSet
614 650 m 1
 614 430 l 1
 504 615 l 1
 378 615 l 1
 378 61 l 1
 482 0 l 1
 162 0 l 1
 266 61 l 1
 266 615 l 1
 140 615 l 1
 30 430 l 1
 30 650 l 1
 614 650 l 1
EndSplineSet
EndChar

StartChar: E
Encoding: 69 69 55
Width: 596
Flags: MW
HStem: 0 35<223 450 223 560> 320 35<223 337 223 338 223 337> 615 35<223 441 223 223>
VStem: 111 112<51 320 355 599 599 599>
LayerCount: 2
Fore
SplineSet
27 0 m 1
 111 51 l 1
 111 599 l 1
 27 650 l 1
 545 650 l 1
 545 430 l 1
 441 615 l 1
 223 615 l 1
 223 355 l 1
 337 355 l 1
 412 458 l 1
 412 218 l 1
 338 320 l 1
 223 320 l 1
 223 35 l 1
 450 35 l 1
 560 220 l 1
 560 0 l 1
 27 0 l 1
EndSplineSet
EndChar

StartChar: H
Encoding: 72 72 56
Width: 734
Flags: MW
HStem: 0 21G<27 27 27 307 427 427 427 707> 320 35<223 511 223 511> 630 20G<27 307 307 307 427 707 707 707>
VStem: 111 112<51 320 355 599> 511 112<51 320 320 320 355 599 51 599>
LayerCount: 2
Fore
SplineSet
27 0 m 1
 111 51 l 1
 111 599 l 1
 27 650 l 1
 307 650 l 1
 223 599 l 1
 223 355 l 1
 511 355 l 1
 511 599 l 1
 427 650 l 1
 707 650 l 1
 623 599 l 1
 623 51 l 1
 707 0 l 1
 427 0 l 1
 511 51 l 1
 511 320 l 1
 223 320 l 1
 223 51 l 1
 307 0 l 1
 27 0 l 1
EndSplineSet
EndChar

StartChar: afii10032
Encoding: 1054 1054 57
Width: 669
Flags: MW
HStem: -10 32<275.5 394.5 275.5 423> 633 32<275.5 394.5>
VStem: 30 130<237.5 416.5 237.5 422> 510 129<237.5 416.5>
LayerCount: 2
Fore
SplineSet
30 327 m 0
 30 517 157 665 334 665 c 0
 512 665 639 517 639 327 c 0
 639 137 512 -10 334 -10 c 0
 157 -10 30 137 30 327 c 0
160 327 m 0
 160 148 216 22 335 22 c 0
 454 22 510 148 510 327 c 0
 510 506 454 633 335 633 c 0
 216 633 160 506 160 327 c 0
EndSplineSet
EndChar

StartChar: afii10048
Encoding: 1070 1070 58
Width: 986
Flags: MW
HStem: -20 20G<27 27 27 307> -10 32<599 715 599 745> 320 35<223 357 223 358> 633 32<599 715>
VStem: 111 112<51 320 355 599> 358 129<355 355> 827 129<237.5 416.5>
LayerCount: 2
Fore
SplineSet
27 0 m 1xbe
 111 51 l 1
 111 599 l 1
 27 650 l 1
 307 650 l 1
 223 599 l 1
 223 355 l 1
 358 355 l 1
 369 531 487 665 656 665 c 0
 834 665 956 517 956 327 c 0
 956 137 834 -10 656 -10 c 0x7e
 481 -10 360 134 357 320 c 1
 223 320 l 1
 223 51 l 1
 307 0 l 1
 27 0 l 1xbe
487 327 m 0xbe
 487 148 541 22 657 22 c 0x7e
 773 22 827 148 827 327 c 0
 827 506 773 633 657 633 c 0
 541 633 487 506 487 327 c 0xbe
EndSplineSet
EndChar

StartChar: afii10034
Encoding: 1056 1056 59
Width: 602
Flags: MW
HStem: 0 21G<27 27 27 307> 260 35<223 311 311 336 223 311> 615 35<223 223 223 311>
VStem: 111 112<51 260 51 295 295 599 599 599> 447 128<400 510>
LayerCount: 2
Fore
SplineSet
27 0 m 1
 111 51 l 1
 111 599 l 1
 27 650 l 1
 336 650 l 2
 472 650 575 585 575 455 c 0
 575 325 472 260 336 260 c 2
 223 260 l 1
 223 51 l 1
 307 0 l 1
 27 0 l 1
223 615 m 1
 223 295 l 1
 311 295 l 2
 384 295 447 345 447 455 c 0
 447 565 384 615 311 615 c 2
 223 615 l 1
EndSplineSet
EndChar

StartChar: afii10046
Encoding: 1068 1068 60
Width: 602
Flags: MW
HStem: 0 35<223 311 311 336> 355 35<223 311 223 336> 630 20G<27 307 307 307>
VStem: 111 112<51 355 390 599> 447 128<140 250>
LayerCount: 2
Fore
SplineSet
111 599 m 1
 27 650 l 1
 307 650 l 1
 223 599 l 1
 223 390 l 1
 336 390 l 2
 472 390 575 325 575 195 c 0
 575 65 472 0 336 0 c 2
 27 0 l 1
 111 51 l 1
 111 599 l 1
223 35 m 1
 311 35 l 2
 384 35 447 85 447 195 c 0
 447 305 384 355 311 355 c 2
 223 355 l 1
 223 35 l 1
EndSplineSet
EndChar

StartChar: afii10045
Encoding: 1067 1067 61
Width: 901
Flags: MW
HStem: 0 35<223 300 223 325 223 393> 355 35<223 300 300 325 223 336.5> 630 20G<27 27 27 307 594 874 874 874>
VStem: 111 112<51 355 390 599 51 51> 223 213<140 250 140 355 140 355 140 599> 436 128<140 250> 678 112<51 599 51 599>
LayerCount: 2
Fore
SplineSet
594 0 m 1
 678 51 l 1
 678 599 l 1
 594 650 l 1
 874 650 l 1
 790 599 l 1
 790 51 l 1
 874 0 l 1
 594 0 l 1
27 650 m 1
 111 599 l 1
 111 51 l 1
 27 0 l 1
 325 0 l 2
 461 0 564 65 564 195 c 0
 564 325 461 390 325 390 c 2
 223 390 l 1
 223 599 l 1
 307 650 l 1
 27 650 l 1
300 35 m 2
 223 35 l 1
 223 355 l 1
 300 355 l 2
 373 355 436 305 436 195 c 0
 436 85 373 35 300 35 c 2
EndSplineSet
EndChar

StartChar: afii10038
Encoding: 1060 1060 62
Width: 741
Flags: MW
HStem: 0 140<296 314 426 445 445 487 230 314> 110 30<199 314 296 314 296 314 426 445 445 470> 520 30<271 296 296 314 426 445> 520 130<254 296 296 314 426 426 426 445>
VStem: 24 123<265 395 265 400> 314 112<51 110 51 110 140 520 550 599> 594 123<265 395>
LayerCount: 2
Fore
SplineSet
510 650 m 1x9e
 426 599 l 1
 426 550 l 1
 470 550 l 2
 614 550 717 470 717 330 c 0
 717 190 614 110 470 110 c 2
 426 110 l 1x6e
 426 51 l 1
 510 0 l 1
 230 0 l 1xae
 314 51 l 1
 314 110 l 1
 271 110 l 2
 127 110 24 190 24 330 c 0
 24 470 127 550 271 550 c 2
 314 550 l 1x6e
 314 599 l 1
 230 650 l 1
 510 650 l 1x9e
426 520 m 1x9e
 426 140 l 1
 445 140 l 2
 529 140 594 200 594 330 c 0
 594 460 529 520 445 520 c 2
 426 520 l 1x9e
296 140 m 2
 314 140 l 1
 314 520 l 1
 296 520 l 2
 212 520 147 460 147 330 c 0
 147 200 212 140 296 140 c 2
EndSplineSet
EndChar

StartChar: afii10018
Encoding: 1041 1041 63
Width: 602
Flags: MW
HStem: 0 35<223 311 311 336> 355 35<223 311 223 336> 615 35<223 408 223 223>
VStem: 111 112<51 355 390 599 599 599> 447 128<140 250>
LayerCount: 2
Fore
SplineSet
519 650 m 1
 526 450 l 1
 408 615 l 1
 223 615 l 1
 223 390 l 1
 336 390 l 2
 472 390 575 325 575 195 c 0
 575 65 472 0 336 0 c 2
 27 0 l 1
 111 51 l 1
 111 599 l 1
 27 650 l 1
 519 650 l 1
311 355 m 2
 223 355 l 1
 223 35 l 1
 311 35 l 2
 384 35 447 85 447 195 c 0
 447 305 384 355 311 355 c 2
EndSplineSet
EndChar

StartChar: afii10019
Encoding: 1042 1042 64
Width: 608
Flags: MW
HStem: 0 35<223 317 317 336> 320 35<223 291 223 291 223 307> 615 35<223 223 223 287>
VStem: 111 112<51 320 35 355 355 599 599 599> 427 122<447.5 544> 452 128<125 226.5 115.5 235>
LayerCount: 2
Fore
SplineSet
111 599 m 1xf8
 27 650 l 1
 306 650 l 2
 440 650 549 618 549 488 c 0
 549 407 489 351 406 340 c 1
 503 329 580 272 580 181 c 0
 580 50 480 0 336 0 c 2
 27 0 l 1
 111 51 l 1xf4
 111 599 l 1xf8
223 320 m 1
 223 35 l 1
 317 35 l 2
 387 35 452 70 452 180 c 0
 452 290 371 320 307 320 c 2
 223 320 l 1
223 615 m 1
 223 355 l 1
 291 355 l 2
 358 357 427 384 427 489 c 0xf8
 427 599 357 615 287 615 c 2
 223 615 l 1
EndSplineSet
EndChar

StartChar: afii10044
Encoding: 1066 1066 65
Width: 691
Flags: MW
HStem: 0 35<319 400 400 425> 355 35<319 400 319 425> 615 35<134.5 169 169 207>
VStem: 207 112<51 355 390 599> 536 128<140 250>
LayerCount: 2
Fore
SplineSet
27 424 m 1
 27 650 l 1
 403 650 l 1
 319 599 l 1
 319 390 l 1
 425 390 l 2
 561 390 664 325 664 195 c 0
 664 65 561 0 425 0 c 2
 123 0 l 1
 207 51 l 1
 207 615 l 1
 169 615 l 2
 100 615 53 551 27 424 c 1
319 35 m 1
 400 35 l 2
 473 35 536 85 536 195 c 0
 536 305 473 355 400 355 c 2
 319 355 l 1
 319 35 l 1
EndSplineSet
EndChar

StartChar: v
Encoding: 118 118 66
Width: 505
Flags: MW
HStem: -15 21G<243 243> 430 20G<-27 215 215 215 304 505 505 505>
LayerCount: 2
Fore
SplineSet
505 450 m 1
 424 400 l 1
 243 -15 l 1
 48 405 l 1
 -27 450 l 1
 215 450 l 1
 148 411 l 1
 269 140 l 1
 380 401 l 1
 304 450 l 1
 505 450 l 1
EndSplineSet
EndChar

StartChar: afii10017
Encoding: 1040 1040 67
Width: 663
Flags: MW
HStem: 0 210<-10 399 184 197 184 402 184 663> 175 35<184 399 184 415 170 399> 645 20G<329 329>
LayerCount: 2
Fore
SplineSet
-10 0 m 1xa0
 81 61 l 1
 329 665 l 1
 585 50 l 1
 663 0 l 1
 402 0 l 1xa0
 469 45 l 1
 415 175 l 1
 170 175 l 1x60
 120 55 l 1
 197 0 l 1
 -10 0 l 1xa0
290 471 m 1
 184 210 l 1
 399 210 l 1
 290 471 l 1
EndSplineSet
EndChar

StartChar: A
Encoding: 65 65 68
Width: 663
Flags: MW
HStem: 0 210<-10 399 184 197 184 402 184 663> 175 35<184 399 184 415 170 399> 645 20G<329 329>
LayerCount: 2
Fore
SplineSet
-10 0 m 1xa0
 81 61 l 1
 329 665 l 1
 585 50 l 1
 663 0 l 1
 402 0 l 1xa0
 469 45 l 1
 415 175 l 1
 170 175 l 1x60
 120 55 l 1
 197 0 l 1
 -10 0 l 1xa0
290 471 m 1
 184 210 l 1
 399 210 l 1
 290 471 l 1
EndSplineSet
EndChar

StartChar: B
Encoding: 66 66 69
Width: 608
Flags: MW
HStem: 0 35<223 317 317 336> 320 35<223 291 223 291 223 307> 615 35<223 223 223 287>
VStem: 111 112<51 320 35 355 355 599 599 599> 427 122<447.5 544> 452 128<125 226.5 115.5 235>
LayerCount: 2
Fore
SplineSet
111 599 m 1xf8
 27 650 l 1
 306 650 l 2
 440 650 549 618 549 488 c 0
 549 407 489 351 406 340 c 1
 503 329 580 272 580 181 c 0
 580 50 480 0 336 0 c 2
 27 0 l 1
 111 51 l 1xf4
 111 599 l 1xf8
223 320 m 1
 223 35 l 1
 317 35 l 2
 387 35 452 70 452 180 c 0
 452 290 371 320 307 320 c 2
 223 320 l 1
223 615 m 1
 223 355 l 1
 291 355 l 2
 358 357 427 384 427 489 c 0xf8
 427 599 357 615 287 615 c 2
 223 615 l 1
EndSplineSet
EndChar

StartChar: V
Encoding: 86 86 70
Width: 679
Flags: MW
HStem: -15 21G<354 354> 630 20G<0 270 270 270 482 689 689 689>
LayerCount: 2
Fore
SplineSet
689 650 m 1
 598 588 l 1
 354 -15 l 1
 90 594 l 1
 0 650 l 1
 270 650 l 1
 203 604 l 1
 388 179 l 1
 559 594 l 1
 482 650 l 1
 689 650 l 1
EndSplineSet
EndChar

StartChar: O
Encoding: 79 79 71
Width: 669
Flags: MW
HStem: -10 32<275.5 394.5 275.5 423> 633 32<275.5 394.5>
VStem: 30 130<237.5 416.5 237.5 422> 510 129<237.5 416.5>
LayerCount: 2
Fore
SplineSet
30 327 m 0
 30 517 157 665 334 665 c 0
 512 665 639 517 639 327 c 0
 639 137 512 -10 334 -10 c 0
 157 -10 30 137 30 327 c 0
160 327 m 0
 160 148 216 22 335 22 c 0
 454 22 510 148 510 327 c 0
 510 506 454 633 335 633 c 0
 216 633 160 506 160 327 c 0
EndSplineSet
EndChar

StartChar: L
Encoding: 76 76 72
Width: 603
Flags: MW
HStem: 0 35<223 460 223 570> 630 20G<27 327 327 327>
VStem: 111 112<51 589 35 599 35 599>
LayerCount: 2
Fore
SplineSet
570 220 m 1
 570 0 l 1
 27 0 l 1
 111 51 l 1
 111 599 l 1
 27 650 l 1
 327 650 l 1
 223 589 l 1
 223 35 l 1
 460 35 l 1
 570 220 l 1
EndSplineSet
EndChar

StartChar: P
Encoding: 80 80 73
Width: 602
Flags: MW
HStem: 0 21G<27 27 27 307> 260 35<223 311 311 336 223 311> 615 35<223 223 223 311>
VStem: 111 112<51 260 51 295 295 599 599 599> 447 128<400 510>
LayerCount: 2
Fore
SplineSet
27 0 m 1
 111 51 l 1
 111 599 l 1
 27 650 l 1
 336 650 l 2
 472 650 575 585 575 455 c 0
 575 325 472 260 336 260 c 2
 223 260 l 1
 223 51 l 1
 307 0 l 1
 27 0 l 1
223 615 m 1
 223 295 l 1
 311 295 l 2
 384 295 447 345 447 455 c 0
 447 565 384 615 311 615 c 2
 223 615 l 1
EndSplineSet
EndChar

StartChar: M
Encoding: 77 77 74
Width: 864
Flags: MW
HStem: -20 20G<27 27 27 250 557 557 557 837> -15 21G<399 399> 630 20G<27 231 231 231 627 837 837 837>
VStem: 114 49<63 543 63 596> 641 112<51 570 570 570>
LayerCount: 2
Fore
SplineSet
27 0 m 1xb8
 114 63 l 1
 114 596 l 1
 27 650 l 1
 231 650 l 1
 431 179 l 1
 627 650 l 1
 837 650 l 1
 753 599 l 1
 753 51 l 1
 837 0 l 1
 557 0 l 1xb8
 641 51 l 1
 641 570 l 1
 399 -15 l 1x78
 163 543 l 1
 163 63 l 1
 250 0 l 1
 27 0 l 1xb8
EndSplineSet
EndChar

StartChar: afii10030
Encoding: 1052 1052 75
Width: 864
Flags: MW
HStem: -20 20G<24 24 24 253 557 557 557 837> -15 21G<399 399> 630 20G<27 231 231 231 627 837 837 837>
VStem: 114 49<60 543 60 596> 641 112<51 570 570 570>
LayerCount: 2
Fore
SplineSet
24 0 m 1xb8
 114 60 l 1
 114 596 l 1
 27 650 l 1
 231 650 l 1
 431 179 l 1
 627 650 l 1
 837 650 l 1
 753 599 l 1
 753 51 l 1
 837 0 l 1
 557 0 l 1xb8
 641 51 l 1
 641 570 l 1
 399 -15 l 1x78
 163 543 l 1
 163 60 l 1
 253 0 l 1
 24 0 l 1xb8
EndSplineSet
EndChar

StartChar: N
Encoding: 78 78 76
Width: 712
Flags: MW
HStem: -20 20G<27 266 27 27> -15 21G<595 595> 630 20G<27 209 209 209 456 685 685 685>
VStem: 117 49<63 523> 546 49<224 587 -15 587>
LayerCount: 2
Fore
SplineSet
166 63 m 1x78
 266 0 l 1
 27 0 l 1
 117 63 l 1
 117 578 l 1
 27 650 l 1
 209 650 l 1
 546 224 l 1
 546 587 l 1
 456 650 l 1
 685 650 l 1
 595 587 l 1
 595 -15 l 1
 166 523 l 1xb8
 166 63 l 1x78
EndSplineSet
EndChar

StartChar: F
Encoding: 70 70 77
Width: 585
Flags: MW
HStem: 0 21G<27 27 27 317> 320 35<223 330 223 331 223 330> 615 35<223 435 223 223>
VStem: 111 112<51 320 355 599 599 599>
LayerCount: 2
Fore
SplineSet
27 0 m 1
 111 51 l 1
 111 599 l 1
 27 650 l 1
 545 650 l 1
 545 430 l 1
 435 615 l 1
 223 615 l 1
 223 355 l 1
 330 355 l 1
 405 458 l 1
 405 218 l 1
 331 320 l 1
 223 320 l 1
 223 51 l 1
 317 0 l 1
 27 0 l 1
EndSplineSet
EndChar

StartChar: X
Encoding: 88 88 78
Width: 710
Flags: MW
HStem: 0 21G<28 237 28 28 427 693 427 427> 630 20G<20 286 286 286 442 648 648 648>
LayerCount: 2
Fore
SplineSet
553 590 m 1
 394 362 l 1
 606 47 l 1
 693 0 l 1
 427 0 l 1
 484 40 l 1
 327 273 l 1
 165 49 l 1
 237 0 l 1
 28 0 l 1
 123 59 l 1
 301 310 l 1
 106 601 l 1
 20 650 l 1
 286 650 l 1
 228 609 l 1
 370 399 l 1
 510 601 l 1
 442 650 l 1
 648 650 l 1
 553 590 l 1
EndSplineSet
EndChar

StartChar: afii10039
Encoding: 1061 1061 79
Width: 710
Flags: MW
HStem: 0 21G<28 237 28 28 427 693 427 427> 630 20G<20 286 286 286 442 648 648 648>
LayerCount: 2
Fore
SplineSet
553 590 m 1
 394 362 l 1
 606 47 l 1
 693 0 l 1
 427 0 l 1
 484 40 l 1
 327 273 l 1
 165 49 l 1
 237 0 l 1
 28 0 l 1
 123 59 l 1
 301 310 l 1
 106 601 l 1
 20 650 l 1
 286 650 l 1
 228 609 l 1
 370 399 l 1
 510 601 l 1
 442 650 l 1
 648 650 l 1
 553 590 l 1
EndSplineSet
EndChar

StartChar: Y
Encoding: 89 89 80
Width: 682
Flags: MW
HStem: 0 21G<212 492 212 212> 630 20G<10 276 276 276 466 675 675 675>
VStem: 296 112<51 282 282 282>
LayerCount: 2
Fore
SplineSet
276 650 m 1
 211 608 l 1
 382 345 l 1
 534 597 l 1
 466 650 l 1
 675 650 l 1
 580 592 l 1
 408 303 l 1
 408 51 l 1
 492 0 l 1
 212 0 l 1
 296 51 l 1
 296 282 l 1
 89 602 l 1
 10 650 l 1
 276 650 l 1
EndSplineSet
EndChar

StartChar: Q
Encoding: 81 81 81
Width: 669
Flags: MW
HStem: 633 32<275.5 394.5>
VStem: 30 130<243.5 416.5 237.5 422> 273 118<4.29497e+09 4.29497e+09> 510 129<242.5 416.5>
LayerCount: 2
Fore
SplineSet
30 327 m 0
 30 517 157 665 334 665 c 0
 512 665 639 517 639 327 c 0
 639 158 538 22 391 -5 c 1
 385 -82 423 -197 538 -200 c 1
 368 -246 274 -108 273 -4 c 1
 128 25 30 160 30 327 c 0
160 327 m 0
 160 148 216 22 335 22 c 0
 454 22 510 148 510 327 c 0
 510 506 454 633 335 633 c 0
 216 633 160 506 160 327 c 0
EndSplineSet
EndChar

StartChar: U
Encoding: 85 85 82
Width: 720
Flags: MW
HStem: -10 54<309 453 309 466.5> 630 20G<24 304 304 304 467 696 696 696>
VStem: 108 112<254 263 263 599> 557 49<254 259 259 587>
LayerCount: 2
Fore
SplineSet
108 599 m 1
 24 650 l 1
 304 650 l 1
 220 599 l 1
 220 263 l 2
 220 163 237 44 381 44 c 0
 525 44 557 164 557 254 c 2
 557 587 l 1
 467 650 l 1
 696 650 l 1
 606 587 l 1
 606 259 l 2
 606 143 561 -10 372 -10 c 0
 160 -10 108 128 108 254 c 2
 108 599 l 1
EndSplineSet
EndChar

StartChar: C
Encoding: 67 67 83
Width: 620
Flags: MW
HStem: -10 63<308.5 402.5> 632 33<287.5 366 242 404.5>
VStem: 30 128<248 417.5 248 422>
LayerCount: 2
Fore
SplineSet
559 665 m 1
 559 420 l 1
 512 542 458 632 351 632 c 0
 224 632 158 505 158 330 c 0
 158 166 244 53 373 53 c 0
 476 53 547 121 573 227 c 1
 563 85 468 -10 337 -10 c 0
 153 -10 30 137 30 327 c 0
 30 517 150 665 334 665 c 0
 398 665 438 652 479 620 c 1
 559 665 l 1
EndSplineSet
EndChar

StartChar: afii10035
Encoding: 1057 1057 84
Width: 620
Flags: MW
HStem: -10 63<308.5 402.5> 632 33<287.5 366 242 404.5>
VStem: 30 128<248 417.5 248 422>
LayerCount: 2
Fore
SplineSet
559 665 m 1
 559 420 l 1
 512 542 458 632 351 632 c 0
 224 632 158 505 158 330 c 0
 158 166 244 53 373 53 c 0
 476 53 547 121 573 227 c 1
 563 85 468 -10 337 -10 c 0
 153 -10 30 137 30 327 c 0
 30 517 150 665 334 665 c 0
 398 665 438 652 479 620 c 1
 559 665 l 1
EndSplineSet
EndChar

StartChar: afii10047
Encoding: 1069 1069 85
Width: 608
Flags: MW
HStem: -10 73 320 35<293 473 292 476> 645 20G<60 60 261 391.5>
VStem: 473 114<314 320 320 320>
LayerCount: 2
Fore
SplineSet
473 314 m 2
 473 320 l 1
 292 320 l 1
 227 218 l 1
 227 458 l 1
 293 355 l 1
 476 355 l 1
 481 497 425 617 312 632 c 0
 182 650 98 533 60 400 c 1
 60 665 l 1
 140 620 l 1
 181 652 229 665 293 665 c 0
 490 665 587 514 587 327 c 0
 587 140 466 -10 282 -10 c 0
 154 -10 33 83 36 257 c 1
 62 129 148 67 240 63 c 0
 369 57 473 161 473 314 c 2
EndSplineSet
EndChar

StartChar: afii10049
Encoding: 1071 1071 86
Width: 671
Flags: MW
HStem: 0 21G<1 187 1 1 364 644 364 364> 296 35<367 398 398 448> 615 35<341 360 360 448>
VStem: 102 122<425.5 525.5 425.5 538> 448 112<51 296 296 296 331 599 51 615 51 615>
LayerCount: 2
Fore
SplineSet
341 650 m 2
 644 650 l 1
 560 599 l 1
 560 51 l 1
 644 0 l 1
 364 0 l 1
 448 51 l 1
 448 296 l 1
 398 296 l 2
 336 296 298 259 271 200 c 2
 187 0 l 1
 1 0 l 1
 84 53 l 1
 134 164 l 2
 165 229 205 290 274 309 c 1
 164 323 102 376 102 473 c 0
 102 603 208 650 341 650 c 2
448 331 m 1
 448 615 l 1
 360 615 l 2
 290 615 224 578 224 473 c 0
 224 378 287 331 357 331 c 2
 448 331 l 1
EndSplineSet
EndChar

StartChar: afii10028
Encoding: 1050 1050 87
Width: 694
Flags: MW
HStem: 0 21G<27 307 27 27 484 670 484 484> 320 35<223 272 223 284> 530 135<527.5 553 505.5 570> 582 83<426 553 478.5 553>
VStem: 111 112<51 320 355 599>
LayerCount: 2
Fore
SplineSet
307 650 m 1xd8
 223 599 l 1
 223 355 l 1
 284 355 l 2
 335 357 360 394 383 459 c 2
 426 582 l 2xd8
 448 644 481 665 530 665 c 0
 576 665 615 642 615 596 c 0
 615 551 586 530 554 530 c 0xe8
 501 530 510 582 485 582 c 0
 472 582 465 574 459 557 c 2
 416 438 l 2
 395 382 371 357 343 343 c 1
 408 336 474 295 525 184 c 2
 587 51 l 1
 670 0 l 1
 484 0 l 1
 396 205 l 2
 360 292 317 320 272 320 c 2
 223 320 l 1
 223 51 l 1
 307 0 l 1
 27 0 l 1
 111 51 l 1
 111 599 l 1
 27 650 l 1
 307 650 l 1xd8
EndSplineSet
EndChar

StartChar: afii10024
Encoding: 1046 1046 88
Width: 1006
Flags: MW
HStem: 0 21G<24 210 24 24 363 643 363 363 796 982 796 796> 320 35<399 409 409 447 559 597> 529 136<137 163.5 842.5 869> 582 83<137 211.5 137 264>
VStem: 447 112<51 320 51 320 355 599>
LayerCount: 2
Fore
SplineSet
363 650 m 1xd8
 643 650 l 1
 559 599 l 1
 559 355 l 1
 606 355 l 2
 659 355 677 393 701 459 c 2
 742 582 l 2
 764 642 797 665 846 665 c 0
 892 665 931 643 931 596 c 0
 931 551 904 529 869 529 c 0xd8
 816 529 825 582 801 582 c 0xe8
 788 582 781 574 775 557 c 2
 734 438 l 2
 714 383 691 356 666 344 c 1
 734 338 796 294 845 184 c 2
 902 50 l 1
 982 0 l 1
 796 0 l 1
 716 205 l 2
 680 292 635 320 597 320 c 2
 559 320 l 1
 559 51 l 1
 643 0 l 1
 363 0 l 1
 447 51 l 1
 447 320 l 1
 409 320 l 2
 371 320 326 292 290 205 c 2
 210 0 l 1
 24 0 l 1
 104 50 l 1
 161 184 l 2
 210 294 272 338 340 344 c 1
 314 356 292 383 272 438 c 2
 231 557 l 2
 225 574 218 582 205 582 c 0
 181 582 190 529 137 529 c 0xd8
 102 529 75 551 75 596 c 0
 75 643 114 665 160 665 c 0
 209 665 242 642 264 582 c 2xe8
 305 459 l 2
 329 393 346 355 399 355 c 2
 447 355 l 1
 447 599 l 1
 363 650 l 1xd8
EndSplineSet
EndChar

StartChar: afii10021
Encoding: 1044 1044 89
Width: 690
Flags: MW
HStem: -200 21G<21 21 669 669> 0 35<145 467> 615 35<231 467 231 231>
VStem: 184 42 467 112<35 599 35 615 35 615>
LayerCount: 2
Fore
SplineSet
21 -200 m 1
 21 35 l 1
 48 35 l 2
 168 35 175 224 180 340 c 2
 188 599 l 1
 88 650 l 1
 663 650 l 1
 579 599 l 1
 579 35 l 1
 669 35 l 1
 669 -200 l 1
 551 0 l 1
 139 0 l 1
 21 -200 l 1
467 615 m 1
 231 615 l 1
 222 320 l 2
 217 168 194 73 145 35 c 1
 467 35 l 1
 467 615 l 1
EndSplineSet
EndChar

StartChar: R
Encoding: 82 82 90
Width: 663
Flags: MW
HStem: 0 21G<27 307 27 27 478 666 478 478> 296 35<223 262 223 310> 615 35<223 223 223 307>
VStem: 111 112<51 296 51 331 331 599 599 599> 443 122<430.5 530.5>
LayerCount: 2
Fore
SplineSet
27 650 m 1
 326 650 l 2
 459 650 565 608 565 478 c 0
 565 381 496 316 379 305 c 1
 449 294 488 257 519 192 c 2
 583 53 l 1
 666 0 l 1
 478 0 l 1
 389 210 l 2
 362 269 319 296 262 296 c 2
 223 296 l 1
 223 51 l 1
 307 0 l 1
 27 0 l 1
 111 51 l 1
 111 599 l 1
 27 650 l 1
223 615 m 1
 223 331 l 1
 310 331 l 2
 385 331 443 383 443 478 c 0
 443 583 377 615 307 615 c 2
 223 615 l 1
EndSplineSet
EndChar

StartChar: afii10037
Encoding: 1059 1059 91
Width: 652
Flags: MW
HStem: -10 85<197 272> -10 133<197 220 179 244.5> 630 20G<10 260 260 260 449 649 649 649>
LayerCount: 2
Fore
SplineSet
649 650 m 1xa0
 565 591 l 1
 324 75 l 2xa0
 296 16 269 -10 220 -10 c 0
 174 -10 137 16 137 60 c 0
 137 101 163 123 195 123 c 0x60
 245 123 238 75 265 75 c 0
 279 75 288 85 295 101 c 2
 328 173 l 1
 84 602 l 1
 10 650 l 1
 260 650 l 1
 199 609 l 1
 384 293 l 1
 524 595 l 1
 449 650 l 1
 649 650 l 1xa0
EndSplineSet
EndChar

StartChar: afii10027
Encoding: 1049 1049 92
Width: 736
Flags: MW
HStem: 0 21G<27 27 27 307 429 429 429 709> 714 24<350 384.5 350 410.5> 714 152<237 410.5>
VStem: 111 112<51 63 130 599> 199 114<803.5 822> 421 114<803.5 822 775 833> 513 112<51 513 513 513 580 599 51 599>
LayerCount: 2
Fore
SplineSet
258 866 m 0xac
 287 866 313 847 313 819 c 0
 313 788 290 782 296 764 c 0
 301 747 333 738 367 738 c 0xcc
 402 738 432 747 438 764 c 0
 444 782 421 788 421 819 c 0
 421 847 444 866 477 866 c 0
 519 866 535 836 535 808 c 0
 535 742 454 714 367 714 c 0
 280 714 199 742 199 808 c 0
 199 836 216 866 258 866 c 0xac
27 0 m 1
 111 51 l 1
 111 599 l 1
 27 650 l 1
 307 650 l 1
 223 599 l 1
 223 130 l 1
 513 580 l 1
 513 599 l 1
 429 650 l 1
 709 650 l 1
 625 599 l 1
 625 51 l 1
 709 0 l 1
 429 0 l 1
 513 51 l 1
 513 513 l 1
 223 63 l 1
 223 51 l 1
 307 0 l 1
 27 0 l 1
EndSplineSet
EndChar

StartChar: afii10029
Encoding: 1051 1051 93
Width: 711
Flags: MW
HStem: -20 20G<404 684 404 404> -10 125<84 98.5 63.5 152.5> 615 35<253 488 253 253>
VStem: 21 232<34.5 280> 204 49<300 599 599 599> 488 112<51 599 51 615 51 615>
LayerCount: 2
Fore
SplineSet
204 599 m 1x6c
 114 650 l 1
 684 650 l 1
 600 599 l 1
 600 51 l 1
 684 0 l 1
 404 0 l 1xac
 488 51 l 1
 488 615 l 1
 253 615 l 1
 253 280 l 2
 253 76 200 -10 105 -10 c 0
 63 -10 21 11 21 58 c 0x74
 21 102 52 115 75 115 c 0
 122 115 114 66 148 76 c 0
 202 92 204 213 204 300 c 2
 204 599 l 1x6c
EndSplineSet
EndChar

StartChar: J
Encoding: 74 74 94
Width: 466
Flags: MW
HStem: -10 32<168 212.5 168 231> -10 176<60.5 231> 630 20G<162 442 442 442>
VStem: 246 112<250 599>
LayerCount: 2
Fore
SplineSet
442 650 m 1xb0
 358 599 l 1
 358 230 l 2
 358 75 290 -10 172 -10 c 0
 62 -10 23 39 20 93 c 0
 18 138 44 166 77 166 c 0x70
 126 166 140 130 135 97 c 0
 125 31 157 22 179 22 c 0
 246 22 246 123 246 250 c 2
 246 599 l 1
 162 650 l 1
 442 650 l 1xb0
EndSplineSet
EndChar

StartChar: G
Encoding: 71 71 95
Width: 627
Flags: MW
HStem: -10 35<279 369.5> 632 33<266.5 367.5 243.5 395>
VStem: 30 130 458 101
LayerCount: 2
Fore
SplineSet
644 290 m 1
 570 239 l 1
 570 -10 l 1
 485 58 l 1
 451 16 405 -10 334 -10 c 0
 140 -10 30 137 30 327 c 0
 30 517 150 665 337 665 c 0
 398 665 437 651 476 620 c 1
 559 665 l 1
 559 400 l 1
 511 526 453 632 337 632 c 0
 196 632 161 474 160 322 c 0
 159 154 216 25 342 25 c 0
 409 25 437 54 458 81 c 1
 458 239 l 1
 374 290 l 1
 644 290 l 1
EndSplineSet
EndChar

StartChar: D
Encoding: 68 68 96
Width: 659
Flags: MW
HStem: 0 35<223 310 310 319> 615 35<223 310 223 223>
VStem: 111 112<51 599 599 599> 500 129<236 418>
LayerCount: 2
Fore
SplineSet
27 650 m 1
 319 650 l 2
 507 650 629 520 629 327 c 0
 629 134 507 0 319 0 c 2
 27 0 l 1
 111 51 l 1
 111 599 l 1
 27 650 l 1
310 615 m 2
 223 615 l 1
 223 35 l 1
 310 35 l 2
 436 35 500 145 500 327 c 0
 500 509 436 615 310 615 c 2
EndSplineSet
EndChar

StartChar: Z
Encoding: 90 90 97
Width: 582
Flags: MW
HStem: 0 35<178 432 178 542> 615 35<170 397 170 170>
LayerCount: 2
Fore
SplineSet
60 430 m 1
 60 650 l 1
 542 650 l 1
 178 35 l 1
 432 35 l 1
 542 220 l 1
 542 0 l 1
 34 0 l 1
 397 615 l 1
 170 615 l 1
 60 430 l 1
EndSplineSet
EndChar

StartChar: one
Encoding: 49 49 98
Width: 502
Flags: MW
HStem: 0 21G<109 393 109 109> 645 20G<300 300>
VStem: 201 99<51 541 541 541>
LayerCount: 2
Fore
SplineSet
201 541 m 1
 115 541 l 1
 300 665 l 1
 300 51 l 1
 393 0 l 1
 109 0 l 1
 201 51 l 1
 201 541 l 1
EndSplineSet
EndChar

StartChar: l
Encoding: 108 108 99
Width: 277
Flags: MW
HStem: 0 21G<13 13 13 257> 645 20G<183 183>
VStem: 87 96<45 588 588 588>
LayerCount: 2
Fore
SplineSet
13 0 m 1
 87 45 l 1
 87 588 l 1
 13 610 l 1
 183 665 l 1
 183 45 l 1
 257 0 l 1
 13 0 l 1
EndSplineSet
EndChar

StartChar: o
Encoding: 111 111 100
Width: 479
Flags: MW
HStem: -10 21G<174.5 298.5> 440 20G<179.5 303.5>
LayerCount: 2
Fore
SplineSet
22 225 m 0
 22 361 120 460 239 460 c 0
 368 460 457 361 457 225 c 0
 457 89 358 -10 239 -10 c 0
 110 -10 22 89 22 225 c 0
133 210 m 0
 148 91 202 12 264 22 c 0
 336 33 361 121 346 240 c 0
 331 359 276 438 214 428 c 0
 142 420 118 329 133 210 c 0
EndSplineSet
EndChar

StartChar: a
Encoding: 97 97 101
Width: 446
Flags: MW
HStem: -10 58<98 195.5> 297 163<71 269> 431 29<182 230>
VStem: 23 96<105.5 132> 41 90<333.5 348> 272 95<53 61 93 265 265 265 294 311 53 355.5>
LayerCount: 2
Fore
SplineSet
367 311 m 2xd4
 367 53 l 1
 441 83 l 1
 404 12 366 -10 330 -10 c 0
 295 -10 272 11 272 61 c 1
 211 17 l 2
 185 -2 162 -10 131 -10 c 0
 65 -10 23 35 23 102 c 0
 23 162 62 210 140 241 c 2
 272 294 l 1xb4
 272 311 l 2
 272 400 255 431 205 431 c 0
 159 431 131 407 131 348 c 0xcc
 131 316 112 297 85 297 c 0
 57 297 41 319 41 348 c 0
 42 413 132 460 214 460 c 0
 324 460 367 402 367 311 c 2xd4
272 93 m 1
 272 265 l 1
 207 238 l 2
 142 211 119 169 119 129 c 0
 119 82 140 48 183 48 c 0
 208 48 235 63 272 93 c 1
EndSplineSet
EndChar

StartChar: c
Encoding: 99 99 102
Width: 444
Flags: MW
HStem: -10 21G<163.5 279> 297 163<177.5 362.5>
VStem: 302 96<337 351 335.5 377>
LayerCount: 2
Fore
SplineSet
120 209 m 0
 142 92 225 60 287 70 c 0
 334 78 384 116 412 182 c 1
 404 67 330 -10 228 -10 c 0
 99 -10 22 92 22 225 c 0
 22 358 117 460 238 460 c 0
 338 460 395 410 398 351 c 0
 398 320 377 297 348 297 c 0
 315 297 302 326 302 348 c 0
 302 406 271 438 220 430 c 0
 148 420 98 328 120 209 c 0
EndSplineSet
EndChar

StartChar: e
Encoding: 101 101 103
Width: 446
Flags: MW
HStem: -10 21G<162 280.5> 261 25 261 199
VStem: 22 93<245 252 245 279 245 290> 316 97
LayerCount: 2
Fore
SplineSet
414 271 m 1xd8
 115 252 l 1
 115 238 116 224 119 209 c 0
 141 95 222 60 287 70 c 0
 336 77 385 112 413 182 c 1
 408 67 333 -10 228 -10 c 0
 96 -10 22 95 22 225 c 0
 22 355 109 460 231 460 c 0xb8
 360 460 414 389 414 271 c 1xd8
316 293 m 1
 316 398 272 437 213 430 c 0
 157 422 118 362 115 279 c 1
 316 293 l 1
EndSplineSet
EndChar

StartChar: x
Encoding: 120 120 104
Width: 527
Flags: MW
HStem: 0 21G<-2 -2 -2 202 275 275 275 520> 430 20G<4 249 249 249 283 487 487 487>
LayerCount: 2
Fore
SplineSet
-2 0 m 1
 87 56 l 1
 211 217 l 1
 82 405 l 1
 4 450 l 1
 249 450 l 1
 187 414 l 1
 273 289 l 1
 358 402 l 1
 283 450 l 1
 487 450 l 1
 394 395 l 1
 293 261 l 1
 442 45 l 1
 520 0 l 1
 275 0 l 1
 337 36 l 1
 231 188 l 1
 122 47 l 1
 202 0 l 1
 -2 0 l 1
EndSplineSet
EndChar

StartChar: y
Encoding: 121 121 105
Width: 525
Flags: MW
HStem: -211 106<112.5 125.5 100.5 151.5> 430 20G<-20 226 226 226 321 525 525 525>
LayerCount: 2
Fore
SplineSet
525 450 m 1
 443 399 l 1
 239 -101 l 2
 205 -191 172 -211 131 -211 c 0
 94 -211 66 -190 66 -157 c 0
 66 -123 87 -105 114 -105 c 0
 137 -105 144 -118 158 -126 c 0
 173 -136 186 -126 199 -96 c 2
 243 13 l 1
 58 404 l 1
 -20 450 l 1
 226 450 l 1
 158 410 l 1
 291 132 l 1
 399 400 l 1
 321 450 l 1
 525 450 l 1
EndSplineSet
EndChar

StartChar: afii10025
Encoding: 1047 1047 106
Width: 551
Flags: MW
HStem: -10 59<203 295 203 345.5> 320 35<206 247 206 263 206 247> 632 33<259 291>
VStem: 375 117<452 544.5> 394 122<151 229>
LayerCount: 2
Fore
SplineSet
72 403 m 1xf0
 72 665 l 1
 153 619 l 1
 193 651 237 665 281 665 c 0
 402 665 492 621 492 491 c 0
 492 413 439 356 365 343 c 1
 447 334 516 280 516 186 c 0
 516 64 420 -10 271 -10 c 0
 135 -10 59 74 53 196 c 1xf0
 90 93 159 49 247 49 c 0
 343 49 394 110 394 192 c 0
 394 266 345 320 263 320 c 2
 206 320 l 1
 206 355 l 1
 247 355 l 2xe8
 314 357 375 398 375 493 c 0
 375 596 323 632 259 632 c 0
 155 632 106 507 72 403 c 1xf0
EndSplineSet
EndChar

StartChar: S
Encoding: 83 83 107
Width: 543
Flags: MW
HStem: -10 32<271.5 347 245 378.5> 633 32<227.5 290.5 210 310>
VStem: 60 62<504.5 542.5> 442 71<128 165.5>
LayerCount: 2
Fore
SplineSet
471 665 m 1
 471 430 l 1
 423 560 359 633 261 633 c 0
 194 633 122 598 122 530 c 0
 122 479 162 454 219 430 c 2
 378 362 l 2
 445 334 513 287 513 173 c 0
 513 83 450 -10 307 -10 c 0
 236 -10 171 20 141 53 c 1
 62 -10 l 1
 62 249 l 1
 113 116 183 22 307 22 c 0
 387 22 442 64 442 132 c 0
 442 199 383 227 341 245 c 2
 184 313 l 2
 112 343 60 393 60 477 c 0
 60 608 160 665 260 665 c 0
 321 665 370 644 398 621 c 1
 471 665 l 1
EndSplineSet
EndChar

StartChar: K
Encoding: 75 75 108
Width: 705
Flags: MW
HStem: 0 21G<27 27 27 307 504 504 504 695> 630 20G<27 307 307 307 423 653 653 653>
VStem: 111 112<51 246 304 599>
LayerCount: 2
Fore
SplineSet
27 0 m 1
 111 51 l 1
 111 599 l 1
 27 650 l 1
 307 650 l 1
 223 599 l 1
 223 304 l 1
 489 592 l 1
 423 650 l 1
 653 650 l 1
 527 575 l 1
 359 390 l 1
 601 58 l 1
 695 0 l 1
 504 0 l 1
 286 314 l 1
 223 246 l 1
 223 51 l 1
 307 0 l 1
 27 0 l 1
EndSplineSet
EndChar

StartChar: k
Encoding: 107 107 109
Width: 531
Flags: MW
HStem: 0 21G<11 255 11 11 357 504 357 357> 220 32<181 190 190 209 181 190> 352 108<394 416 372 426.5> 645 20G<181 181>
VStem: 85 96<45 220 252 588 588 588>
LayerCount: 2
Fore
SplineSet
181 252 m 1
 190 252 l 2
 230 252 271 265 300 345 c 0
 317 392 341 460 403 460 c 0
 429 460 460 450 464 420 c 0
 466 404 463 391 457 380 c 0
 450 363 435 352 418 352 c 0
 370 352 372 430 332 325 c 0
 315 280 298 252 264 238 c 1
 367 227 392 153 442 45 c 1
 463 30 483 15 504 0 c 1
 357 0 l 1
 319 90 279 216 209 220 c 1
 181 220 l 1
 181 45 l 1
 206 30 231 15 255 0 c 1
 11 0 l 1
 36 15 61 30 85 45 c 1
 85 588 l 1
 61 595 36 603 11 610 c 1
 68 628 124 647 181 665 c 1
 181 252 l 1
EndSplineSet
EndChar

StartChar: p
Encoding: 112 112 110
Width: 510
Flags: MW
HStem: -200 21G<2 2 2 245> 398 62
VStem: 75 96<-155 25 71 100 100 337 364 383 383 383> 375 103
LayerCount: 2
Fore
SplineSet
2 -200 m 1
 75 -155 l 1
 75 383 l 1
 2 405 l 1
 171 460 l 1
 171 364 l 1
 201 419 245 460 300 460 c 0
 412 460 478 375 478 235 c 0
 478 96 379 -10 266 -10 c 0
 224 -10 194 4 171 25 c 1
 171 -155 l 1
 245 -200 l 1
 2 -200 l 1
375 245 m 0
 369 340 328 399 269 398 c 0
 231 398 198 377 171 337 c 1
 171 100 l 2
 171 42 225 14 272 21 c 0
 344 32 382 127 375 245 c 0
EndSplineSet
EndChar

StartChar: n
Encoding: 110 110 111
Width: 554
Flags: MW
HStem: 0 21G<20 264 20 20 295 539 295 295> 400 60<305 324>
VStem: 94 96<41 337 41 367 367 383 383 383> 369 96<41 283 283 296 41 324>
LayerCount: 2
Fore
SplineSet
295 0 m 1
 369 41 l 1
 369 283 l 2
 369 365 353 400 295 400 c 0
 258 400 217 374 190 337 c 1
 190 41 l 1
 264 0 l 1
 20 0 l 1
 94 41 l 1
 94 383 l 1
 20 405 l 1
 190 460 l 1
 190 367 l 1
 221 405 272 460 338 460 c 0
 437 460 465 395 465 296 c 2
 465 41 l 1
 539 0 l 1
 295 0 l 1
EndSplineSet
EndChar

StartChar: d
Encoding: 100 100 112
Width: 522
Flags: MW
HStem: -10 62<147 253> 440 20G<180.5 258> 645 20G<428 428>
VStem: 25 103 332 96<67 86 86 86 113 350 350 379 425 588 588 588>
LayerCount: 2
Fore
SplineSet
428 665 m 1
 428 67 l 1
 502 45 l 1
 332 -10 l 1
 332 86 l 1
 302 31 258 -10 203 -10 c 0
 91 -10 25 75 25 215 c 0
 25 354 124 460 237 460 c 0
 279 460 309 446 332 425 c 1
 332 588 l 1
 258 610 l 1
 428 665 l 1
128 205 m 0
 134 110 176 51 234 52 c 0
 272 52 305 73 332 113 c 1
 332 350 l 2
 332 408 278 436 231 429 c 0
 159 418 121 323 128 205 c 0
EndSplineSet
EndChar

StartChar: u
Encoding: 117 117 113
Width: 545
Flags: MW
HStem: -10 60<214.5 236.5> 440 20G<173 173 448 448>
VStem: 77 96<154 167 167 393 393 393> 352 96<67 83 83 83 113 393 393 393>
LayerCount: 2
Fore
SplineSet
3 416 m 1
 173 460 l 1
 173 167 l 2
 173 85 186 50 243 50 c 0
 281 50 325 76 352 113 c 1
 352 393 l 1
 278 416 l 1
 448 460 l 1
 448 67 l 1
 522 45 l 1
 352 -10 l 1
 352 83 l 1
 321 45 269 -10 204 -10 c 0
 105 -10 77 55 77 154 c 2
 77 393 l 1
 3 416 l 1
EndSplineSet
EndChar

StartChar: h
Encoding: 104 104 114
Width: 547
Flags: MW
HStem: 0 21G<13 257 13 13 288 532 288 288> 400 60<298 317> 645 20G<183 183>
VStem: 87 96<41 337 41 367 367 588 588 588> 362 96<41 283 283 296 41 324>
LayerCount: 2
Fore
SplineSet
288 0 m 1
 362 41 l 1
 362 283 l 2
 362 365 346 400 288 400 c 0
 251 400 210 374 183 337 c 1
 183 41 l 1
 257 0 l 1
 13 0 l 1
 87 41 l 1
 87 588 l 1
 13 610 l 1
 183 665 l 1
 183 367 l 1
 214 405 265 460 331 460 c 0
 430 460 458 395 458 296 c 2
 458 41 l 1
 532 0 l 1
 288 0 l 1
EndSplineSet
EndChar

StartChar: b
Encoding: 98 98 115
Width: 509
Flags: MW
HStem: -10 21G<75 75 239 323> 398 62<250 356> 645 20G<171 171>
VStem: 75 96<65 90 90 337 364 588 588 588> 375 103
LayerCount: 2
Fore
SplineSet
151 34 m 1
 75 -10 l 1
 75 588 l 1
 2 610 l 1
 171 665 l 1
 171 364 l 1
 201 419 245 460 300 460 c 0
 412 460 478 375 478 235 c 0
 478 96 386 -10 260 -10 c 0
 218 -10 177 6 151 34 c 1
375 245 m 0
 369 340 328 399 269 398 c 0
 231 398 198 377 171 337 c 1
 171 90 l 2
 171 40 225 14 272 21 c 0
 351 32 382 127 375 245 c 0
EndSplineSet
EndChar

StartChar: f
Encoding: 102 102 116
Width: 344
Flags: MW
HStem: 0 21G<30 294 30 30> 423 27<30 104 30 104 200 294> 528 137<223 349.5>
VStem: 104 96<45 423 45 423 45 423 450 460 45 529.5>
LayerCount: 2
Fore
SplineSet
30 423 m 1
 30 450 l 1
 104 450 l 1
 104 460 l 2
 104 599 177 665 269 665 c 0
 346 665 381 623 381 578 c 0
 381 550 363 528 336 528 c 0
 299 528 289 555 286 580 c 0
 280 622 272 640 242 633 c 0
 201 623 200 554 200 460 c 2
 200 450 l 1
 294 450 l 1
 294 423 l 1
 200 423 l 1
 200 45 l 1
 294 0 l 1
 30 0 l 1
 104 44 l 1
 104 423 l 1
 30 423 l 1
EndSplineSet
EndChar

StartChar: g
Encoding: 103 103 117
Width: 514
Flags: MW
HStem: -220 56<224 295.5> -9 81<190 312 141 331> 147 24 398 32<394 487 394 394> 437 23
VStem: 59 73<38.5 117.5> 59 95 324 104<251.5 317.5 251.5 319.5> 444 29<-94.5 -35>
LayerCount: 2
Fore
SplineSet
155 162 m 1xfd80
 82 196 54 244 54 301 c 0
 54 398 138 460 242 460 c 0
 288 460 329 451 362 430 c 1
 487 430 l 1
 487 398 l 1
 394 398 l 1
 415 375 428 336 428 299 c 0
 428 204 345 147 242 147 c 0
 219 147 190 151 167 157 c 1
 142 145 132 127 132 108 c 0
 132 76 162 73 190 72 c 2
 331 72 l 2
 435 72 473 24 473 -44 c 0
 473 -154 368 -220 223 -220 c 0
 118 -220 33 -193 24 -125 c 0
 17 -65 70 -24 129 -8 c 1
 94 -7 59 17 59 60 c 0
 59 120 115 148 155 162 c 1xfd80
233 437 m 0
 185 436 154 391 154 321 c 0
 154 251 177 170 247 171 c 0
 296 172 324 214 324 284 c 0
 324 355 303 438 233 437 c 0
312 -9 m 2
 141 -9 l 1
 108 -33 102 -65 106 -89 c 0
 116 -148 189 -164 259 -164 c 0
 362 -164 444 -126 444 -63 c 0
 444 -7 371 -9 312 -9 c 2
EndSplineSet
EndChar

StartChar: j
Encoding: 106 106 118
Width: 271
Flags: MW
HStem: -210 29<36 72.5 36 83> 540 120<120.5 154>
VStem: 20 76<-147.5 13> 77 120<582.5 616>
LayerCount: 2
Fore
SplineSet
22 405 m 1xe0
 96 383 l 1
 96 13 l 2
 96 -111 98 -181 47 -181 c 0
 25 -181 20 -160 20 -135 c 0
 20 -104 10 -75 -26 -75 c 0
 -61 -75 -80 -101 -77 -136 c 0
 -72 -189 -24 -210 34 -210 c 0
 132 -210 192 -120 192 13 c 2
 192 460 l 1
 22 405 l 1xe0
77 599 m 0xd0
 77 633 104 660 137 660 c 0
 171 660 197 633 197 599 c 0
 197 566 171 540 137 540 c 0
 104 540 77 566 77 599 c 0xd0
EndSplineSet
EndChar

StartChar: m
Encoding: 109 109 119
Width: 816
Flags: MW
HStem: 0 21G<6 250 6 6 281 525 281 281 554 554 554 798> 400 60<290.5 311 557.5 579>
VStem: 80 96<41 337 41 367 367 383 383 383> 355 96<41 283 283 296 41 324> 628 96<41 283 283 296 41 324>
LayerCount: 2
Fore
SplineSet
281 0 m 1
 355 41 l 1
 355 283 l 2
 355 365 339 400 283 400 c 0
 242 400 206 374 176 337 c 1
 176 41 l 1
 250 0 l 1
 6 0 l 1
 80 41 l 1
 80 383 l 1
 6 405 l 1
 176 460 l 1
 176 367 l 1
 204 402 257 460 324 460 c 0
 399 460 433 423 445 362 c 1
 472 397 523 460 592 460 c 0
 691 460 724 395 724 296 c 2
 724 41 l 1
 798 0 l 1
 554 0 l 1
 628 41 l 1
 628 283 l 2
 628 365 607 400 551 400 c 0
 510 400 479 374 449 337 c 1
 450 324 451 310 451 296 c 2
 451 41 l 1
 525 0 l 1
 281 0 l 1
EndSplineSet
EndChar

StartChar: q
Encoding: 113 113 120
Width: 513
Flags: MW
HStem: -200 21G<265 509 265 265> -9 61<212 237.5> 441 20G<187 271 435 435>
VStem: 32 103 339 96<-155 84 84 84 111 360 360 384.5>
LayerCount: 2
Fore
SplineSet
360 417 m 1
 435 461 l 1
 435 -155 l 1
 509 -200 l 1
 265 -200 l 1
 339 -155 l 1
 339 84 l 1
 309 29 265 -9 210 -9 c 0
 98 -9 32 76 32 216 c 0
 32 355 124 461 250 461 c 0
 292 461 334 444 360 417 c 1
135 206 m 0
 141 111 183 52 241 52 c 0
 279 53 312 70 339 111 c 1
 339 360 l 2
 339 409 288 437 238 430 c 0
 159 418 128 324 135 206 c 0
EndSplineSet
EndChar

StartChar: r
Encoding: 114 114 121
Width: 433
Flags: MW
HStem: 0 21G<20 264 20 20> 346 114<324.5 337.5>
VStem: 94 96<44 349 380 383 383 383>
LayerCount: 2
Fore
SplineSet
190 44 m 1
 264 0 l 1
 20 0 l 1
 94 44 l 1
 94 383 l 1
 20 405 l 1
 190 460 l 1
 190 380 l 1
 218 410 l 2
 243 437 269 460 311 460 c 0
 364 460 387 435 388 402 c 0
 389 371 371 346 339 346 c 0
 310 346 298 364 293 384 c 0
 288 403 278 413 263 413 c 0
 253 413 242 406 231 395 c 2
 190 349 l 1
 190 44 l 1
EndSplineSet
EndChar

StartChar: s
Encoding: 115 115 122
Width: 395
Flags: MW
HStem: -10 32<187.5 230.5 177 249.5> 428 32<161.5 207.5 143.5 213.5>
VStem: 40 63<338.5 366> 289 73<81.5 120>
LayerCount: 2
Fore
SplineSet
285 436 m 1
 337 460 l 1
 333 288 l 1
 295 394 242 428 185 428 c 0
 138 428 103 403 103 361 c 0
 103 316 128 309 178 289 c 2
 262 255 l 2
 339 225 362 181 362 125 c 0
 362 38 291 -10 208 -10 c 0
 167 -10 127 2 104 21 c 1
 42 -10 l 1
 42 164 l 1
 85 62 145 22 209 22 c 0
 252 22 289 44 289 88 c 0
 289 152 218 166 157 189 c 0
 80 217 40 250 40 325 c 0
 40 407 100 460 187 460 c 0
 228 460 269 447 285 436 c 1
EndSplineSet
EndChar

StartChar: t
Encoding: 116 116 123
Width: 318
Flags: MW
HStem: -10 21G<148.5 197> 423 27<187 281 187 281> 558 20G<187 187>
VStem: 92 95<87 102 102 423>
LayerCount: 2
Fore
SplineSet
20 423 m 1
 187 578 l 1
 187 450 l 1
 281 450 l 1
 281 423 l 1
 187 423 l 1
 187 102 l 2
 187 22 257 50 298 95 c 1
 264 25 220 -10 174 -10 c 0
 123 -10 92 21 92 87 c 2
 92 423 l 1
 20 423 l 1
EndSplineSet
EndChar

StartChar: w
Encoding: 119 119 124
Width: 749
Flags: MW
HStem: -15 21G<219 219 506 506> 430 20G<-27 212 212 212 249 492 492 492 548 749 749 749>
LayerCount: 2
Fore
SplineSet
749 450 m 1
 671 402 l 1
 506 -15 l 1
 370 296 l 1
 219 -15 l 1
 45 407 l 1
 -27 450 l 1
 212 450 l 1
 145 408 l 1
 250 140 l 1
 349 346 l 1
 322 406 l 1
 249 450 l 1
 492 450 l 1
 425 409 l 1
 531 148 l 1
 627 399 l 1
 548 450 l 1
 749 450 l 1
EndSplineSet
EndChar

StartChar: z
Encoding: 122 122 125
Width: 465
Flags: MW
HStem: 0 27<162 331 162 418> 423 27<143 297 143 143>
LayerCount: 2
Fore
SplineSet
331 27 m 1
 418 143 l 1
 418 0 l 1
 37 0 l 1
 297 423 l 1
 143 423 l 1
 57 307 l 1
 57 450 l 1
 422 450 l 1
 162 27 l 1
 331 27 l 1
EndSplineSet
EndChar

StartChar: exclam
Encoding: 33 33 126
Width: 262
Flags: MW
HStem: -7 120<114.5 148> 645 20G<111 151.5>
VStem: 70 122<529 602>
LayerCount: 2
Fore
SplineSet
131 665 m 0
 172 665 192 632 192 572 c 0
 192 486 142 218 131 158 c 1
 121 218 70 486 70 572 c 0
 70 632 91 665 131 665 c 0
71 53 m 0
 71 87 98 113 131 113 c 0
 165 113 191 87 191 53 c 0
 191 20 165 -7 131 -7 c 0
 98 -7 71 20 71 53 c 0
EndSplineSet
EndChar

StartChar: parenleft
Encoding: 40 40 127
Width: 342
Flags: MW
HStem: -214 21G 674 20G
VStem: 40 109<145.5 333 145.5 338.5>
LayerCount: 2
Fore
SplineSet
149 240 m 0
 149 51 197 -127 322 -214 c 1
 150 -145 40 43 40 240 c 0
 40 437 150 625 322 694 c 1
 187 604 149 426 149 240 c 0
EndSplineSet
EndChar

StartChar: parenright
Encoding: 41 41 128
Width: 342
Flags: MW
HStem: -214 21G 674 20G
VStem: 200 109<145.5 333>
LayerCount: 2
Fore
SplineSet
200 240 m 0
 200 426 162 604 27 694 c 1
 199 625 309 437 309 240 c 0
 309 43 199 -145 27 -214 c 1
 152 -127 200 51 200 240 c 0
EndSplineSet
EndChar

StartChar: plus
Encoding: 43 43 129
Width: 490
Flags: MW
HStem: 156 21G<229 261 229 229> 320 32<66 229 66 229 261 425> 495 20G<229 261 261 261>
VStem: 229 32<156 320 156 320 352 515>
LayerCount: 2
Fore
SplineSet
66 320 m 1
 66 352 l 1
 229 352 l 1
 229 515 l 1
 261 515 l 1
 261 352 l 1
 425 352 l 1
 425 320 l 1
 261 320 l 1
 261 156 l 1
 229 156 l 1
 229 320 l 1
 66 320 l 1
EndSplineSet
EndChar

StartChar: underscore
Encoding: 95 95 130
Width: 490
Flags: MW
HStem: -100 32<15 474 15 474>
LayerCount: 2
Fore
SplineSet
15 -100 m 1
 15 -68 l 1
 474 -68 l 1
 474 -100 l 1
 15 -100 l 1
EndSplineSet
EndChar

StartChar: equal
Encoding: 61 61 131
Width: 490
Flags: MW
HStem: 268 32<65 425 65 425> 378 32<65 425 65 425>
LayerCount: 2
Fore
SplineSet
65 268 m 1
 65 300 l 1
 425 300 l 1
 425 268 l 1
 65 268 l 1
65 378 m 1
 65 410 l 1
 425 410 l 1
 425 378 l 1
 65 378 l 1
EndSplineSet
EndChar

StartChar: quoteright
Encoding: 8217 8217 132
Width: 241
Flags: MW
HStem: 393 21G 545 120<93.5 116>
VStem: 50 141<587.5 601.5 530.5 621>
LayerCount: 2
Fore
SplineSet
50 604 m 0
 50 638 74 665 113 665 c 0
 155 665 191 639 191 564 c 0
 191 497 143 426 63 393 c 1
 129 430 153 504 146 555 c 1
 135 548 124 545 108 545 c 0
 74 545 50 571 50 604 c 0
EndSplineSet
EndChar

StartChar: quoteleft
Encoding: 8216 8216 133
Width: 241
Flags: MW
HStem: 398 120<125 147.5> 650 20G
VStem: 50 141<461.5 476.5 443 532.5>
LayerCount: 2
Fore
SplineSet
191 460 m 0
 191 426 167 398 128 398 c 0
 86 398 50 424 50 499 c 0
 50 566 98 637 178 670 c 1
 112 633 88 559 95 508 c 1
 106 515 117 518 133 518 c 0
 167 518 191 493 191 460 c 0
EndSplineSet
EndChar

StartChar: quotedblright
Encoding: 8221 8221 134
Width: 417
Flags: MW
HStem: 393 21G 545 120<93.5 116 269.5 292>
VStem: 50 141<587.5 601.5 530.5 621> 226 141<587.5 601.5 530.5 621>
LayerCount: 2
Fore
SplineSet
50 604 m 0
 50 638 74 665 113 665 c 0
 155 665 191 639 191 564 c 0
 191 497 143 426 63 393 c 1
 129 430 153 504 146 555 c 1
 135 548 124 545 108 545 c 0
 74 545 50 571 50 604 c 0
226 604 m 0
 226 638 250 665 289 665 c 0
 331 665 367 639 367 564 c 0
 367 497 319 426 239 393 c 1
 305 430 329 504 322 555 c 1
 311 548 300 545 284 545 c 0
 250 545 226 571 226 604 c 0
EndSplineSet
EndChar

StartChar: quotedblleft
Encoding: 8220 8220 135
Width: 417
Flags: MW
HStem: 398 120<125 147.5 301 323.5> 650 20G
VStem: 50 141<461.5 476.5 443 532.5> 226 141<461.5 476.5 443 532.5>
LayerCount: 2
Fore
SplineSet
367 460 m 0
 367 426 343 398 304 398 c 0
 262 398 226 424 226 499 c 0
 226 566 274 637 354 670 c 1
 288 633 264 559 271 508 c 1
 282 515 293 518 309 518 c 0
 343 518 367 493 367 460 c 0
191 460 m 0
 191 426 167 398 128 398 c 0
 86 398 50 424 50 499 c 0
 50 566 98 637 178 670 c 1
 112 633 88 559 95 508 c 1
 106 515 117 518 133 518 c 0
 167 518 191 493 191 460 c 0
EndSplineSet
EndChar

StartChar: quotedblbase
Encoding: 8222 8222 136
Width: 417
Flags: MW
HStem: -158 21G -7 120<93.5 116 269.5 292>
VStem: 50 141<35.5 50.5 -20.5 69> 226 141<35.5 50.5 -20.5 69>
LayerCount: 2
Fore
SplineSet
50 52 m 0
 50 86 74 113 113 113 c 0
 155 113 191 88 191 13 c 0
 191 -54 143 -125 63 -158 c 1
 129 -121 153 -47 146 4 c 1
 135 -3 124 -7 108 -7 c 0
 74 -7 50 19 50 52 c 0
226 52 m 0
 226 86 250 113 289 113 c 0
 331 113 367 88 367 13 c 0
 367 -54 319 -125 239 -158 c 1
 305 -121 329 -47 322 4 c 1
 311 -3 300 -7 284 -7 c 0
 250 -7 226 19 226 52 c 0
EndSplineSet
EndChar

StartChar: quotesinglbase
Encoding: 8218 8218 137
Width: 241
Flags: MW
HStem: -158 21G -7 120<93.5 116>
VStem: 50 141<35.5 50.5 -20.5 69>
LayerCount: 2
Fore
SplineSet
50 52 m 0
 50 86 74 113 113 113 c 0
 155 113 191 88 191 13 c 0
 191 -54 143 -125 63 -158 c 1
 129 -121 153 -47 146 4 c 1
 135 -3 124 -7 108 -7 c 0
 74 -7 50 19 50 52 c 0
EndSplineSet
EndChar

StartChar: ellipsis
Encoding: 8230 8230 138
Width: 572
Flags: MW
HStem: -7 120<90 123 269 302 448 481>
VStem: 47 120<36.5 70> 226 120<36.5 70> 405 120<36.5 70>
CounterMasks: 1 70
LayerCount: 2
Fore
SplineSet
47 53 m 0
 47 87 73 113 107 113 c 0
 141 113 167 87 167 53 c 0
 167 20 140 -7 106 -7 c 0
 73 -7 47 20 47 53 c 0
226 53 m 0
 226 87 252 113 286 113 c 0
 320 113 346 87 346 53 c 0
 346 20 319 -7 285 -7 c 0
 252 -7 226 20 226 53 c 0
405 53 m 0
 405 87 431 113 465 113 c 0
 499 113 525 87 525 53 c 0
 525 20 498 -7 464 -7 c 0
 431 -7 405 20 405 53 c 0
EndSplineSet
EndChar

StartChar: guillemotleft
Encoding: 171 171 139
Width: 424
Flags: MW
HStem: 56 21G<250 250 394 394> 396 20G<250 250 394 394>
LayerCount: 2
Fore
SplineSet
137 236 m 1
 250 56 l 1
 30 236 l 1
 250 416 l 1
 137 236 l 1
301 236 m 1
 394 56 l 1
 193 236 l 1
 394 416 l 1
 301 236 l 1
EndSplineSet
EndChar

StartChar: guillemotright
Encoding: 187 187 140
Width: 424
Flags: MW
HStem: 56 21G<30 30 174 174> 396 20G<30 30 174 174>
LayerCount: 2
Fore
SplineSet
174 56 m 1
 287 236 l 1
 174 416 l 1
 394 236 l 1
 174 56 l 1
30 56 m 1
 123 236 l 1
 30 416 l 1
 231 236 l 1
 30 56 l 1
EndSplineSet
EndChar

StartChar: plusminus
Encoding: 177 177 141
Width: 490
Flags: MW
HStem: 150 32<65 424 65 424> 360 32<65 228 65 228 260 424> 535 20G<228 260 260 260>
VStem: 228 32<216 360 216 360 392 555>
LayerCount: 2
Fore
SplineSet
65 360 m 1
 65 392 l 1
 228 392 l 1
 228 555 l 1
 260 555 l 1
 260 392 l 1
 424 392 l 1
 424 360 l 1
 260 360 l 1
 260 216 l 1
 228 216 l 1
 228 360 l 1
 65 360 l 1
65 150 m 1
 65 182 l 1
 424 182 l 1
 424 150 l 1
 65 150 l 1
EndSplineSet
EndChar

StartChar: slash
Encoding: 47 47 142
Width: 279
Flags: MW
HStem: -10 21G<0 40 0 0> 645 20G<240 279 279 279>
LayerCount: 2
Fore
SplineSet
240 665 m 1
 279 665 l 1
 40 -10 l 1
 0 -10 l 1
 240 665 l 1
EndSplineSet
EndChar

StartChar: backslash
Encoding: 92 92 143
Width: 279
Flags: MW
HStem: -10 21G<240 279 240 240> 645 20G<0 40 40 40>
LayerCount: 2
Fore
SplineSet
279 -10 m 1
 240 -10 l 1
 0 665 l 1
 40 665 l 1
 279 -10 l 1
EndSplineSet
EndChar

StartChar: bar
Encoding: 124 124 144
Width: 200
Flags: MW
HStem: -200 21G<80 120 80 80> 730 20G<80 120 120 120>
VStem: 80 40<-200 750 -200 750>
LayerCount: 2
Fore
SplineSet
80 750 m 1
 120 750 l 1
 120 -200 l 1
 80 -200 l 1
 80 750 l 1
EndSplineSet
EndChar

StartChar: brokenbar
Encoding: 166 166 145
Width: 200
Flags: MW
HStem: -210 21G<79 119 79 79> 645 20G<79 119 119 119>
VStem: 79 40<-210 195 -210 195 260 665>
LayerCount: 2
Fore
SplineSet
79 195 m 1
 119 195 l 1
 119 -210 l 1
 79 -210 l 1
 79 195 l 1
79 665 m 1
 119 665 l 1
 119 260 l 1
 79 260 l 1
 79 665 l 1
EndSplineSet
EndChar

StartChar: asciitilde
Encoding: 126 126 146
Width: 490
Flags: MW
HStem: 274 69 360 69<112 129>
LayerCount: 2
Fore
SplineSet
20 285 m 1
 26 382 80 429 144 429 c 0
 182 429 224 415 262 390 c 0
 305 362 334 342 380 343 c 0
 418 344 458 366 470 420 c 1
 467 324 406 274 336 274 c 0
 299 274 259 287 225 308 c 0
 184 334 154 360 104 360 c 0
 66 360 38 340 20 285 c 1
EndSplineSet
EndChar

StartChar: less
Encoding: 60 60 147
Width: 490
Flags: MW
HStem: 97 21G<412 412> 558 20G<412 412>
LayerCount: 2
Fore
SplineSet
70 337 m 1
 412 578 l 1
 412 536 l 1
 135 337 l 1
 412 141 l 1
 412 97 l 1
 70 337 l 1
EndSplineSet
EndChar

StartChar: greater
Encoding: 62 62 148
Width: 490
Flags: MW
HStem: 97 21G<78 78> 558 20G<78 78>
LayerCount: 2
Fore
SplineSet
420 338 m 1
 78 97 l 1
 78 139 l 1
 355 338 l 1
 78 534 l 1
 78 578 l 1
 420 338 l 1
EndSplineSet
EndChar

StartChar: guilsinglleft
Encoding: 8249 8249 149
Width: 258
Flags: MW
HStem: 56 21G<228 228> 396 20G<228 228>
LayerCount: 2
Fore
SplineSet
135 236 m 1
 228 56 l 1
 30 236 l 1
 228 416 l 1
 135 236 l 1
EndSplineSet
EndChar

StartChar: guilsinglright
Encoding: 8250 8250 150
Width: 258
Flags: MW
HStem: 56 21G<30 30> 396 20G<30 30>
LayerCount: 2
Fore
SplineSet
30 56 m 1
 123 236 l 1
 30 416 l 1
 228 236 l 1
 30 56 l 1
EndSplineSet
EndChar

StartChar: quotesingle
Encoding: 39 39 151
Width: 203
Flags: MW
HStem: 372 21G 645 20G<84.5 118>
VStem: 50 103<573 620>
LayerCount: 2
Fore
SplineSet
101 665 m 0
 135 665 153 637 153 603 c 0
 153 543 125 482 101 372 c 1
 78 482 50 543 50 603 c 0
 50 637 68 665 101 665 c 0
EndSplineSet
EndChar

StartChar: quotedbl
Encoding: 34 34 152
Width: 346
Flags: MW
HStem: 372 21G 645 20G<82.5 116 228.5 262>
VStem: 50 100<573 620> 196 100<573 620>
LayerCount: 2
Fore
SplineSet
99 665 m 0
 133 665 150 637 150 603 c 0
 150 543 123 482 99 372 c 1
 76 482 50 543 50 603 c 0
 50 637 66 665 99 665 c 0
245 665 m 0
 279 665 296 637 296 603 c 0
 296 543 269 482 245 372 c 1
 222 482 196 543 196 603 c 0
 196 637 212 665 245 665 c 0
EndSplineSet
EndChar

StartChar: paragraph
Encoding: 182 182 153
Width: 522
Flags: MW
HStem: -200 21G<265 300 265 265 391 427 391 391> 623 27<300 391 300 300 427 492 427 427>
VStem: 265 35<-200 281 281 281> 391 36<-200 623 -200 623>
LayerCount: 2
Fore
SplineSet
492 623 m 1
 427 623 l 1
 427 -200 l 1
 391 -200 l 1
 391 623 l 1
 300 623 l 1
 300 -200 l 1
 265 -200 l 1
 265 281 l 1
 136 278 30 331 30 467 c 0
 30 588 118 650 250 650 c 2
 492 650 l 1
 492 623 l 1
EndSplineSet
EndChar

StartChar: bullet
Encoding: 8226 8226 154
Width: 350
Flags: MW
HStem: 208 245<144.5 209.5>
VStem: 55 245<298.5 363.5 296.5 365.5>
LayerCount: 2
Fore
SplineSet
177 453 m 0
 245 453 300 396 300 331 c 0
 300 262 242 208 177 208 c 0
 108 208 55 266 55 331 c 0
 55 400 112 453 177 453 c 0
EndSplineSet
EndChar

StartChar: bracketleft
Encoding: 91 91 155
Width: 240
Flags: MW
HStem: -100 32<70 210 70 210> 718 32<70 210 70 70>
VStem: 30 40<-68 718 -68 750 -68 750> 30 180<-100 -68 718 750>
LayerCount: 2
Fore
SplineSet
30 -100 m 1xd0
 30 750 l 1
 210 750 l 1
 210 718 l 1
 70 718 l 1xd0
 70 -68 l 1
 210 -68 l 1xe0
 210 -100 l 1
 30 -100 l 1xd0
EndSplineSet
EndChar

StartChar: bracketright
Encoding: 93 93 156
Width: 240
Flags: MW
HStem: -100 32<30 170 30 210 30 170> 718 32<30 170 30 210>
VStem: 30 180<-100 -68 -68 -68 718 750 -100 750> 170 40<-68 718 718 718>
LayerCount: 2
Fore
SplineSet
210 750 m 1xe0
 210 -100 l 1
 30 -100 l 1
 30 -68 l 1
 170 -68 l 1xe0
 170 718 l 1
 30 718 l 1xd0
 30 750 l 1
 210 750 l 1xe0
EndSplineSet
EndChar

StartChar: numbersign
Encoding: 35 35 157
Width: 504
Flags: MW
HStem: -10 250<59 99 59 59 269 309 269 269> 208 32<10 103 10 110 149 313 359 474> 418 32<30 146 30 153 192 356 402 494> 418 247<30 236 30 236 197 236 197 356 185 236 407 446 197 494 197 395>
LayerCount: 2
Fore
SplineSet
407 665 m 1x90
 446 665 l 1
 402 450 l 1
 494 450 l 1
 494 418 l 1
 395 418 l 1
 359 240 l 1x60
 474 240 l 1
 474 208 l 1xa0
 353 208 l 1
 309 -10 l 1x60
 269 -10 l 1
 313 208 l 1
 143 208 l 1
 99 -10 l 1
 59 -10 l 1
 103 208 l 1xa0
 10 208 l 1
 10 240 l 1x60
 110 240 l 1
 146 418 l 1xa0
 30 418 l 1
 30 450 l 1x90
 153 450 l 1
 197 665 l 1xa0
 236 665 l 1
 192 450 l 1
 363 450 l 1
 407 665 l 1x90
185 418 m 1x90
 149 240 l 1
 320 240 l 1
 356 418 l 1
 185 418 l 1x90
EndSplineSet
EndChar

StartChar: grave
Encoding: 96 96 158
Width: 246
Flags: MW
HStem: 461 21G<206 206> 630 20G<27 151 151 151>
LayerCount: 2
Fore
SplineSet
206 461 m 1
 27 650 l 1
 151 650 l 1
 206 461 l 1
EndSplineSet
EndChar

StartChar: asciicircum
Encoding: 94 94 159
Width: 441
Flags: MW
HStem: 383 21G<40 84 40 40 359 401 359 359> 645 20G<220 220>
LayerCount: 2
Fore
SplineSet
220 665 m 1
 401 383 l 1
 359 383 l 1
 220 598 l 1
 84 383 l 1
 40 383 l 1
 220 665 l 1
EndSplineSet
EndChar

StartChar: question
Encoding: 63 63 160
Width: 454
Flags: MW
HStem: -7 120<190.5 224> 638 27<181 230>
VStem: 40 69<564.5 569.5> 191 223 308 106<432.5 545.5>
LayerCount: 2
Fore
SplineSet
191 174 m 1xf0
 198 337 308 361 308 504 c 0
 308 587 262 638 198 638 c 0
 144 638 109 609 109 577 c 0
 109 552 143 546 148 509 c 0
 152 474 128 449 98 449 c 0
 70 449 40 470 40 521 c 0
 40 618 140 665 222 665 c 0
 336 665 414 606 414 508 c 0
 414 357 221 314 191 174 c 1xf0
148 53 m 0
 148 87 174 113 207 113 c 0xe8
 241 113 268 87 268 53 c 0
 268 20 241 -7 207 -7 c 0
 174 -7 148 20 148 53 c 0
EndSplineSet
EndChar

StartChar: zero
Encoding: 48 48 161
Width: 502
Flags: MW
HStem: -10 30<198 304 198 326.5> 635 30<198 304>
VStem: 30 114<271 385 271 415.5> 358 114<271 385>
LayerCount: 2
Fore
SplineSet
30 328 m 0
 30 503 100 665 251 665 c 0
 402 665 472 503 472 328 c 0
 472 153 402 -10 251 -10 c 0
 100 -10 30 153 30 328 c 0
358 328 m 0
 358 442 357 635 251 635 c 0
 145 635 144 442 144 328 c 0
 144 214 145 20 251 20 c 0
 357 20 358 214 358 328 c 0
EndSplineSet
EndChar

StartChar: two
Encoding: 50 50 162
Width: 502
Flags: MW
HStem: 0 92<154 390 154 410> 578 87<197 244.5>
VStem: 330 96<457.5 498>
LayerCount: 2
Fore
SplineSet
390 92 m 1
 466 155 l 1
 410 0 l 1
 26 0 l 1
 225 232 l 2
 298 318 330 379 330 457 c 0
 330 539 276 578 213 578 c 0
 157 578 101 550 59 452 c 1
 75 598 147 665 247 665 c 0
 346 665 426 601 426 491 c 0
 426 424 388 364 293 256 c 2
 154 92 l 1
 390 92 l 1
EndSplineSet
EndChar

StartChar: three
Encoding: 51 51 163
Width: 502
Flags: MW
HStem: -10 41<195 259.5> -10 118<87.5 259.5> 588 77<207 248>
VStem: 322 89<502.5 515.5> 354 90<141.5 222.5>
LayerCount: 2
Fore
SplineSet
69 498 m 1xb0
 99 607 160 665 254 665 c 0
 335 665 411 625 411 531 c 0
 411 474 378 428 316 386 c 1
 395 359 444 299 444 209 c 0
 444 74 326 -10 193 -10 c 0xb0
 95 -10 55 23 55 60 c 0
 55 82 70 108 105 108 c 0x68
 167 108 157 31 233 31 c 0
 309 31 354 91 354 169 c 0
 354 276 286 335 193 335 c 2
 166 335 l 1
 254 363 321 414 322 484 c 0xa8
 322 547 283 588 213 588 c 0
 157 588 105 561 69 498 c 1xb0
EndSplineSet
EndChar

StartChar: four
Encoding: 52 52 164
Width: 502
Flags: MW
HStem: 0 234<191 282 380 461 191 191> 175 59<95 282 95 282 380 433> 648 20G<380 380>
VStem: 282 98<51 175 234 488 488 488>
LayerCount: 2
Fore
SplineSet
380 51 m 1xb0
 461 0 l 1
 191 0 l 1
 282 51 l 1
 282 175 l 1
 14 175 l 1x70
 380 668 l 1
 380 234 l 1
 476 234 l 1
 433 175 l 1
 380 175 l 1
 380 51 l 1xb0
95 234 m 1
 282 234 l 1
 282 488 l 1xb0
 95 234 l 1
EndSplineSet
EndChar

StartChar: five
Encoding: 53 53 165
Width: 502
Flags: MW
HStem: -10 49<183 236.5> -10 118<75.5 236.5> 367 102<66 147> 556 94<184 389 184 184>
VStem: 362 63<161 265>
LayerCount: 2
Fore
SplineSet
183 650 m 1xb8
 429 650 l 1
 389 556 l 1
 184 556 l 1
 147 469 l 1
 313 460 425 383 425 238 c 0x78
 425 84 306 -10 167 -10 c 0
 87 -10 40 14 40 59 c 0
 40 90 63 108 88 108 c 0
 149 108 148 39 218 39 c 0
 296 39 362 104 362 184 c 0
 362 346 191 372 66 367 c 1
 183 650 l 1xb8
EndSplineSet
EndChar

StartChar: six
Encoding: 54 54 166
Width: 502
Flags: MW
HStem: -10 30<221.5 290 221.5 315> 375 43<251 287>
VStem: 44 108 357 101<163 231.5>
LayerCount: 2
Fore
SplineSet
283 418 m 0
 394 418 458 325 458 223 c 0
 458 103 380 -10 250 -10 c 0
 110 -10 44 126 44 263 c 0
 44 495 179 676 419 664 c 1
 246 629 169 502 154 341 c 1
 176 381 219 418 283 418 c 0
264 20 m 0
 316 20 357 71 357 180 c 0
 357 283 329 375 245 375 c 0
 214 375 184 366 153 338 c 1
 151 306 150 272 152 238 c 0
 156 164 179 20 264 20 c 0
EndSplineSet
EndChar

StartChar: seven
Encoding: 55 55 167
Width: 502
Flags: MW
HStem: -10 21G<150 203 150 150> 555 95<108 355 108 108>
LayerCount: 2
Fore
SplineSet
34 474 m 1
 83 650 l 1
 444 650 l 1
 203 -10 l 1
 150 -10 l 1
 355 555 l 1
 108 555 l 1
 34 474 l 1
EndSplineSet
EndChar

StartChar: eight
Encoding: 56 56 168
Width: 502
Flags: MW
HStem: -10 30<220 291 220 298.5> 635 30<214.5 280>
VStem: 57 80<112.5 177.5> 351 76<498 557.5> 372 74<101.5 127>
LayerCount: 2
Fore
SplineSet
183 322 m 1xe8
 142 355 119 380 101 405 c 0
 83 429 65 458 65 501 c 0
 65 608 150 665 247 665 c 0
 334 665 427 617 427 529 c 0
 427 455 366 407 295 368 c 1
 342 331 371 307 392 284 c 0
 421 252 446 212 446 160 c 0
 446 43 350 -10 247 -10 c 0
 148 -10 57 41 57 143 c 0xf0
 57 212 92 263 183 322 c 1xe8
189 454 m 2
 272 387 l 1
 326 435 351 469 351 527 c 0
 351 588 312 635 248 635 c 0
 181 635 139 593 139 544 c 0xe8
 139 508 155 481 189 454 c 2
206 304 m 1
 157 259 137 210 137 153 c 0xf0
 137 72 183 20 257 20 c 0
 325 20 372 56 372 111 c 0
 372 143 354 167 340 184 c 0
 314 216 276 248 206 304 c 1
EndSplineSet
EndChar

StartChar: nine
Encoding: 57 57 169
Width: 502
Flags: MW
HStem: 237 43<215 250.5> 635 30<211.5 281>
VStem: 44 101<423.5 492> 350 108
LayerCount: 2
Fore
SplineSet
219 237 m 0
 108 237 44 330 44 432 c 0
 44 552 122 665 252 665 c 0
 392 665 458 529 458 392 c 0
 458 160 323 -21 83 -9 c 1
 256 26 332 152 348 313 c 1
 326 273 282 237 219 237 c 0
238 635 m 0
 185 635 145 584 145 475 c 0
 145 372 173 280 257 280 c 0
 287 280 318 288 348 317 c 1
 351 349 351 383 350 417 c 0
 346 491 324 635 238 635 c 0
EndSplineSet
EndChar

StartChar: W
Encoding: 87 87 170
Width: 981
Flags: MW
HStem: -15 21G<326 326 675 675> 630 20G<0 270 270 270 347 617 617 617 781 988 988 988>
LayerCount: 2
Fore
SplineSet
988 650 m 1
 897 588 l 1
 675 -15 l 1
 500 436 l 1
 326 -15 l 1
 89 594 l 1
 0 650 l 1
 270 650 l 1
 203 604 l 1
 361 180 l 1
 480 487 l 1
 437 594 l 1
 347 650 l 1
 617 650 l 1
 551 604 l 1
 708 180 l 1
 861 594 l 1
 781 650 l 1
 988 650 l 1
EndSplineSet
EndChar

StartChar: afii10102
Encoding: 1109 1109 171
Width: 363
Flags: MW
HStem: -10 32<161.5 204.5 151 220> 428 32<141.5 187.5 127 193.5>
VStem: 23 63<344.5 366> 255 78<81.5 113.5>
LayerCount: 2
Fore
SplineSet
256 436 m 1
 308 460 l 1
 304 288 l 1
 263 394 222 428 165 428 c 0
 118 428 86 403 86 367 c 0
 86 322 113 309 161 289 c 2
 232 259 l 2
 308 227 333 181 333 125 c 0
 333 38 258 -10 182 -10 c 0
 141 -10 110 2 87 21 c 1
 25 -10 l 1
 25 164 l 1
 71 62 119 22 183 22 c 0
 226 22 255 45 255 80 c 0
 255 147 202 165 140 189 c 0
 63 218 23 250 23 325 c 0
 23 407 87 460 167 460 c 0
 208 460 239 447 256 436 c 1
EndSplineSet
EndChar

StartChar: afii10054
Encoding: 1029 1029 172
Width: 543
Flags: MW
HStem: -10 32<271.5 347 245 378.5> 633 32<223.5 287.5 207 306>
VStem: 60 62<504.5 542.5> 442 71<128 165.5>
LayerCount: 2
Fore
SplineSet
465 665 m 1
 465 430 l 1
 417 560 355 633 257 633 c 0
 190 633 122 598 122 530 c 0
 122 479 162 454 219 430 c 2
 381 362 l 2
 448 334 513 287 513 173 c 0
 513 83 450 -10 307 -10 c 0
 236 -10 171 20 141 53 c 1
 62 -10 l 1
 62 249 l 1
 113 116 183 22 307 22 c 0
 387 22 442 64 442 132 c 0
 442 199 383 227 341 245 c 2
 184 313 l 2
 112 343 60 393 60 477 c 0
 60 608 157 665 257 665 c 0
 318 665 364 644 393 621 c 1
 465 665 l 1
EndSplineSet
EndChar

StartChar: afii10105
Encoding: 1112 1112 173
Width: 271
Flags: MW
HStem: -210 29<39 75.5 39 86> 540 120<123 156>
VStem: 23 76<-147.5 13> 80 120<582.5 616>
LayerCount: 2
Fore
SplineSet
25 405 m 1xe0
 99 383 l 1
 99 13 l 2
 99 -111 101 -181 50 -181 c 0
 28 -181 23 -160 23 -135 c 0
 23 -104 13 -75 -24 -75 c 0
 -59 -75 -77 -101 -74 -136 c 0
 -69 -189 -21 -210 37 -210 c 0
 135 -210 195 -120 195 13 c 2
 195 460 l 1
 25 405 l 1xe0
80 599 m 0xd0
 80 633 106 660 140 660 c 0
 174 660 200 633 200 599 c 0
 200 566 173 540 139 540 c 0
 106 540 80 566 80 599 c 0xd0
EndSplineSet
EndChar

StartChar: afii10057
Encoding: 1032 1032 174
Width: 466
Flags: MW
HStem: -10 32<168 212.5 168 231> -10 176<60.5 231> 630 20G<162 442 442 442>
VStem: 246 112<250 599>
LayerCount: 2
Fore
SplineSet
442 650 m 1xb0
 358 599 l 1
 358 230 l 2
 358 75 290 -10 172 -10 c 0
 62 -10 23 39 20 93 c 0
 18 138 44 166 77 166 c 0x70
 126 166 140 130 135 97 c 0
 125 31 157 22 179 22 c 0
 246 22 246 123 246 250 c 2
 246 599 l 1
 162 650 l 1
 442 650 l 1xb0
EndSplineSet
EndChar

StartChar: afii10071
Encoding: 1105 1105 175
Width: 436
Flags: MW
HStem: -10 21G<162 280.5> 261 25 261 199 540 120<113.5 147 309.5 343>
VStem: 22 93<245 252 245 279 245 290> 70 120<582.5 616> 266 120<582.5 616> 316 97
LayerCount: 2
Fore
SplineSet
414 271 m 1xda
 115 252 l 1
 115 238 116 224 119 209 c 0
 141 95 222 60 287 70 c 0
 336 77 385 112 413 182 c 1
 408 67 333 -10 228 -10 c 0
 96 -10 22 95 22 225 c 0
 22 355 109 460 231 460 c 0xb9
 360 460 414 389 414 271 c 1xda
316 293 m 1
 316 398 272 437 213 430 c 0
 157 422 118 362 115 279 c 1
 316 293 l 1
70 599 m 0xd6
 70 633 97 660 130 660 c 0
 164 660 190 633 190 599 c 0
 190 566 164 540 130 540 c 0
 97 540 70 566 70 599 c 0xd6
266 599 m 0
 266 633 293 660 326 660 c 0
 360 660 386 633 386 599 c 0
 386 566 360 540 326 540 c 0
 293 540 266 566 266 599 c 0
EndSplineSet
EndChar

StartChar: afii10023
Encoding: 1025 1025 176
Width: 584
Flags: MW
HStem: 0 35<223 450 223 560> 320 35<223 337 223 338 223 337> 615 35<223 441 223 223> 738 120<185.5 219 395.5 429>
VStem: 111 112<51 320 355 599 599 599> 142 120<781.5 815> 352 120<781.5 815>
LayerCount: 2
Fore
SplineSet
27 0 m 1xfa
 111 51 l 1
 111 599 l 1
 27 650 l 1
 545 650 l 1
 545 430 l 1
 441 615 l 1
 223 615 l 1
 223 355 l 1
 337 355 l 1
 412 458 l 1
 412 218 l 1
 338 320 l 1
 223 320 l 1
 223 35 l 1
 450 35 l 1
 560 220 l 1
 560 0 l 1
 27 0 l 1xfa
142 798 m 0xf6
 142 832 169 858 202 858 c 0
 236 858 262 832 262 798 c 0
 262 765 236 738 202 738 c 0
 169 738 142 765 142 798 c 0xf6
352 798 m 0
 352 832 379 858 412 858 c 0
 446 858 472 832 472 798 c 0
 472 765 446 738 412 738 c 0
 379 738 352 765 352 798 c 0
EndSplineSet
EndChar

StartChar: afii10055
Encoding: 1030 1030 177
Width: 334
Flags: MW
HStem: 0 21G<27 307 27 27> 630 20G<27 307 307 307>
VStem: 111 112<51 599 51 599>
LayerCount: 2
Fore
SplineSet
307 650 m 1
 223 599 l 1
 223 51 l 1
 307 0 l 1
 27 0 l 1
 111 51 l 1
 111 599 l 1
 27 650 l 1
 307 650 l 1
EndSplineSet
EndChar

StartChar: afii10103
Encoding: 1110 1110 178
Width: 275
Flags: MW
HStem: 0 21G<15 259 259 259> 540 120<113.5 147>
VStem: 70 120<582.5 616>
LayerCount: 2
Fore
SplineSet
15 405 m 1
 89 383 l 1
 89 44 l 1
 15 0 l 1
 259 0 l 1
 185 44 l 1
 185 460 l 1
 15 405 l 1
70 599 m 0
 70 633 97 660 130 660 c 0
 164 660 190 633 190 599 c 0
 190 566 164 540 130 540 c 0
 97 540 70 566 70 599 c 0
EndSplineSet
EndChar

StartChar: afii10056
Encoding: 1031 1031 179
Width: 334
Flags: MW
HStem: 0 21G<27 307 27 27> 733 123<59 92.5 240 274.5>
VStem: 14 123<777 811.5> 111 112<51 599 51 599> 196 123<777 811.5>
LayerCount: 2
Fore
SplineSet
307 650 m 1xd0
 223 599 l 1
 223 51 l 1
 307 0 l 1
 27 0 l 1
 111 51 l 1
 111 599 l 1
 27 650 l 1
 307 650 l 1xd0
14 794 m 0xe8
 14 829 42 856 76 856 c 0
 110 856 137 829 137 794 c 0
 137 760 110 733 75 733 c 0
 42 733 14 760 14 794 c 0xe8
196 794 m 0
 196 829 223 856 257 856 c 0
 292 856 319 829 319 794 c 0
 319 760 292 733 257 733 c 0
 223 733 196 760 196 794 c 0
EndSplineSet
EndChar

StartChar: afii10104
Encoding: 1111 1111 180
Width: 281
Flags: MW
HStem: 0 21G<15 259 259 259> 540 120<34.5 68 202.5 236>
VStem: -8 120<582.5 616> 159 120<582.5 616>
LayerCount: 2
Fore
SplineSet
15 405 m 1
 89 383 l 1
 89 44 l 1
 15 0 l 1
 259 0 l 1
 185 44 l 1
 185 460 l 1
 15 405 l 1
-8 599 m 0
 -8 633 18 660 51 660 c 0
 85 660 112 633 112 599 c 0
 112 566 85 540 51 540 c 0
 18 540 -8 566 -8 599 c 0
159 599 m 0
 159 633 186 660 219 660 c 0
 253 660 279 633 279 599 c 0
 279 566 253 540 219 540 c 0
 186 540 159 566 159 599 c 0
EndSplineSet
EndChar

StartChar: dollar
Encoding: 36 36 181
Width: 502
Flags: MW
HStem: -100 21G<219 259 219 219> -10 32<259 261 259 268> 633 32<219 219> 730 20G<219 259 259 259>
VStem: 48 61<495 542.5> 219 40<-100 -10 -100 -10 25 262 410 631 665 750> 219 202<25 665 277 665 410 633 633 633 400 750 400 750> 386 71<126.5 173>
LayerCount: 2
Fore
SplineSet
219 750 m 1xfd
 259 750 l 1
 259 664 l 1xfd
 291 657 338 642 355 624 c 1
 421 665 l 1
 421 400 l 1xfa
 384 527 350 621 259 631 c 1
 259 396 l 1
 322 371 l 2
 396 342 457 280 457 173 c 0
 457 80 401 -10 261 -10 c 2
 259 -10 l 1
 259 -100 l 1
 219 -100 l 1
 219 -10 l 1
 186 -3 146 7 120 37 c 1
 50 -10 l 1
 50 255 l 1
 85 134 134 42 219 25 c 1
 219 277 l 1
 155 304 l 2
 79 336 48 396 48 480 c 0
 48 605 140 662 219 665 c 1
 219 750 l 1xfd
282 253 m 2
 259 262 l 1
 259 22 l 1
 268 22 l 2
 328 22 386 58 386 138 c 0
 386 208 325 236 282 253 c 2
109 522 m 0
 109 468 129 444 190 421 c 2
 219 410 l 1
 219 633 l 1
 170 630 109 600 109 522 c 0
EndSplineSet
EndChar

StartChar: uni00AD
Encoding: 173 173 182
Width: 490
Flags: MW
HStem: 320 32<65 425 65 425>
LayerCount: 2
Fore
SplineSet
65 320 m 1
 65 352 l 1
 425 352 l 1
 425 320 l 1
 65 320 l 1
EndSplineSet
EndChar

StartChar: copyright
Encoding: 169 169 183
Width: 560
Flags: MW
HStem: -10 30<223.5 336.5 223.5 345> 274 115<243.5 369.5> 430 30<223.5 336.5>
VStem: 45 30<168.5 281.5 168.5 290> 328 77 485 30<168.5 281.5>
LayerCount: 2
Fore
SplineSet
45 225 m 0
 45 355 150 460 280 460 c 0
 410 460 515 355 515 225 c 0
 515 95 410 -10 280 -10 c 0
 150 -10 45 95 45 225 c 0
75 225 m 0
 75 112 167 20 280 20 c 0
 393 20 485 112 485 225 c 0
 485 338 393 430 280 430 c 0
 167 430 75 338 75 225 c 0
202 214 m 0
 217 136 274 109 319 116 c 0
 352 122 386 148 405 195 c 1
 401 113 349 60 278 60 c 0
 188 60 136 134 136 225 c 0
 136 316 202 389 285 389 c 0
 355 389 396 352 396 311 c 0
 396 286 378 274 361 274 c 0
 338 274 328 293 328 312 c 0
 328 352 309 374 272 368 c 0
 224 360 187 294 202 214 c 0
EndSplineSet
EndChar

StartChar: registered
Encoding: 174 174 184
Width: 560
Flags: MW
HStem: -10 30<254 305.5 254 345> 71 156<243 267 267 282 243 292 145 267 243 415 243 364> 360 100<243 243 243 266> 430 30<253.5 336.5>
VStem: 45 30<195.5 254 195.5 290> 183 60<101 210 101 227 227 347 347 347> 328 67<273 321.5> 485 30<198.5 281.5>
LayerCount: 2
Fore
SplineSet
45 225 m 0xdf
 45 355 150 460 280 460 c 0
 410 460 515 355 515 225 c 0
 515 95 410 -10 280 -10 c 0
 150 -10 45 95 45 225 c 0xdf
284 377 m 2
 345 377 395 358 395 297 c 0
 395 249 360 220 303 215 c 1
 339 211 360 188 374 167 c 2
 417 101 l 1
 433 89 l 1
 465 124 485 172 485 225 c 0
 485 338 393 430 280 430 c 0
 227 430 179 410 142 377 c 1
 284 377 l 2
75 225 m 0
 75 166 100 112 140 75 c 1
 183 101 l 1
 183 347 l 1
 139 373 l 1
 99 336 75 283 75 225 c 0
280 20 m 0
 331 20 379 39 415 71 c 1
 364 71 l 1
 306 172 l 2
 291 198 273 210 248 210 c 2
 243 210 l 1
 243 101 l 1
 292 71 l 1
 145 71 l 1
 181 39 228 20 280 20 c 0
243 360 m 1xef
 243 227 l 1
 267 227 l 2
 297 227 328 249 328 297 c 0
 328 346 296 360 266 360 c 2
 243 360 l 1xef
EndSplineSet
EndChar

StartChar: degree
Encoding: 176 176 185
Width: 305
Flags: MW
HStem: 460 29<132 172 132 180.5> 636 29<132 172>
VStem: 50 29<542 582 542 590.5> 226 29<542 582>
LayerCount: 2
Fore
SplineSet
50 562 m 0
 50 619 95 665 152 665 c 0
 209 665 255 619 255 562 c 0
 255 505 209 460 152 460 c 0
 95 460 50 505 50 562 c 0
79 562 m 0
 79 522 112 489 152 489 c 0
 192 489 226 522 226 562 c 0
 226 602 192 636 152 636 c 0
 112 636 79 602 79 562 c 0
EndSplineSet
EndChar

StartChar: asterisk
Encoding: 42 42 186
Width: 420
Flags: MW
HStem: 489 186<207 207>
VStem: 161 93<609.5 637>
LayerCount: 2
Fore
SplineSet
207 675 m 0
 245 675 254 646 254 628 c 0
 254 591 230 572 207 489 c 1
 185 572 161 591 161 628 c 0
 161 646 170 675 207 675 c 0
33 546 m 0
 45 583 75 582 92 576 c 0
 128 565 138 536 210 489 c 1
 124 494 99 476 64 488 c 0
 46 493 22 511 33 546 c 0
387 546 m 0
 398 510 374 492 356 487 c 0
 321 475 296 493 210 489 c 1
 282 535 293 564 328 575 c 0
 345 581 375 582 387 546 c 0
100 338 m 0
 69 361 79 388 90 404 c 0
 112 433 143 435 210 489 c 1
 179 409 187 379 165 349 c 0
 154 334 130 316 100 338 c 0
320 338 m 0
 289 316 264 334 254 349 c 0
 232 379 240 409 210 489 c 1
 276 435 307 433 329 404 c 0
 339 388 349 361 320 338 c 0
EndSplineSet
EndChar

StartChar: section
Encoding: 167 167 187
Width: 402
Flags: MW
HStem: -10 30<175.5 238.5 175.5 249.5> -10 159<70 249.5> 509 156<143.5 322> 635 30<160.5 222>
VStem: 36 64 36 94 260 99<549 585> 300 59 312 47
LayerCount: 2
Fore
SplineSet
309 509 m 0xa9
 273 509 260 538 260 560 c 0
 260 610 260 635 184 635 c 0
 137 635 93 614 93 572 c 0
 93 527 117 516 166 500 c 2
 263 468 l 2
 338 443 362 396 362 340 c 0
 362 304 342 263 302 242 c 1
 347 217 369 177 369 122 c 0
 369 46 301 -10 198 -10 c 0
 88 -10 33 41 33 99 c 0
 33 130 57 149 83 149 c 0
 119 149 130 120 130 98 c 0
 130 48 136 20 215 20 c 0
 262 20 312 41 312 83 c 0
 312 128 283 147 234 163 c 2x5a
 137 194 l 2
 62 219 38 267 38 323 c 0
 38 358 57 400 98 421 c 1xa480
 53 446 36 477 36 533 c 0
 36 609 97 665 190 665 c 0
 307 665 359 617 359 559 c 0
 359 528 335 509 309 509 c 0xa9
255 263 m 0xaa
 272 256 287 250 300 243 c 1
 300 289 l 2
 300 363 211 375 145 400 c 0
 128 406 113 413 100 420 c 1
 100 374 l 2
 100 300 189 288 255 263 c 0xaa
EndSplineSet
EndChar

StartChar: percent
Encoding: 65537 -1 188
Width: 700
Flags: MW
HStem: -10 25<511 566.5 511 576> 302 25<511 566.5> 328 25<134.5 189.5 134.5 199> 640 25<134.5 189.5>
VStem: 30 77<473.5 520 473.5 551.5> 217 77<473.5 520> 406 77<135.5 182 135.5 213.5> 593 77<135.5 182>
LayerCount: 2
Fore
SplineSet
534 665 m 1
 586 665 l 1
 167 -10 l 1
 114 -10 l 1
 534 665 l 1
30 497 m 0
 30 606 88 665 162 665 c 0
 236 665 294 606 294 497 c 0
 294 388 236 328 162 328 c 0
 88 328 30 388 30 497 c 0
217 497 m 0
 217 543 217 640 162 640 c 0
 107 640 107 543 107 497 c 0
 107 450 107 353 162 353 c 0
 217 353 217 450 217 497 c 0
406 159 m 0
 406 268 465 327 539 327 c 0
 613 327 670 268 670 159 c 0
 670 50 613 -10 539 -10 c 0
 465 -10 406 50 406 159 c 0
593 159 m 0
 593 205 594 302 539 302 c 0
 483 302 483 205 483 159 c 0
 483 112 483 15 539 15 c 0
 594 15 593 112 593 159 c 0
EndSplineSet
EndChar

StartChar: perthousand
Encoding: 8240 8240 189
Width: 1019
Flags: MW
HStem: -10 25<511 566.5 511 576 830 885.5> 302 25<511 566.5 830 885.5> 328 25<134.5 189.5 134.5 199> 640 25<134.5 189.5>
VStem: 30 77<473.5 520 473.5 551.5> 217 77<473.5 520> 406 77<135.5 182 135.5 213.5> 593 77<135.5 182> 725 77<135.5 182 135.5 213.5> 912 77<135.5 182>
LayerCount: 2
Fore
SplineSet
534 665 m 1
 586 665 l 1
 167 -10 l 1
 114 -10 l 1
 534 665 l 1
30 497 m 0
 30 606 88 665 162 665 c 0
 236 665 294 606 294 497 c 0
 294 388 236 328 162 328 c 0
 88 328 30 388 30 497 c 0
217 497 m 0
 217 543 217 640 162 640 c 0
 107 640 107 543 107 497 c 0
 107 450 107 353 162 353 c 0
 217 353 217 450 217 497 c 0
406 159 m 0
 406 268 465 327 539 327 c 0
 613 327 670 268 670 159 c 0
 670 50 613 -10 539 -10 c 0
 465 -10 406 50 406 159 c 0
593 159 m 0
 593 205 594 302 539 302 c 0
 483 302 483 205 483 159 c 0
 483 112 483 15 539 15 c 0
 594 15 593 112 593 159 c 0
725 159 m 0
 725 268 784 327 858 327 c 0
 932 327 989 268 989 159 c 0
 989 50 932 -10 858 -10 c 0
 784 -10 725 50 725 159 c 0
912 159 m 0
 912 205 913 302 858 302 c 0
 802 302 802 205 802 159 c 0
 802 112 802 15 858 15 c 0
 913 15 912 112 912 159 c 0
EndSplineSet
EndChar

StartChar: dagger
Encoding: 8224 8224 190
Width: 403
Flags: MW
HStem: 245 21G<223 252.5> 599 20G
LayerCount: 2
Fore
SplineSet
201 493 m 1
 222 460 245 397 263 350 c 0
 269 331 283 313 283 293 c 0
 283 270 267 245 238 245 c 0
 208 245 200 268 195 279 c 0
 188 307 205 430 201 493 c 1
201 399 m 1
 181 428 170 458 164 478 c 0
 159 501 158 524 161 549 c 0
 165 572 173 607 201 619 c 1
 230 607 238 572 242 549 c 0
 246 524 244 501 239 478 c 0
 233 458 222 428 201 399 c 1
149 493 m 1
 184 515 212 527 229 533 c 0
 241 537 252 539 267 537 c 0
 282 533 311 524 320 493 c 1
 311 462 282 453 267 450 c 0
 252 448 241 449 229 453 c 0
 212 460 184 472 149 493 c 1
219 533 m 1
 160 510 146 483 113 464 c 1
 95 483 65 497 65 533 c 0
 65 563 90 579 113 579 c 0
 152 579 160 550 219 533 c 1
EndSplineSet
EndChar

StartChar: daggerdbl
Encoding: 8225 8225 191
Width: 389
Flags: MW
HStem: 161 229<69.5 213.5> 296 94<69.5 93.5> 447 94<69.5 93.5> 447 228<69.5 214>
VStem: 30 169<324 340 344 363 473.5 491 495 511> 148 93 189 170<325 341 341 341 344 362.5 473 492 492 492 495 511 511 511>
LayerCount: 2
Fore
SplineSet
242 629 m 0x94
 242 596 220 574 199 511 c 1
 199 495 l 1xa8
 270 515 277 540 313 540 c 0
 326 540 359 532 359 493 c 0xa2
 359 453 326 446 313 446 c 0
 278 446 269 469 199 491 c 1
 199 344 l 1xa8
 270 365 277 389 313 389 c 0
 326 389 359 382 359 343 c 0xa2
 359 303 326 295 313 295 c 0
 278 295 269 319 199 340 c 1
 199 324 l 1xa8
 219 261 241 240 241 207 c 0xa4
 241 194 233 161 194 161 c 0
 154 161 147 194 147 207 c 0
 147 240 169 261 189 325 c 1
 189 341 l 1xa2
 119 320 111 296 76 296 c 0
 63 296 30 304 30 343 c 0x68
 30 383 63 390 76 390 c 0
 111 390 119 366 189 344 c 1
 189 492 l 1x62
 119 471 111 447 76 447 c 0
 63 447 30 454 30 493 c 0xa8
 30 533 63 541 76 541 c 0
 111 541 119 516 189 495 c 1
 189 511 l 1xa2
 169 575 148 596 148 629 c 0
 148 642 155 675 194 675 c 0
 234 675 242 642 242 629 c 0x94
EndSplineSet
EndChar

StartChar: braceleft
Encoding: 123 123 192
Width: 306
Flags: W
LayerCount: 2
Fore
SplineSet
30 339 m 1
 84 342 119 383 111 443 c 2
 88 607 l 2
 71 731 153 766 276 750 c 1
 212 743 172 719 188 611 c 2
 207 481 l 2
 224 368 114 341 62 339 c 1
 114 336 224 309 207 197 c 2
 188 67 l 2
 173 -41 212 -65 276 -72 c 1
 153 -88 71 -53 88 71 c 2
 111 235 l 2
 119 295 84 336 30 339 c 1
EndSplineSet
EndChar

StartChar: braceright
Encoding: 125 125 193
Width: 306
Flags: W
LayerCount: 2
Fore
SplineSet
276 339 m 1
 222 336 187 295 195 235 c 2
 218 71 l 2
 235 -53 153 -88 30 -72 c 1
 94 -65 133 -41 118 67 c 2
 99 197 l 2
 81 309 192 336 243 339 c 1
 192 341 81 368 99 481 c 2
 118 611 l 2
 134 719 94 743 30 750 c 1
 153 766 235 731 218 607 c 2
 195 443 l 2
 187 383 222 342 276 339 c 1
EndSplineSet
EndChar

StartChar: Euro
Encoding: 8364 8364 194
Width: 502
Flags: MW
HStem: -10 63<292 346.5> 268 32<0 63 0 65 0 63 191 344 191 191> 378 32<0 68 0 64 191 344> 632 33<273.5 314.5 230.5 346.5>
VStem: 64 127<268 378>
LayerCount: 2
Fore
SplineSet
0 378 m 1
 0 410 l 1
 68 410 l 1
 88 558 165 665 296 665 c 0
 333 665 360 655 381 643 c 1
 444 665 l 1
 444 420 l 1
 403 542 383 632 310 632 c 0
 237 632 201 542 191 410 c 1
 344 410 l 1
 344 378 l 1
 190 378 l 1
 189 362 189 346 189 330 c 0
 189 320 189 310 189 300 c 1
 344 300 l 1
 344 268 l 1
 191 268 l 1
 203 137 252 53 332 53 c 0
 398 53 432 101 458 180 c 1
 448 72 397 -10 296 -10 c 0
 158 -10 80 107 65 268 c 1
 0 268 l 1
 0 300 l 1
 63 300 l 1
 63 327 l 2
 63 344 63 361 64 378 c 1
 0 378 l 1
EndSplineSet
EndChar

StartChar: trademark
Encoding: 8482 8482 195
Width: 622
Flags: MW
HStem: 394 21G<403 403> 400 250<86 227 86 86 243 343 243 243 30 467 488 592 30 592> 630 20<74 127 74 74 186 257 186 186>
VStem: 30 156<569 630 426 650 426 650> 127 59<426 630 426 630> 279 28<428 608 428 615 428 615> 500 59<422 618 618 618>
LayerCount: 2
Fore
SplineSet
243 400 m 1x56
 279 428 l 1
 279 615 l 1
 257 630 l 1
 186 630 l 1xb6
 186 426 l 1
 227 400 l 1
 86 400 l 1x56
 127 426 l 1
 127 630 l 1
 74 630 l 1xae
 30 569 l 1
 30 650 l 1
 352 650 l 1
 422 493 l 1
 488 650 l 1
 592 650 l 1
 559 629 l 1
 559 422 l 1
 592 400 l 1
 467 400 l 1x56
 500 422 l 1
 500 618 l 1
 403 394 l 1xb6
 307 608 l 1
 307 428 l 1
 343 400 l 1
 243 400 l 1x56
EndSplineSet
EndChar

StartChar: afii61352
Encoding: 8470 8470 196
Width: 944
Flags: MW
HStem: -20 20G<30 269 30 30> -15 21G<572 572> 188 85<754.5 809.5 754.5 914> 248 25<754.5 809.5 754.5 819> 560 25<754.5 809.5> 560 90
VStem: 120 49<63 523> 523 49<237 587 -15 587> 650 77<393.5 440 393.5 471.5> 837 77<393.5 440>
LayerCount: 2
Fore
SplineSet
650 417 m 0x67c0
 650 526 708 585 782 585 c 0
 856 585 914 526 914 417 c 0
 914 308 856 248 782 248 c 0
 708 248 650 308 650 417 c 0x67c0
837 417 m 0
 837 463 837 560 782 560 c 0
 727 560 727 463 727 417 c 0
 727 370 727 273 782 273 c 0
 837 273 837 370 837 417 c 0
650 156 m 1
 650 188 l 1
 914 188 l 1xabc0
 914 156 l 1
 650 156 l 1
169 63 m 1
 269 0 l 1
 30 0 l 1
 120 63 l 1
 120 578 l 1
 30 650 l 1
 212 650 l 1
 523 237 l 1
 523 587 l 1
 433 650 l 1
 662 650 l 1
 572 587 l 1x5bc0
 572 -15 l 1
 169 523 l 1
 169 63 l 1
EndSplineSet
EndChar

StartChar: ampersand
Encoding: 38 38 197
Width: 635
Flags: MW
HStem: -10 65<519 524.5> 635 30<249.5 304>
VStem: 30 104 103 102<525.5 562 525.5 569> 344 98<513 561>
LayerCount: 2
Fore
SplineSet
606 106 m 1xd8
 593 35 553 -10 496 -10 c 0
 440 -10 406 21 377 57 c 1
 332 16 276 -10 204 -10 c 0
 111 -10 30 54 30 152 c 0xe8
 30 252 100 309 178 349 c 1
 168 362 160 377 150 391 c 0
 127 424 103 463 103 528 c 0
 103 610 178 665 278 665 c 0
 378 665 442 623 442 542 c 0
 442 477 385 446 285 376 c 1
 332 305 380 234 427 164 c 1
 449 194 467 230 483 272 c 1
 458 296 432 319 407 343 c 1
 605 343 l 1
 572 318 540 294 507 269 c 1
 491 227 470 181 444 140 c 1
 475 94 502 55 536 55 c 0
 568 55 592 74 606 106 c 1xd8
254 62 m 0
 290 62 323 72 354 91 c 1
 301 166 250 242 199 318 c 1
 153 283 133 241 134 189 c 0
 135 107 189 62 254 62 c 0
205 546 m 0xd8
 205 505 224 471 267 402 c 1
 326 440 344 488 344 538 c 0
 344 584 331 635 277 635 c 0
 222 635 205 578 205 546 c 0xd8
EndSplineSet
EndChar

StartChar: at
Encoding: 64 64 198
Width: 530
Flags: MW
HStem: -10 30<208.5 289.5 208.5 292.5> 84 30<390 420.5 390 425.5> 84 43<235.5 248.5> 430 30<213.5 331.5>
VStem: 35 30<168.5 281.5 168.5 290> 128 70 314 67 465 30<203.5 291.5>
LayerCount: 2
Fore
SplineSet
65 225 m 0xdf
 65 112 147 20 270 20 c 0
 309 20 346 31 377 50 c 1
 393 25 l 1
 357 3 315 -10 270 -10 c 0
 130 -10 35 95 35 225 c 0
 35 355 140 460 270 460 c 0
 410 460 495 365 495 235 c 0
 495 163 461 84 390 84 c 0
 354 84 326 106 317 134 c 1
 314 136 l 1
 297 105 266 84 231 84 c 0
 164 84 122 140 128 224 c 0
 133 312 192 369 267 369 c 0
 291 369 318 358 331 339 c 1
 387 366 l 1
 375 171 l 2
 372 135 380 114 400 114 c 0
 441 114 465 172 465 235 c 0
 465 348 393 430 270 430 c 0
 157 430 65 338 65 225 c 0xdf
198 218 m 0
 196 161 218 127 253 127 c 0xbf
 273 127 294 137 309 155 c 1
 319 292 l 2
 321 333 293 346 265 343 c 0
 218 338 200 288 198 218 c 0
EndSplineSet
EndChar

StartChar: afii10062
Encoding: 1038 1038 199
Width: 652
Flags: MW
HStem: -10 85<197 272> -10 133<197 220 179 244.5> 714 24<344 378.5 344 404.5> 714 152<231 404.5>
VStem: 193 114<803.5 822> 415 114<803.5 822 775 833>
LayerCount: 2
Fore
SplineSet
649 650 m 1xac
 565 591 l 1
 324 75 l 2x9c
 296 16 269 -10 220 -10 c 0
 174 -10 137 16 137 60 c 0
 137 101 163 123 195 123 c 0x6c
 245 123 238 75 265 75 c 0
 279 75 288 85 295 101 c 2
 328 173 l 1
 84 602 l 1
 10 650 l 1
 260 650 l 1
 199 609 l 1
 384 293 l 1
 524 595 l 1
 449 650 l 1
 649 650 l 1xac
252 866 m 0
 281 866 307 847 307 819 c 0
 307 788 284 782 290 764 c 0
 295 747 327 738 361 738 c 0xac
 396 738 426 747 432 764 c 0
 438 782 415 788 415 819 c 0
 415 847 438 866 471 866 c 0
 513 866 529 836 529 808 c 0
 529 742 448 714 361 714 c 0
 274 714 193 742 193 808 c 0
 193 836 210 866 252 866 c 0
EndSplineSet
EndChar

StartChar: afii10110
Encoding: 1118 1118 200
Width: 545
Flags: MW
HStem: -211 109<130.5 144.5 118.5 170> 430 20G<0 246 246 246 341 545 545 545> 509 21<268 302.5 268 319> 509 139<176.5 319>
VStem: 143 98<594 607.5> 330 98<594 607.5 563 620.5>
LayerCount: 2
Fore
SplineSet
545 450 m 1xdc
 463 399 l 1
 259 -101 l 2
 225 -188 191 -211 149 -211 c 0
 112 -211 83 -189 83 -156 c 0
 83 -122 104 -102 133 -102 c 0
 156 -102 164 -115 178 -123 c 0
 194 -134 208 -123 220 -92 c 2
 263 13 l 1
 78 404 l 1
 0 450 l 1
 246 450 l 1
 178 410 l 1
 311 132 l 1
 419 400 l 1
 341 450 l 1
 545 450 l 1xdc
196 648 m 0
 222 648 241 633 241 608 c 0
 241 580 218 575 224 557 c 0
 229 540 251 530 285 530 c 0xec
 320 530 341 540 347 557 c 0
 353 575 330 580 330 608 c 0
 330 633 349 648 375 648 c 0
 414 648 428 619 428 596 c 0
 428 530 353 509 285 509 c 0
 217 509 143 530 143 596 c 0
 143 619 157 648 196 648 c 0
EndSplineSet
EndChar

StartChar: afii10101
Encoding: 1108 1108 201
Width: 437
Flags: MW
HStem: -10 21G<168.5 284> 228 32<120 272 120 120> 297 163<180.5 365.5>
VStem: 25 92<260 260 260 291.5> 305 96<337 351 335.5 377>
LayerCount: 2
Fore
SplineSet
123 209 m 0
 145 92 231 61 293 70 c 0
 340 77 388 116 414 182 c 1
 409 67 335 -10 233 -10 c 0
 104 -10 25 92 25 225 c 0
 25 358 120 460 241 460 c 0
 341 460 398 410 401 351 c 0
 401 320 380 297 351 297 c 0
 318 297 305 326 305 348 c 0
 305 406 274 438 223 430 c 0
 162 421 116 353 117 260 c 1
 272 260 l 1
 272 228 l 1
 120 228 l 1
 121 221 122 215 123 209 c 0
EndSplineSet
EndChar

StartChar: afii10053
Encoding: 1028 1028 202
Width: 620
Flags: MW
HStem: -10 63<310 402.5> 320 35<158 327 158 328 158 327> 632 33<291 366 242 404.5>
VStem: 30 128<320 320 320 355 320 422>
LayerCount: 2
Fore
SplineSet
559 665 m 1
 559 420 l 1
 512 542 458 632 351 632 c 0
 231 632 164 516 158 355 c 1
 327 355 l 1
 393 458 l 1
 393 218 l 1
 328 320 l 1
 158 320 l 1
 160 161 247 53 373 53 c 0
 476 53 547 121 573 227 c 1
 563 85 468 -10 337 -10 c 0
 153 -10 30 137 30 327 c 0
 30 517 150 665 334 665 c 0
 398 665 438 652 479 620 c 1
 559 665 l 1
EndSplineSet
EndChar

StartChar: afii10145
Encoding: 1039 1039 203
Width: 714
Flags: MW
HStem: -200 21G<355 355> 0 35<220 295 416 416 416 491 220 687> 630 20G<27 307 307 307 407 687 687 687>
VStem: 111 109<51 599 35 599> 491 112<51 599 51 599 51 599>
LayerCount: 2
Fore
SplineSet
355 -200 m 1
 295 0 l 1
 27 0 l 1
 111 51 l 1
 111 599 l 1
 27 650 l 1
 307 650 l 1
 220 599 l 1
 220 35 l 1
 491 35 l 1
 491 599 l 1
 407 650 l 1
 687 650 l 1
 603 599 l 1
 603 51 l 1
 687 0 l 1
 416 0 l 1
 355 -200 l 1
EndSplineSet
EndChar

StartChar: afii10193
Encoding: 1119 1119 204
Width: 575
Flags: MW
HStem: -160 21G<287 287> 0 32<197 239 335 378 197 548 335 335> 430 20G<27 271 271 271 304 548 548 548>
VStem: 101 96<45 406 32 406> 378 96<45 406 45 406 45 406>
LayerCount: 2
Fore
SplineSet
548 450 m 1
 474 406 l 1
 474 45 l 1
 548 0 l 1
 335 0 l 1
 287 -160 l 1
 239 0 l 1
 27 0 l 1
 101 45 l 1
 101 406 l 1
 27 450 l 1
 271 450 l 1
 197 406 l 1
 197 32 l 1
 378 32 l 1
 378 406 l 1
 304 450 l 1
 548 450 l 1
EndSplineSet
EndChar

StartChar: afii10106
Encoding: 1113 1113 205
Width: 673
Flags: MW
HStem: -10 21G<49 86.5> 0 32<408 459 459 479> 0 95 226 32<408 459 408 479> 418 32<180 312 180 180>
VStem: 140 39<223 405> 312 96<44 226 258 405> 553 100<103 153>
LayerCount: 2
Fore
SplineSet
238 0 m 1x3f
 312 44 l 1
 312 418 l 1
 180 418 l 1
 179 223 l 2
 178 186 177 124 161 73 c 0
 146 27 111 -10 62 -10 c 0x9f
 36 -10 0 3 0 42 c 0
 0 80 23 96 46 95 c 0
 79 95 75 60 101 63 c 0
 137 68 140 184 140 243 c 2
 140 405 l 1
 60 450 l 1
 482 450 l 1
 408 405 l 1
 408 258 l 1
 479 258 l 2
 559 258 653 228 653 128 c 0
 653 28 558 0 479 0 c 2
 238 0 l 1x3f
459 226 m 2x5f
 408 226 l 1
 408 32 l 1
 459 32 l 2
 519 32 553 78 553 128 c 0
 553 178 529 226 459 226 c 2x5f
EndSplineSet
EndChar

StartChar: afii10050
Encoding: 1168 1168 206
Width: 554
Flags: MW
HStem: 0 21G<27 327 27 27> 615 35<223 417 223 223> 772 20G<524 524>
VStem: 111 112<61 599 599 599>
LayerCount: 2
Fore
SplineSet
524 792 m 1
 524 552 l 1
 417 615 l 1
 223 615 l 1
 223 61 l 1
 327 0 l 1
 27 0 l 1
 111 51 l 1
 111 599 l 1
 27 650 l 1
 417 650 l 1
 524 792 l 1
EndSplineSet
EndChar

StartChar: afii10098
Encoding: 1169 1169 207
Width: 423
Flags: MW
HStem: 0 21G<20 20 20 281> 423 27<190 312 190 190> 539 20G<397 397>
VStem: 94 96<54 405 405 405>
LayerCount: 2
Fore
SplineSet
20 0 m 1
 94 44 l 1
 94 405 l 1
 20 450 l 1
 312 450 l 1
 397 559 l 1
 397 353 l 1
 312 423 l 1
 190 423 l 1
 190 54 l 1
 281 0 l 1
 20 0 l 1
EndSplineSet
EndChar

StartChar: afii10107
Encoding: 1114 1114 208
Width: 736
Flags: MW
HStem: 0 32<461 522 522 542> 220 38 220 230<190 264 291 365 190 190>
VStem: 94 96<44 220 44 252 252 405> 365 96<44 220 220 220 258 405> 616 100<103 153>
LayerCount: 2
Fore
SplineSet
535 450 m 1xbc
 461 405 l 1
 461 258 l 1
 542 258 l 2xdc
 622 258 716 228 716 128 c 0
 716 28 622 0 542 0 c 2
 291 0 l 1
 365 44 l 1
 365 220 l 1
 190 220 l 1
 190 44 l 1
 264 0 l 1
 20 0 l 1
 94 44 l 1
 94 405 l 1
 20 450 l 1
 264 450 l 1
 190 405 l 1
 190 252 l 1
 365 252 l 1
 365 405 l 1
 291 450 l 1
 535 450 l 1xbc
522 226 m 2xbc
 461 226 l 1
 461 32 l 1
 522 32 l 2
 582 32 616 78 616 128 c 0
 616 178 592 226 522 226 c 2xbc
EndSplineSet
EndChar

StartChar: afii10059
Encoding: 1034 1034 209
Width: 982
Flags: MW
HStem: 0 35<603 691 691 716> 320 35<223 491 223 491> 355 35<603 716 603 691> 630 20G<27 307 307 307 407 687 687 687>
VStem: 111 112<51 320 51 355 355 599> 491 112<51 320 320 320 390 599> 827 128<140 250>
LayerCount: 2
Fore
SplineSet
491 599 m 1xde
 407 650 l 1
 687 650 l 1
 603 599 l 1
 603 390 l 1
 716 390 l 2xbe
 852 390 955 325 955 195 c 0
 955 65 852 0 716 0 c 2
 407 0 l 1
 491 51 l 1
 491 320 l 1
 223 320 l 1
 223 51 l 1
 307 0 l 1
 27 0 l 1
 111 51 l 1
 111 599 l 1
 27 650 l 1
 307 650 l 1
 223 599 l 1
 223 355 l 1
 491 355 l 1
 491 599 l 1xde
603 35 m 1
 691 35 l 2
 764 35 827 85 827 195 c 0
 827 305 764 355 691 355 c 2
 603 355 l 1
 603 35 l 1
EndSplineSet
EndChar

StartChar: afii10058
Encoding: 1033 1033 210
Width: 959
Flags: MW
HStem: -10 21G<84 152.5> 0 35<580 668 668 693> 0 115 355 35<580 668 580 693> 615 35<253 468 253 253>
VStem: 21 232<34.5 280> 204 49<300 599 599 599> 468 112<51 355 390 599> 804 128<140 250>
LayerCount: 2
Fore
SplineSet
468 615 m 1x5b80
 253 615 l 1
 253 280 l 2
 253 76 200 -10 105 -10 c 0x9d80
 63 -10 21 11 21 58 c 0
 21 102 52 115 75 115 c 0x3d80
 122 115 114 66 148 76 c 0
 202 92 204 213 204 300 c 2
 204 599 l 1
 114 650 l 1
 664 650 l 1
 580 599 l 1
 580 390 l 1
 693 390 l 2
 829 390 932 325 932 195 c 0
 932 65 829 0 693 0 c 2
 384 0 l 1
 468 51 l 1
 468 615 l 1x5b80
580 35 m 1x5d80
 668 35 l 2
 741 35 804 85 804 195 c 0
 804 305 741 355 668 355 c 2
 580 355 l 1
 580 35 l 1x5d80
EndSplineSet
EndChar

StartChar: afii10109
Encoding: 1116 1116 211
Width: 524
Flags: MW
HStem: 0 21G<20 264 20 20 365 512 365 365> 220 32<190 199 199 218 190 199> 352 98 440 20G<381 426.5> 630 20G<266 374 374 374>
VStem: 94 96<45 220 252 405>
LayerCount: 2
Fore
SplineSet
190 252 m 1xec
 199 252 l 2
 239 252 279 265 309 345 c 0
 326 392 350 460 412 460 c 0
 441 460 476 448 476 409 c 0
 476 372 451 352 426 352 c 0
 378 352 381 430 341 325 c 0
 324 280 307 252 273 238 c 1
 375 228 402 152 451 45 c 1
 472 30 491 15 512 0 c 1
 365 0 l 1
 327 90 287 216 218 220 c 1
 190 220 l 1
 190 45 l 1
 215 30 239 15 264 0 c 1
 20 0 l 1
 45 15 69 30 94 45 c 1
 94 406 l 1
 69 421 45 435 20 450 c 1
 264 450 l 1
 239 435 215 420 190 405 c 1
 190 252 l 1xec
266 650 m 1
 374 650 l 1xdc
 329 600 283 550 238 500 c 1
 247 550 257 600 266 650 c 1
EndSplineSet
EndChar

StartChar: afii10100
Encoding: 1107 1107 212
Width: 433
Flags: MW
HStem: 0 21G<20 20 20 281> 423 27<190 322 190 190> 450 200<230 338 230 407 230 407>
VStem: 94 96<54 405 405 405>
LayerCount: 2
Fore
SplineSet
20 0 m 1xb0
 94 44 l 1
 94 405 l 1xd0
 20 450 l 1
 407 450 l 1
 407 314 l 1
 322 423 l 1
 190 423 l 1
 190 54 l 1
 281 0 l 1
 20 0 l 1xb0
230 650 m 1
 338 650 l 1
 202 500 l 1
 230 650 l 1
EndSplineSet
EndChar

StartChar: afii10061
Encoding: 1036 1036 213
Width: 694
Flags: MW
HStem: 0 21G<27 307 27 27 484 670 484 484> 320 35<223 272 223 284> 530 135<527.5 553 505.5 570> 582 83<426 553 478.5 553> 870 20G<313 433 433 433>
VStem: 111 112<51 320 355 599>
LayerCount: 2
Fore
SplineSet
307 650 m 1xdc
 223 599 l 1
 223 355 l 1
 284 355 l 2
 335 357 360 394 383 459 c 2
 426 582 l 2xdc
 448 644 481 665 530 665 c 0
 576 665 615 642 615 596 c 0
 615 551 586 530 554 530 c 0xec
 501 530 510 582 485 582 c 0
 472 582 465 574 459 557 c 2
 416 438 l 2
 395 382 371 357 343 343 c 1
 408 336 474 295 525 184 c 2
 587 51 l 1
 670 0 l 1
 484 0 l 1
 396 205 l 2
 360 292 317 320 272 320 c 2
 223 320 l 1
 223 51 l 1
 307 0 l 1
 27 0 l 1
 111 51 l 1
 111 599 l 1
 27 650 l 1
 307 650 l 1xdc
313 890 m 1
 433 890 l 1
 290 710 l 1
 313 890 l 1
EndSplineSet
EndChar

StartChar: afii10052
Encoding: 1027 1027 214
Width: 574
Flags: MW
HStem: 0 21G<27 327 27 27> 615 35<223 434 223 223> 870 20G<300 420 420 420>
VStem: 111 112<61 599 599 599>
LayerCount: 2
Fore
SplineSet
544 650 m 1
 544 444 l 1
 434 615 l 1
 223 615 l 1
 223 61 l 1
 327 0 l 1
 27 0 l 1
 111 51 l 1
 111 599 l 1
 27 650 l 1
 544 650 l 1
300 890 m 1
 420 890 l 1
 277 710 l 1
 300 890 l 1
EndSplineSet
EndChar

StartChar: currency
Encoding: 164 164 215
Width: 530
Flags: MW
HStem: 139 21G<109 109 420 420> 184 43<249 280.5> 423 43<249 280.5 249 292> 491 20G<109 109 420 420>
VStem: 124 43<309.5 340.5> 363 43<309 340.5 309 352>
LayerCount: 2
Fore
SplineSet
79 170 m 1
 151 242 l 1
 134 265 124 294 124 325 c 0
 124 356 134 384 151 408 c 1
 79 480 l 1
 109 511 l 1
 181 439 l 1
 204 456 233 466 265 466 c 0
 296 466 324 456 348 439 c 1
 420 511 l 1
 450 480 l 1
 379 409 l 1
 396 385 406 356 406 325 c 0
 406 293 396 264 379 241 c 1
 450 170 l 1
 420 139 l 1
 348 211 l 1
 324 194 296 184 265 184 c 0
 233 184 204 194 181 211 c 1
 109 139 l 1
 79 170 l 1
167 325 m 0
 167 271 211 227 265 227 c 0
 319 227 363 271 363 325 c 0
 363 379 319 423 265 423 c 0
 211 423 167 379 167 325 c 0
EndSplineSet
EndChar

StartChar: afii10060
Encoding: 1035 1035 216
Width: 762
Flags: MW
HStem: 0 21G<162 482 162 162 503 747 503 503> 350 60<498 527> 615 35<140 266 140 140 378 378 378 504>
VStem: 266 112<61 287 61 317 317 615> 577 96<41 233 233 246 41 274>
LayerCount: 2
Fore
SplineSet
503 0 m 1
 577 41 l 1
 577 233 l 2
 577 315 561 350 493 350 c 0
 446 350 405 324 378 287 c 1
 378 61 l 1
 482 0 l 1
 162 0 l 1
 266 61 l 1
 266 615 l 1
 140 615 l 1
 30 430 l 1
 30 650 l 1
 614 650 l 1
 614 430 l 1
 504 615 l 1
 378 615 l 1
 378 317 l 1
 409 355 460 410 536 410 c 0
 645 410 673 345 673 246 c 2
 673 41 l 1
 747 0 l 1
 503 0 l 1
EndSplineSet
EndChar

StartChar: idieresis
Encoding: 239 239 217
Width: 281
Flags: MW
HStem: 0 21G<15 259 259 259> 540 120<34.5 68 202.5 236>
VStem: -8 120<582.5 616> 159 120<582.5 616>
LayerCount: 2
Fore
SplineSet
15 405 m 1
 89 383 l 1
 89 44 l 1
 15 0 l 1
 259 0 l 1
 185 44 l 1
 185 460 l 1
 15 405 l 1
-8 599 m 0
 -8 633 18 660 51 660 c 0
 85 660 112 633 112 599 c 0
 112 566 85 540 51 540 c 0
 18 540 -8 566 -8 599 c 0
159 599 m 0
 159 633 186 660 219 660 c 0
 253 660 279 633 279 599 c 0
 279 566 253 540 219 540 c 0
 186 540 159 566 159 599 c 0
EndSplineSet
EndChar

StartChar: Idieresis
Encoding: 207 207 218
Width: 334
Flags: MW
HStem: 0 21G<27 307 27 27> 733 123<59 92.5 240 274.5>
VStem: 14 123<777 811.5> 111 112<51 599 51 599> 196 123<777 811.5>
LayerCount: 2
Fore
SplineSet
307 650 m 1xd0
 223 599 l 1
 223 51 l 1
 307 0 l 1
 27 0 l 1
 111 51 l 1
 111 599 l 1
 27 650 l 1
 307 650 l 1xd0
14 794 m 0xe8
 14 829 42 856 76 856 c 0
 110 856 137 829 137 794 c 0
 137 760 110 733 75 733 c 0
 42 733 14 760 14 794 c 0xe8
196 794 m 0
 196 829 223 856 257 856 c 0
 292 856 319 829 319 794 c 0
 319 760 292 733 257 733 c 0
 223 733 196 760 196 794 c 0
EndSplineSet
EndChar

StartChar: adieresis
Encoding: 228 228 219
Width: 446
Flags: MW
HStem: -10 58<98 195.5> 297 163<71 269> 431 29<182 230> 540 120<109.5 143 277 310>
VStem: 23 96<105.5 132> 41 90<333.5 348> 186 48<582.5 616> 272 95<53 61 93 265 93 93 294 311 294 294>
LayerCount: 2
Fore
SplineSet
367 53 m 1xd7
 367 311 l 2
 367 402 324 460 214 460 c 0
 132 460 42 413 41 348 c 0
 41 319 57 297 85 297 c 0
 112 297 131 316 131 348 c 0xd7
 131 407 159 431 205 431 c 0
 255 431 272 400 272 311 c 2
 272 294 l 1
 140 241 l 2
 62 210 23 162 23 102 c 0xbb
 23 35 65 -10 131 -10 c 0
 162 -10 185 -2 211 17 c 2
 272 61 l 1
 272 11 295 -10 330 -10 c 0
 366 -10 404 12 441 83 c 1
 367 53 l 1xd7
272 93 m 1
 235 63 208 48 183 48 c 0
 140 48 119 82 119 129 c 0xdb
 119 169 142 211 207 238 c 2
 272 265 l 1
 272 93 l 1
66 599 m 0
 66 633 93 660 126 660 c 0
 160 660 186 633 186 599 c 0
 186 566 160 540 126 540 c 0
 93 540 66 566 66 599 c 0
234 599 m 0
 234 633 260 660 294 660 c 0
 328 660 354 633 354 599 c 0
 354 566 327 540 293 540 c 0
 260 540 234 566 234 599 c 0
EndSplineSet
EndChar

StartChar: edieresis
Encoding: 235 235 220
Width: 436
Flags: MW
HStem: -10 21G<162 280.5> 261 25 261 199 540 120<113.5 147 309.5 343>
VStem: 22 93<245 252 245 279 245 290> 70 120<582.5 616> 266 120<582.5 616> 316 97
LayerCount: 2
Fore
SplineSet
414 271 m 1xda
 115 252 l 1
 115 238 116 224 119 209 c 0
 141 95 222 60 287 70 c 0
 336 77 385 112 413 182 c 1
 408 67 333 -10 228 -10 c 0
 96 -10 22 95 22 225 c 0
 22 355 109 460 231 460 c 0xb9
 360 460 414 389 414 271 c 1xda
316 293 m 1
 316 398 272 437 213 430 c 0
 157 422 118 362 115 279 c 1
 316 293 l 1
70 599 m 0xd6
 70 633 97 660 130 660 c 0
 164 660 190 633 190 599 c 0
 190 566 164 540 130 540 c 0
 97 540 70 566 70 599 c 0xd6
266 599 m 0
 266 633 293 660 326 660 c 0
 360 660 386 633 386 599 c 0
 386 566 360 540 326 540 c 0
 293 540 266 566 266 599 c 0
EndSplineSet
EndChar

StartChar: Edieresis
Encoding: 203 203 221
Width: 584
Flags: MW
HStem: 0 35<223 450 223 560> 320 35<223 337 223 338 223 337> 615 35<223 441 223 223> 738 120<185.5 219 395.5 429>
VStem: 111 112<51 320 355 599 599 599> 142 120<781.5 815> 352 120<781.5 815>
LayerCount: 2
Fore
SplineSet
27 0 m 1xfa
 111 51 l 1
 111 599 l 1
 27 650 l 1
 545 650 l 1
 545 430 l 1
 441 615 l 1
 223 615 l 1
 223 355 l 1
 337 355 l 1
 412 458 l 1
 412 218 l 1
 338 320 l 1
 223 320 l 1
 223 35 l 1
 450 35 l 1
 560 220 l 1
 560 0 l 1
 27 0 l 1xfa
142 798 m 0xf6
 142 832 169 858 202 858 c 0
 236 858 262 832 262 798 c 0
 262 765 236 738 202 738 c 0
 169 738 142 765 142 798 c 0xf6
352 798 m 0
 352 832 379 858 412 858 c 0
 446 858 472 832 472 798 c 0
 472 765 446 738 412 738 c 0
 379 738 352 765 352 798 c 0
EndSplineSet
EndChar

StartChar: odieresis
Encoding: 246 246 222
Width: 479
Flags: MW
HStem: -10 21G<174.5 298.5> 440 20G<179.5 303.5> 540 120<125.5 159 321.5 355>
VStem: 22 180 82 120<582.5 616> 278 120<582.5 616>
LayerCount: 2
Fore
SplineSet
22 225 m 0xf4
 22 361 120 460 239 460 c 0
 368 460 457 361 457 225 c 0
 457 89 358 -10 239 -10 c 0
 110 -10 22 89 22 225 c 0xf4
133 210 m 0
 148 91 202 12 264 22 c 0
 336 33 361 121 346 240 c 0
 331 359 276 438 214 428 c 0
 142 420 118 329 133 210 c 0
82 599 m 0xec
 82 633 109 660 142 660 c 0
 176 660 202 633 202 599 c 0
 202 566 176 540 142 540 c 0
 109 540 82 566 82 599 c 0xec
278 599 m 0
 278 633 305 660 338 660 c 0
 372 660 398 633 398 599 c 0
 398 566 372 540 338 540 c 0
 305 540 278 566 278 599 c 0
EndSplineSet
EndChar

StartChar: divide
Encoding: 247 247 223
Width: 502
Flags: MW
HStem: 126 120<234.5 268> 320 32<56 446 56 446> 426 120<234.5 268>
VStem: 191 120<168.5 202 468.5 502>
CounterMasks: 1 e0
LayerCount: 2
Fore
SplineSet
56 320 m 1
 56 352 l 1
 446 352 l 1
 446 320 l 1
 56 320 l 1
191 185 m 0
 191 219 218 246 251 246 c 0
 285 246 311 219 311 185 c 0
 311 152 285 126 251 126 c 0
 218 126 191 152 191 185 c 0
191 485 m 0
 191 519 218 546 251 546 c 0
 285 546 311 519 311 485 c 0
 311 452 285 426 251 426 c 0
 218 426 191 452 191 485 c 0
EndSplineSet
EndChar

StartChar: exclamdown
Encoding: 161 161 224
Width: 262
Flags: MW
HStem: -212 21G<111.5 152> 340 120<115 148>
VStem: 70 122<-149 -76>
LayerCount: 2
Fore
SplineSet
132 -212 m 0
 91 -212 70 -179 70 -119 c 0
 70 -33 121 235 132 295 c 1
 142 235 192 -33 192 -119 c 0
 192 -179 172 -212 132 -212 c 0
191 400 m 0
 191 366 165 340 131 340 c 0
 97 340 71 366 71 400 c 0
 71 433 98 460 132 460 c 0
 165 460 191 433 191 400 c 0
EndSplineSet
EndChar

StartChar: udieresis
Encoding: 252 252 225
Width: 545
Flags: MW
HStem: -10 60<214.5 236.5> 540 120<151 184 334 367>
VStem: 77 96<154 167 167 393 393 393> 108 120<582.5 616> 291 120<582.5 616> 352 96<67 83 83 83 113 393 393 393>
LayerCount: 2
Fore
SplineSet
3 416 m 1xe4
 173 460 l 1
 173 167 l 2
 173 85 186 50 243 50 c 0
 281 50 325 76 352 113 c 1
 352 393 l 1
 278 416 l 1
 448 460 l 1
 448 67 l 1
 522 45 l 1
 352 -10 l 1
 352 83 l 1
 321 45 269 -10 204 -10 c 0
 105 -10 77 55 77 154 c 2
 77 393 l 1
 3 416 l 1xe4
108 599 m 0xd8
 108 633 134 660 168 660 c 0
 202 660 228 633 228 599 c 0
 228 566 201 540 167 540 c 0
 134 540 108 566 108 599 c 0xd8
291 599 m 0
 291 633 317 660 351 660 c 0
 385 660 411 633 411 599 c 0
 411 566 384 540 350 540 c 0
 317 540 291 566 291 599 c 0
EndSplineSet
EndChar

StartChar: ydieresis
Encoding: 255 255 226
Width: 525
Flags: MW
HStem: -211 106<112.5 125.5 100.5 151.5> 430 20G<-20 226 226 226 321 525 525 525> 540 120<155.5 189 348.5 382>
VStem: 112 120<582.5 616> 305 120<582.5 616>
LayerCount: 2
Fore
SplineSet
525 450 m 1
 443 399 l 1
 239 -101 l 2
 205 -191 172 -211 131 -211 c 0
 94 -211 66 -190 66 -157 c 0
 66 -123 87 -105 114 -105 c 0
 137 -105 144 -118 158 -126 c 0
 173 -136 186 -126 199 -96 c 2
 243 13 l 1
 58 404 l 1
 -20 450 l 1
 226 450 l 1
 158 410 l 1
 291 132 l 1
 399 400 l 1
 321 450 l 1
 525 450 l 1
112 599 m 0
 112 633 139 660 172 660 c 0
 206 660 232 633 232 599 c 0
 232 566 206 540 172 540 c 0
 139 540 112 566 112 599 c 0
305 599 m 0
 305 633 332 660 365 660 c 0
 399 660 425 633 425 599 c 0
 425 566 399 540 365 540 c 0
 332 540 305 566 305 599 c 0
EndSplineSet
EndChar

StartChar: aacute
Encoding: 225 225 227
Width: 446
Flags: MW
HStem: -10 58<98 195.5> 297 163<71 269> 431 29<182 230> 431 219<200 230>
VStem: 23 96<105.5 132> 41 90<333.5 348> 272 95<53 61 93 265 265 265 294 311 53 355.5>
LayerCount: 2
Fore
SplineSet
367 311 m 2x9a
 367 53 l 1
 441 83 l 1
 404 12 366 -10 330 -10 c 0
 295 -10 272 11 272 61 c 1
 211 17 l 2
 185 -2 162 -10 131 -10 c 0
 65 -10 23 35 23 102 c 0
 23 162 62 210 140 241 c 2
 272 294 l 1
 272 311 l 2
 272 400 255 431 205 431 c 0xaa
 159 431 131 407 131 348 c 0
 131 316 112 297 85 297 c 0
 57 297 41 319 41 348 c 0
 42 413 132 460 214 460 c 0xc6
 324 460 367 402 367 311 c 2x9a
272 93 m 1
 272 265 l 1
 207 238 l 2
 142 211 119 169 119 129 c 0xc6
 119 82 140 48 183 48 c 0
 208 48 235 63 272 93 c 1
200 650 m 1
 308 650 l 1
 172 500 l 1
 200 650 l 1
EndSplineSet
EndChar

StartChar: eacute
Encoding: 233 233 228
Width: 446
Flags: MW
HStem: -10 21G<162 280.5> 261 25 460 190<210 295.5>
VStem: 22 93<245 252 245 279 245 290> 316 98<293 330 271 345.5>
LayerCount: 2
Fore
SplineSet
414 271 m 1
 115 252 l 1
 115 238 116 224 119 209 c 0
 141 95 222 60 287 70 c 0
 336 77 385 112 413 182 c 1
 408 67 333 -10 228 -10 c 0
 96 -10 22 95 22 225 c 0
 22 355 109 460 231 460 c 0
 360 460 414 389 414 271 c 1
316 293 m 1
 316 398 272 437 213 430 c 0
 157 422 118 362 115 279 c 1
 316 293 l 1
210 650 m 1
 318 650 l 1
 182 500 l 1
 210 650 l 1
EndSplineSet
EndChar

StartChar: iacute
Encoding: 237 237 229
Width: 284
Flags: MW
HStem: 0 21G<20 264 20 20> 630 20G<120 228 228 228>
VStem: 94 96<44 383 383 383>
LayerCount: 2
Fore
SplineSet
94 383 m 1
 20 405 l 1
 190 460 l 1
 190 44 l 1
 264 0 l 1
 20 0 l 1
 94 44 l 1
 94 383 l 1
120 650 m 1
 228 650 l 1
 92 500 l 1
 120 650 l 1
EndSplineSet
EndChar

StartChar: oacute
Encoding: 243 243 230
Width: 479
Flags: MW
HStem: -10 21G<174.5 298.5> 460 190<224 303.5>
LayerCount: 2
Fore
SplineSet
22 225 m 0
 22 361 120 460 239 460 c 0
 368 460 457 361 457 225 c 0
 457 89 358 -10 239 -10 c 0
 110 -10 22 89 22 225 c 0
133 210 m 0
 148 91 202 12 264 22 c 0
 336 33 361 121 346 240 c 0
 331 359 276 438 214 428 c 0
 142 420 118 329 133 210 c 0
224 650 m 1
 332 650 l 1
 196 500 l 1
 224 650 l 1
EndSplineSet
EndChar

StartChar: uacute
Encoding: 250 250 231
Width: 545
Flags: MW
HStem: -10 60<214.5 236.5> 630 20G<253 361 361 361>
VStem: 77 96<154 167 167 393 393 393> 352 96<67 83 83 83 113 393 393 393>
LayerCount: 2
Fore
SplineSet
3 416 m 1
 173 460 l 1
 173 167 l 2
 173 85 186 50 243 50 c 0
 281 50 325 76 352 113 c 1
 352 393 l 1
 278 416 l 1
 448 460 l 1
 448 67 l 1
 522 45 l 1
 352 -10 l 1
 352 83 l 1
 321 45 269 -10 204 -10 c 0
 105 -10 77 55 77 154 c 2
 77 393 l 1
 3 416 l 1
253 650 m 1
 361 650 l 1
 225 500 l 1
 253 650 l 1
EndSplineSet
EndChar

StartChar: yacute
Encoding: 253 253 232
Width: 525
Flags: MW
HStem: -211 106<112.5 125.5 100.5 151.5> 450 200<-20 385 226 385 321 385 277 525 277 525>
LayerCount: 2
Fore
SplineSet
525 450 m 1
 443 399 l 1
 239 -101 l 2
 205 -191 172 -211 131 -211 c 0
 94 -211 66 -190 66 -157 c 0
 66 -123 87 -105 114 -105 c 0
 137 -105 144 -118 158 -126 c 0
 173 -136 186 -126 199 -96 c 2
 243 13 l 1
 58 404 l 1
 -20 450 l 1
 226 450 l 1
 158 410 l 1
 291 132 l 1
 399 400 l 1
 321 450 l 1
 525 450 l 1
277 650 m 1
 385 650 l 1
 249 500 l 1
 277 650 l 1
EndSplineSet
EndChar

StartChar: thorn
Encoding: 254 254 233
Width: 510
Flags: MW
HStem: -200 21G<2 2 2 245> 398 62<250 356> 645 20G<171 171>
VStem: 75 96<-155 25 71 100 100 337 364 588 588 588> 375 103
LayerCount: 2
Fore
SplineSet
2 -200 m 1
 75 -155 l 1
 75 588 l 1
 2 610 l 1
 171 665 l 1
 171 364 l 1
 201 419 245 460 300 460 c 0
 412 460 478 375 478 235 c 0
 478 96 379 -10 266 -10 c 0
 224 -10 194 4 171 25 c 1
 171 -155 l 1
 245 -200 l 1
 2 -200 l 1
375 245 m 0
 369 340 328 399 269 398 c 0
 231 398 198 377 171 337 c 1
 171 100 l 2
 171 42 225 14 272 21 c 0
 344 32 382 127 375 245 c 0
EndSplineSet
EndChar

StartChar: ugrave
Encoding: 249 249 234
Width: 545
Flags: MW
HStem: -10 60<214.5 236.5> 630 20G<166 274 274 274>
VStem: 77 96<154 167 167 393 393 393> 352 96<67 83 83 83 113 393 393 393>
LayerCount: 2
Fore
SplineSet
3 416 m 1
 173 460 l 1
 173 167 l 2
 173 85 186 50 243 50 c 0
 281 50 325 76 352 113 c 1
 352 393 l 1
 278 416 l 1
 448 460 l 1
 448 67 l 1
 522 45 l 1
 352 -10 l 1
 352 83 l 1
 321 45 269 -10 204 -10 c 0
 105 -10 77 55 77 154 c 2
 77 393 l 1
 3 416 l 1
166 650 m 1
 274 650 l 1
 302 500 l 1
 166 650 l 1
EndSplineSet
EndChar

StartChar: ograve
Encoding: 242 242 235
Width: 479
Flags: MW
HStem: -10 21G<174.5 298.5> 440 20G<179.5 303.5> 630 20G<126 234 234 234>
LayerCount: 2
Fore
SplineSet
22 225 m 0
 22 361 120 460 239 460 c 0
 368 460 457 361 457 225 c 0
 457 89 358 -10 239 -10 c 0
 110 -10 22 89 22 225 c 0
133 210 m 0
 148 91 202 12 264 22 c 0
 336 33 361 121 346 240 c 0
 331 359 276 438 214 428 c 0
 142 420 118 329 133 210 c 0
126 650 m 1
 234 650 l 1
 262 500 l 1
 126 650 l 1
EndSplineSet
EndChar

StartChar: igrave
Encoding: 236 236 236
Width: 284
Flags: MW
HStem: 0 21G<20 264 264 264> 630 20G<32 140 140 140>
VStem: 94 96<44 383 44 460>
LayerCount: 2
Fore
SplineSet
20 405 m 1
 94 383 l 1
 94 44 l 1
 20 0 l 1
 264 0 l 1
 190 44 l 1
 190 460 l 1
 20 405 l 1
32 650 m 1
 140 650 l 1
 168 500 l 1
 32 650 l 1
EndSplineSet
EndChar

StartChar: egrave
Encoding: 232 232 237
Width: 446
Flags: MW
HStem: -10 21G<162 280.5> 261 25 261 199 630 20G<119 227 227 227>
VStem: 22 93<245 252 245 279 245 290> 316 97
LayerCount: 2
Fore
SplineSet
414 271 m 1xdc
 115 252 l 1
 115 238 116 224 119 209 c 0
 141 95 222 60 287 70 c 0
 336 77 385 112 413 182 c 1
 408 67 333 -10 228 -10 c 0
 96 -10 22 95 22 225 c 0
 22 355 109 460 231 460 c 0xbc
 360 460 414 389 414 271 c 1xdc
316 293 m 1
 316 398 272 437 213 430 c 0
 157 422 118 362 115 279 c 1
 316 293 l 1
119 650 m 1
 227 650 l 1
 255 500 l 1
 119 650 l 1
EndSplineSet
EndChar

StartChar: agrave
Encoding: 224 224 238
Width: 446
Flags: MW
HStem: -10 58<98 195.5> 297 163<71 269> 431 29<182 230> 460 190<173 223 115 269>
VStem: 23 96<105.5 132> 41 90<333.5 348> 272 95<53 61 93 265 93 93 294 311 294 294>
LayerCount: 2
Fore
SplineSet
367 53 m 1xc6
 367 311 l 2
 367 402 324 460 214 460 c 0
 132 460 42 413 41 348 c 0
 41 319 57 297 85 297 c 0
 112 297 131 316 131 348 c 0xc6
 131 407 159 431 205 431 c 0
 255 431 272 400 272 311 c 2
 272 294 l 1
 140 241 l 2
 62 210 23 162 23 102 c 0xaa
 23 35 65 -10 131 -10 c 0
 162 -10 185 -2 211 17 c 2
 272 61 l 1
 272 11 295 -10 330 -10 c 0
 366 -10 404 12 441 83 c 1
 367 53 l 1xc6
272 93 m 1
 235 63 208 48 183 48 c 0
 140 48 119 82 119 129 c 0x9a
 119 169 142 211 207 238 c 2
 272 265 l 1
 272 93 l 1
115 650 m 1
 223 650 l 1
 251 500 l 1
 115 650 l 1
EndSplineSet
EndChar

StartChar: oslash
Encoding: 248 248 239
Width: 479
Flags: MW
HStem: -30 21G<116 116> 460 20G
LayerCount: 2
Fore
SplineSet
364 480 m 1
 399 460 l 1
 373 415 l 1
 426 374 457 306 457 225 c 0
 457 89 358 -10 239 -10 c 0
 203 -10 169 -2 140 12 c 1
 116 -30 l 1
 81 -10 l 1
 106 34 l 1
 53 76 22 143 22 225 c 0
 22 361 120 460 239 460 c 0
 276 460 310 452 339 437 c 1
 364 480 l 1
346 240 m 0
 342 273 334 303 323 328 c 1
 177 76 l 1
 201 37 231 17 264 22 c 0
 336 33 361 121 346 240 c 0
133 210 m 0
 137 176 145 145 156 120 c 1
 302 373 l 1
 278 412 248 433 214 428 c 0
 142 420 118 329 133 210 c 0
EndSplineSet
EndChar

StartChar: acircumflex
Encoding: 226 226 240
Width: 446
Flags: MW
HStem: -10 58<98 195.5> 297 163<71 269> 431 29<182 230> 645 20G<211 211>
VStem: 23 96<105.5 132> 41 90<333.5 348> 272 95<53 61 93 265 265 265 294 311 53 355.5>
LayerCount: 2
Fore
SplineSet
367 311 m 2xd6
 367 53 l 1
 441 83 l 1
 404 12 366 -10 330 -10 c 0
 295 -10 272 11 272 61 c 1
 211 17 l 2
 185 -2 162 -10 131 -10 c 0
 65 -10 23 35 23 102 c 0
 23 162 62 210 140 241 c 2
 272 294 l 1
 272 311 l 2
 272 400 255 431 205 431 c 0
 159 431 131 407 131 348 c 0
 131 316 112 297 85 297 c 0xba
 57 297 41 319 41 348 c 0
 42 413 132 460 214 460 c 0
 324 460 367 402 367 311 c 2xd6
272 93 m 1
 272 265 l 1
 207 238 l 2
 142 211 119 169 119 129 c 0
 119 82 140 48 183 48 c 0xd6
 208 48 235 63 272 93 c 1
211 580 m 1
 82 500 l 1
 211 665 l 1
 340 500 l 1
 211 580 l 1
EndSplineSet
EndChar

StartChar: ecircumflex
Encoding: 234 234 241
Width: 446
Flags: MW
HStem: -10 21G<162 280.5> 261 25 261 199 645 20G<228 228>
VStem: 22 93<245 252 245 279 245 290> 316 98<293 330 271 345.5>
LayerCount: 2
Fore
SplineSet
414 271 m 1xdc
 115 252 l 1
 115 238 116 224 119 209 c 0
 141 95 222 60 287 70 c 0
 336 77 385 112 413 182 c 1
 408 67 333 -10 228 -10 c 0
 96 -10 22 95 22 225 c 0
 22 355 109 460 231 460 c 0
 360 460 414 389 414 271 c 1xdc
316 293 m 1
 316 398 272 437 213 430 c 0
 157 422 118 362 115 279 c 1
 316 293 l 1
228 580 m 1
 96 500 l 1
 228 665 l 1
 360 500 l 1xbc
 228 580 l 1
EndSplineSet
EndChar

StartChar: icircumflex
Encoding: 238 238 242
Width: 284
Flags: MW
HStem: 0 21G<20 264 20 20> 640 20G<139 139>
VStem: 94 96<44 383 383 383>
LayerCount: 2
Fore
SplineSet
94 383 m 1
 20 405 l 1
 190 460 l 1
 190 44 l 1
 264 0 l 1
 20 0 l 1
 94 44 l 1
 94 383 l 1
139 576 m 1
 17 500 l 1
 139 660 l 1
 261 500 l 1
 139 576 l 1
EndSplineSet
EndChar

StartChar: ocircumflex
Encoding: 244 244 243
Width: 479
Flags: MW
HStem: -10 21G<174.5 298.5> 440 20G<179.5 303.5> 645 20G<239 239>
LayerCount: 2
Fore
SplineSet
22 225 m 0
 22 361 120 460 239 460 c 0
 368 460 457 361 457 225 c 0
 457 89 358 -10 239 -10 c 0
 110 -10 22 89 22 225 c 0
133 210 m 0
 148 91 202 12 264 22 c 0
 336 33 361 121 346 240 c 0
 331 359 276 438 214 428 c 0
 142 420 118 329 133 210 c 0
239 580 m 1
 100 500 l 1
 239 665 l 1
 378 500 l 1
 239 580 l 1
EndSplineSet
EndChar

StartChar: ucircumflex
Encoding: 251 251 244
Width: 545
Flags: MW
HStem: -10 60<214.5 236.5> 645 20G<258 258>
VStem: 77 96<154 167 167 393 393 393> 352 96<67 83 83 83 113 393 393 393>
LayerCount: 2
Fore
SplineSet
3 416 m 1
 173 460 l 1
 173 167 l 2
 173 85 186 50 243 50 c 0
 281 50 325 76 352 113 c 1
 352 393 l 1
 278 416 l 1
 448 460 l 1
 448 67 l 1
 522 45 l 1
 352 -10 l 1
 352 83 l 1
 321 45 269 -10 204 -10 c 0
 105 -10 77 55 77 154 c 2
 77 393 l 1
 3 416 l 1
258 580 m 1
 119 500 l 1
 258 665 l 1
 397 500 l 1
 258 580 l 1
EndSplineSet
EndChar

StartChar: aring
Encoding: 229 229 245
Width: 446
Flags: MW
HStem: -10 58<98 195.5> 297 163<71 269> 431 29<182 230> 501 34<193 219 193 229> 535 96<193 219> 631 34<193 219>
VStem: 23 96<105.5 132> 41 90<333.5 348> 158 96<570 596> 272 95<53 61 93 265 93 93 294 311 294 294> 288 79
LayerCount: 2
Fore
SplineSet
367 53 m 1xc9c0
 367 311 l 2
 367 402 324 460 214 460 c 0
 132 460 42 413 41 348 c 0
 41 319 57 297 85 297 c 0
 112 297 131 316 131 348 c 0xc9c0
 131 407 159 431 205 431 c 0
 255 431 272 400 272 311 c 2
 272 294 l 1
 140 241 l 2
 62 210 23 162 23 102 c 0xaac0
 23 35 65 -10 131 -10 c 0
 162 -10 185 -2 211 17 c 2
 272 61 l 1
 272 11 295 -10 330 -10 c 0
 366 -10 404 12 441 83 c 1
 367 53 l 1xc9c0
272 93 m 1
 235 63 208 48 183 48 c 0
 140 48 119 82 119 129 c 0xd6c0
 119 169 142 211 207 238 c 2
 272 265 l 1
 272 93 l 1
124 583 m 0
 124 629 160 665 206 665 c 0
 252 665 288 629 288 583 c 0xd6a0
 288 537 252 501 206 501 c 0
 160 501 124 537 124 583 c 0
158 583 m 0
 158 557 180 535 206 535 c 0xcac0
 232 535 254 557 254 583 c 0
 254 609 232 631 206 631 c 0
 180 631 158 609 158 583 c 0
EndSplineSet
EndChar

StartChar: Aacute
Encoding: 193 193 246
Width: 663
Flags: MW
HStem: 0 210<-10 399 184 197 184 402 184 663> 175 35<184 399 184 415 170 399> 870 20G<283 403 403 403>
LayerCount: 2
Fore
SplineSet
-10 0 m 1xa0
 81 61 l 1
 329 665 l 1
 585 50 l 1
 663 0 l 1
 402 0 l 1xa0
 469 45 l 1
 415 175 l 1
 170 175 l 1x60
 120 55 l 1
 197 0 l 1
 -10 0 l 1xa0
290 471 m 1
 184 210 l 1
 399 210 l 1
 290 471 l 1
283 890 m 1
 403 890 l 1
 260 710 l 1
 283 890 l 1
EndSplineSet
EndChar

StartChar: Eacute
Encoding: 201 201 247
Width: 596
Flags: MW
HStem: 0 35<223 450 223 560> 320 35<223 337 223 338 223 337> 615 35<223 441 223 223> 870 20G<300 420 420 420>
VStem: 111 112<51 320 355 599 599 599>
LayerCount: 2
Fore
SplineSet
27 0 m 1
 111 51 l 1
 111 599 l 1
 27 650 l 1
 545 650 l 1
 545 430 l 1
 441 615 l 1
 223 615 l 1
 223 355 l 1
 337 355 l 1
 412 458 l 1
 412 218 l 1
 338 320 l 1
 223 320 l 1
 223 35 l 1
 450 35 l 1
 560 220 l 1
 560 0 l 1
 27 0 l 1
300 890 m 1
 420 890 l 1
 277 710 l 1
 300 890 l 1
EndSplineSet
EndChar

StartChar: Iacute
Encoding: 205 205 248
Width: 334
Flags: MW
HStem: 0 21G<27 307 27 27> 870 20G<150 270 270 270>
VStem: 111 112<51 599 51 599>
LayerCount: 2
Fore
SplineSet
307 650 m 1
 223 599 l 1
 223 51 l 1
 307 0 l 1
 27 0 l 1
 111 51 l 1
 111 599 l 1
 27 650 l 1
 307 650 l 1
150 890 m 1
 270 890 l 1
 127 710 l 1
 150 890 l 1
EndSplineSet
EndChar

StartChar: Oacute
Encoding: 211 211 249
Width: 669
Flags: MW
HStem: -10 32<275.5 394.5 275.5 423> 633 32<275.5 394.5> 870 20G<327 447 447 447>
VStem: 30 130<237.5 416.5 237.5 422> 510 129<237.5 416.5>
LayerCount: 2
Fore
SplineSet
30 327 m 0
 30 517 157 665 334 665 c 0
 512 665 639 517 639 327 c 0
 639 137 512 -10 334 -10 c 0
 157 -10 30 137 30 327 c 0
160 327 m 0
 160 148 216 22 335 22 c 0
 454 22 510 148 510 327 c 0
 510 506 454 633 335 633 c 0
 216 633 160 506 160 327 c 0
327 890 m 1
 447 890 l 1
 304 710 l 1
 327 890 l 1
EndSplineSet
EndChar

StartChar: Uacute
Encoding: 218 218 250
Width: 720
Flags: MW
HStem: -10 54<309 453 309 466.5> 650 240<24 484 467 467 467 484 364 696>
VStem: 108 112<191 599 263 599 263 599> 557 49<209 587 259 587 259 587>
LayerCount: 2
Fore
SplineSet
24 650 m 1
 108 599 l 1
 108 254 l 2
 108 128 160 -10 372 -10 c 0
 561 -10 606 143 606 259 c 2
 606 587 l 1
 696 650 l 1
 467 650 l 1
 557 587 l 1
 557 254 l 2
 557 164 525 44 381 44 c 0
 237 44 220 163 220 263 c 2
 220 599 l 1
 304 650 l 1
 24 650 l 1
364 890 m 1
 484 890 l 1
 341 710 l 1
 364 890 l 1
EndSplineSet
EndChar

StartChar: Yacute
Encoding: 221 221 251
Width: 682
Flags: MW
HStem: 0 21G<212 492 212 212> 870 20G<356 476 476 476>
VStem: 296 112<51 282 282 282>
LayerCount: 2
Fore
SplineSet
276 650 m 1
 211 608 l 1
 382 345 l 1
 534 597 l 1
 466 650 l 1
 675 650 l 1
 580 592 l 1
 408 303 l 1
 408 51 l 1
 492 0 l 1
 212 0 l 1
 296 51 l 1
 296 282 l 1
 89 602 l 1
 10 650 l 1
 276 650 l 1
356 890 m 1
 476 890 l 1
 333 710 l 1
 356 890 l 1
EndSplineSet
EndChar

StartChar: Thorn
Encoding: 222 222 252
Width: 570
Flags: MW
HStem: 0 140<223 274 274 307> 110 30<223 274 274 299 223 274> 520 30<223 299 223 274> 520 130<223 223 223 274>
VStem: 111 112<51 110 51 140 140 520 550 599> 423 123<265 395>
LayerCount: 2
Fore
SplineSet
307 650 m 1x9c
 223 599 l 1
 223 550 l 1
 299 550 l 2
 443 550 546 470 546 330 c 0
 546 190 443 110 299 110 c 2
 223 110 l 1x6c
 223 51 l 1
 307 0 l 1
 27 0 l 1
 111 51 l 1
 111 599 l 1
 27 650 l 1
 307 650 l 1x9c
223 520 m 1x9c
 223 140 l 1
 274 140 l 2
 358 140 423 200 423 330 c 0
 423 460 358 520 274 520 c 2
 223 520 l 1x9c
EndSplineSet
EndChar

StartChar: Agrave
Encoding: 192 192 253
Width: 663
Flags: MW
HStem: 0 210<-10 399 184 197 184 402 184 663> 175 35<184 399 184 415 170 399> 870 20G<221 341 341 341>
LayerCount: 2
Fore
SplineSet
-10 0 m 1xa0
 81 61 l 1
 329 665 l 1
 585 50 l 1
 663 0 l 1
 402 0 l 1
 469 45 l 1
 415 175 l 1
 170 175 l 1
 120 55 l 1
 197 0 l 1
 -10 0 l 1xa0
290 471 m 1
 184 210 l 1
 399 210 l 1x60
 290 471 l 1
221 890 m 1
 341 890 l 1
 364 710 l 1xa0
 221 890 l 1
EndSplineSet
EndChar

StartChar: Egrave
Encoding: 200 200 254
Width: 596
Flags: MW
HStem: 0 35<223 450 223 560> 320 35<223 337 223 338 223 337> 615 35<223 441 223 223> 650 240<208 328 208 545 208 545>
VStem: 111 112<51 320 355 599 599 599>
LayerCount: 2
Fore
SplineSet
27 0 m 1xd8
 111 51 l 1
 111 599 l 1
 27 650 l 1
 545 650 l 1
 545 430 l 1
 441 615 l 1
 223 615 l 1
 223 355 l 1
 337 355 l 1
 412 458 l 1xe8
 412 218 l 1
 338 320 l 1
 223 320 l 1
 223 35 l 1
 450 35 l 1
 560 220 l 1
 560 0 l 1
 27 0 l 1xd8
208 890 m 1
 328 890 l 1
 351 710 l 1
 208 890 l 1
EndSplineSet
EndChar

StartChar: Igrave
Encoding: 204 204 255
Width: 334
Flags: MW
HStem: 0 21G<27 307 27 27> 650 240<64 184 64 307 64 307>
VStem: 111 112<51 599 51 599>
LayerCount: 2
Fore
SplineSet
307 650 m 1
 223 599 l 1
 223 51 l 1
 307 0 l 1
 27 0 l 1
 111 51 l 1
 111 599 l 1
 27 650 l 1
 307 650 l 1
64 890 m 1
 184 890 l 1
 207 710 l 1
 64 890 l 1
EndSplineSet
EndChar

StartChar: Ograve
Encoding: 210 210 256
Width: 669
Flags: MW
HStem: -10 32<275.5 394.5 275.5 423> 633 32<275.5 394.5> 665 225<245.5 341 221 423>
VStem: 30 130<237.5 416.5 237.5 422> 510 129<237.5 416.5>
LayerCount: 2
Fore
SplineSet
30 327 m 0xb8
 30 517 157 665 334 665 c 0
 512 665 639 517 639 327 c 0
 639 137 512 -10 334 -10 c 0
 157 -10 30 137 30 327 c 0xb8
160 327 m 0
 160 148 216 22 335 22 c 0
 454 22 510 148 510 327 c 0
 510 506 454 633 335 633 c 0xd8
 216 633 160 506 160 327 c 0
221 890 m 1
 341 890 l 1
 364 710 l 1
 221 890 l 1
EndSplineSet
EndChar

StartChar: Ugrave
Encoding: 217 217 257
Width: 720
Flags: MW
HStem: -10 54<309 453 309 466.5> 870 20G<265 385 385 385>
VStem: 108 112<254 263 263 599> 557 49<254 259 259 587>
LayerCount: 2
Fore
SplineSet
108 599 m 1
 24 650 l 1
 304 650 l 1
 220 599 l 1
 220 263 l 2
 220 163 237 44 381 44 c 0
 525 44 557 164 557 254 c 2
 557 587 l 1
 467 650 l 1
 696 650 l 1
 606 587 l 1
 606 259 l 2
 606 143 561 -10 372 -10 c 0
 160 -10 108 128 108 254 c 2
 108 599 l 1
265 890 m 1
 385 890 l 1
 408 710 l 1
 265 890 l 1
EndSplineSet
EndChar

StartChar: Udieresis
Encoding: 220 220 258
Width: 720
Flags: MW
HStem: -10 54<309 453 309 466.5> 733 123<242 276.5 458 492>
VStem: 108 112<191 599 263 599 263 599> 321 93<777 811.5> 557 49<209 587 259 587 259 587>
LayerCount: 2
Fore
SplineSet
24 650 m 1
 108 599 l 1
 108 254 l 2
 108 128 160 -10 372 -10 c 0
 561 -10 606 143 606 259 c 2
 606 587 l 1
 696 650 l 1
 467 650 l 1
 557 587 l 1
 557 254 l 2
 557 164 525 44 381 44 c 0
 237 44 220 163 220 263 c 2
 220 599 l 1
 304 650 l 1
 24 650 l 1
198 794 m 0
 198 829 225 856 259 856 c 0
 294 856 321 829 321 794 c 0
 321 760 294 733 259 733 c 0
 225 733 198 760 198 794 c 0
414 794 m 0
 414 829 441 856 475 856 c 0
 510 856 537 829 537 794 c 0
 537 760 509 733 475 733 c 0
 441 733 414 760 414 794 c 0
EndSplineSet
EndChar

StartChar: Adieresis
Encoding: 196 196 259
Width: 663
Flags: MW
HStem: 0 210<-10 399 184 197 184 402 184 663> 175 35<184 399 184 415 170 399> 733 123<213 247.5 409 443>
VStem: 169 123<777 811.5> 365 123<777 811.5>
LayerCount: 2
Fore
SplineSet
-10 0 m 1xb8
 81 61 l 1
 329 665 l 1
 585 50 l 1
 663 0 l 1
 402 0 l 1xb8
 469 45 l 1
 415 175 l 1
 170 175 l 1x78
 120 55 l 1
 197 0 l 1
 -10 0 l 1xb8
290 471 m 1
 184 210 l 1
 399 210 l 1
 290 471 l 1
169 794 m 0
 169 829 196 856 230 856 c 0
 265 856 292 829 292 794 c 0
 292 760 265 733 230 733 c 0
 196 733 169 760 169 794 c 0
365 794 m 0
 365 829 392 856 426 856 c 0
 461 856 488 829 488 794 c 0
 488 760 460 733 426 733 c 0
 392 733 365 760 365 794 c 0
EndSplineSet
EndChar

StartChar: Aring
Encoding: 197 197 260
Width: 663
Flags: MW
HStem: 0 210<-10 399 184 197 184 402 184 663> 175 35<184 399 184 415 170 399> 701 34<316 342 316 352> 831 34<316 342>
VStem: 247 34<770 796 770 806> 376 35<770 796>
LayerCount: 2
Fore
SplineSet
-10 0 m 1xbc
 81 61 l 1
 329 665 l 1
 585 50 l 1
 663 0 l 1
 402 0 l 1xbc
 469 45 l 1
 415 175 l 1
 170 175 l 1x7c
 120 55 l 1
 197 0 l 1
 -10 0 l 1xbc
290 471 m 1
 184 210 l 1
 399 210 l 1
 290 471 l 1
247 783 m 0
 247 829 283 865 329 865 c 0
 375 865 411 829 411 783 c 0
 411 737 375 701 329 701 c 0
 283 701 247 737 247 783 c 0
281 783 m 0
 281 757 303 735 329 735 c 0
 355 735 376 757 376 783 c 0
 376 809 355 831 329 831 c 0
 303 831 281 809 281 783 c 0
EndSplineSet
EndChar

StartChar: Odieresis
Encoding: 214 214 261
Width: 669
Flags: MW
HStem: -10 32<275.5 394.5 275.5 423> 633 32<275.5 394.5> 733 123<209 242.5 424 458.5>
VStem: 30 130<237.5 416.5 237.5 422> 164 123<777 811.5> 380 123<777 811.5> 510 129<237.5 416.5>
LayerCount: 2
Fore
SplineSet
30 327 m 0
 30 517 157 665 334 665 c 0
 512 665 639 517 639 327 c 0
 639 137 512 -10 334 -10 c 0
 157 -10 30 137 30 327 c 0
160 327 m 0
 160 148 216 22 335 22 c 0
 454 22 510 148 510 327 c 0
 510 506 454 633 335 633 c 0
 216 633 160 506 160 327 c 0
164 794 m 0
 164 829 192 856 226 856 c 0
 260 856 287 829 287 794 c 0
 287 760 260 733 225 733 c 0
 192 733 164 760 164 794 c 0
380 794 m 0
 380 829 407 856 441 856 c 0
 476 856 503 829 503 794 c 0
 503 760 476 733 441 733 c 0
 407 733 380 760 380 794 c 0
EndSplineSet
EndChar

StartChar: Oslash
Encoding: 216 216 262
Width: 669
Flags: MW
HStem: -30 21G<159 159> -10 32<310.5 394.5 310.5 423> 633 32<275.5 359> 665 20G
VStem: 30 130<286 416.5 286 422> 510 129<237.5 368>
LayerCount: 2
Fore
SplineSet
510 685 m 1x5c
 545 665 l 1
 512 605 l 1
 591 545 639 444 639 327 c 0
 639 137 512 -10 334 -10 c 0x6c
 281 -10 232 3 190 26 c 1
 159 -30 l 1xac
 124 -10 l 1
 156 49 l 1
 78 108 30 209 30 327 c 0
 30 517 157 665 334 665 c 0
 387 665 436 652 478 627 c 1
 510 685 l 1x5c
160 327 m 0x5c
 160 245 173 175 198 123 c 1
 448 574 l 1
 420 612 383 633 335 633 c 0x6c
 216 633 160 506 160 327 c 0x5c
510 327 m 0
 510 409 497 480 472 533 c 1
 221 82 l 1
 248 44 286 22 335 22 c 0
 454 22 510 148 510 327 c 0
EndSplineSet
EndChar

StartChar: questiondown
Encoding: 191 191 263
Width: 454
Flags: MW
HStem: -212 27<224 273> 340 120<230 263>
VStem: 40 106<-91.5 20.5> 40 223 345 69<-115.5 -111.5>
LayerCount: 2
Fore
SplineSet
263 279 m 1xd8
 233 139 40 96 40 -55 c 0
 40 -153 118 -212 232 -212 c 0
 314 -212 414 -164 414 -67 c 0
 414 -16 384 4 356 4 c 0
 326 4 302 -20 306 -55 c 0
 311 -93 345 -99 345 -124 c 0
 345 -156 310 -185 256 -185 c 0
 192 -185 146 -133 146 -50 c 0xe8
 146 93 256 116 263 279 c 1xd8
306 400 m 0
 306 366 280 340 246 340 c 0
 212 340 186 366 186 400 c 0
 186 433 213 460 247 460 c 0
 280 460 306 433 306 400 c 0
EndSplineSet
EndChar

StartChar: Ocircumflex
Encoding: 212 212 264
Width: 669
Flags: MW
HStem: -10 32<275.5 394.5 275.5 423> 633 32<275.5 394.5> 845 20G<335 335>
VStem: 30 130<237.5 416.5 237.5 422> 510 129<237.5 416.5>
LayerCount: 2
Fore
SplineSet
30 327 m 0
 30 517 157 665 334 665 c 0
 512 665 639 517 639 327 c 0
 639 137 512 -10 334 -10 c 0
 157 -10 30 137 30 327 c 0
160 327 m 0
 160 148 216 22 335 22 c 0
 454 22 510 148 510 327 c 0
 510 506 454 633 335 633 c 0
 216 633 160 506 160 327 c 0
335 770 m 1
 166 700 l 1
 335 865 l 1
 504 700 l 1
 335 770 l 1
EndSplineSet
EndChar

StartChar: Acircumflex
Encoding: 194 194 265
Width: 663
Flags: MW
HStem: 0 210<-10 399 184 197 184 402 184 663> 175 35<184 399 184 415 170 399> 845 20G<329 329>
LayerCount: 2
Fore
SplineSet
-10 0 m 1xa0
 81 61 l 1
 329 665 l 1
 585 50 l 1
 663 0 l 1
 402 0 l 1
 469 45 l 1
 415 175 l 1
 170 175 l 1
 120 55 l 1
 197 0 l 1
 -10 0 l 1xa0
290 471 m 1
 184 210 l 1x60
 399 210 l 1
 290 471 l 1
329 770 m 1
 187 690 l 1
 329 865 l 1
 471 690 l 1xa0
 329 770 l 1
EndSplineSet
EndChar

StartChar: Icircumflex
Encoding: 206 206 266
Width: 334
Flags: MW
HStem: 0 21G<27 307 27 27> 845 20G<167 167>
VStem: 111 112<51 599 51 599>
LayerCount: 2
Fore
SplineSet
307 650 m 1
 223 599 l 1
 223 51 l 1
 307 0 l 1
 27 0 l 1
 111 51 l 1
 111 599 l 1
 27 650 l 1
 307 650 l 1
167 770 m 1
 25 693 l 1
 167 865 l 1
 309 693 l 1
 167 770 l 1
EndSplineSet
EndChar

StartChar: Ucircumflex
Encoding: 219 219 267
Width: 720
Flags: MW
HStem: -10 54<309 453 309 466.5> 845 20G<366 366>
VStem: 108 112<254 263 263 599> 557 49<254 259 259 587>
LayerCount: 2
Fore
SplineSet
108 599 m 1
 24 650 l 1
 304 650 l 1
 220 599 l 1
 220 263 l 2
 220 163 237 44 381 44 c 0
 525 44 557 164 557 254 c 2
 557 587 l 1
 467 650 l 1
 696 650 l 1
 606 587 l 1
 606 259 l 2
 606 143 561 -10 372 -10 c 0
 160 -10 108 128 108 254 c 2
 108 599 l 1
366 770 m 1
 197 700 l 1
 366 865 l 1
 535 700 l 1
 366 770 l 1
EndSplineSet
EndChar

StartChar: Ecircumflex
Encoding: 202 202 268
Width: 596
Flags: MW
HStem: 0 35<223 450 223 560> 320 35<223 337 223 338 223 337> 615 35<223 441 223 223> 845 20G<325 325>
VStem: 111 112<51 320 355 599 599 599>
LayerCount: 2
Fore
SplineSet
27 0 m 1
 111 51 l 1
 111 599 l 1
 27 650 l 1
 545 650 l 1
 545 430 l 1
 441 615 l 1
 223 615 l 1
 223 355 l 1
 337 355 l 1
 412 458 l 1
 412 218 l 1
 338 320 l 1
 223 320 l 1
 223 35 l 1
 450 35 l 1
 560 220 l 1
 560 0 l 1
 27 0 l 1
325 770 m 1
 156 700 l 1
 325 865 l 1
 494 700 l 1
 325 770 l 1
EndSplineSet
EndChar

StartChar: scaron
Encoding: 353 353 269
Width: 395
Flags: MW
HStem: -10 32<187.5 230.5 177 249.5> 428 32<161.5 207.5 143.5 213.5> 645 20G<70 70 314 314>
VStem: 40 63<338.5 366> 289 73<81.5 120>
LayerCount: 2
Fore
SplineSet
285 436 m 1
 337 460 l 1
 333 288 l 1
 295 394 242 428 185 428 c 0
 138 428 103 403 103 361 c 0
 103 316 128 309 178 289 c 2
 262 255 l 2
 339 225 362 181 362 125 c 0
 362 38 291 -10 208 -10 c 0
 167 -10 127 2 104 21 c 1
 42 -10 l 1
 42 164 l 1
 85 62 145 22 209 22 c 0
 252 22 289 44 289 88 c 0
 289 152 218 166 157 189 c 0
 80 217 40 250 40 325 c 0
 40 407 100 460 187 460 c 0
 228 460 269 447 285 436 c 1
192 601 m 1
 314 665 l 1
 192 517 l 1
 70 665 l 1
 192 601 l 1
EndSplineSet
EndChar

StartChar: zcaron
Encoding: 382 382 270
Width: 465
Flags: MW
HStem: 0 27<162 331 162 418> 423 27<143 297 143 143> 645 20G<107 107 351 351>
LayerCount: 2
Fore
SplineSet
331 27 m 1
 418 143 l 1
 418 0 l 1
 37 0 l 1
 297 423 l 1
 143 423 l 1
 57 307 l 1
 57 450 l 1
 422 450 l 1
 162 27 l 1
 331 27 l 1
229 601 m 1
 351 665 l 1
 229 517 l 1
 107 665 l 1
 229 601 l 1
EndSplineSet
EndChar

StartChar: Ydieresis
Encoding: 376 376 271
Width: 682
Flags: MW
HStem: 0 21G<212 492 212 212> 733 123<237 271 453 486.5>
VStem: 193 122<777 811.5> 296 112<51 282 282 282> 408 123<777 811.5>
LayerCount: 2
Fore
SplineSet
276 650 m 1xd0
 211 608 l 1
 382 345 l 1
 534 597 l 1
 466 650 l 1
 675 650 l 1
 580 592 l 1
 408 303 l 1
 408 51 l 1
 492 0 l 1
 212 0 l 1
 296 51 l 1
 296 282 l 1
 89 602 l 1
 10 650 l 1
 276 650 l 1xd0
193 794 m 0xe8
 193 829 220 856 254 856 c 0
 289 856 315 829 315 794 c 0
 315 760 288 733 254 733 c 0
 220 733 193 760 193 794 c 0xe8
408 794 m 0
 408 829 436 856 470 856 c 0
 504 856 531 829 531 794 c 0
 531 760 504 733 469 733 c 0
 436 733 408 760 408 794 c 0
EndSplineSet
EndChar

StartChar: Scaron
Encoding: 352 352 272
Width: 543
Flags: MW
HStem: -10 32<271.5 347 245 378.5> 633 32<227.5 290.5 210 310> 845 20G<134 134 412 412>
VStem: 62 60 442 71<128 165.5>
LayerCount: 2
Fore
SplineSet
471 665 m 1
 471 430 l 1
 423 560 359 633 261 633 c 0
 194 633 122 598 122 530 c 0
 122 479 162 454 219 430 c 2
 378 362 l 2
 445 334 513 287 513 173 c 0
 513 83 450 -10 307 -10 c 0
 236 -10 171 20 141 53 c 1
 62 -10 l 1
 62 249 l 1
 113 116 183 22 307 22 c 0
 387 22 442 64 442 132 c 0
 442 199 383 227 341 245 c 2
 184 313 l 2
 112 343 60 393 60 477 c 0
 60 608 160 665 260 665 c 0
 321 665 370 644 398 621 c 1
 471 665 l 1
273 804 m 1
 412 865 l 1
 273 710 l 1
 134 865 l 1
 273 804 l 1
EndSplineSet
EndChar

StartChar: Zcaron
Encoding: 381 381 273
Width: 582
Flags: MW
HStem: 0 35<178 432 178 542> 615 35<170 397 170 170> 845 20G<151 151 429 429>
LayerCount: 2
Fore
SplineSet
60 430 m 1
 60 650 l 1
 542 650 l 1
 178 35 l 1
 432 35 l 1
 542 220 l 1
 542 0 l 1
 34 0 l 1
 397 615 l 1
 170 615 l 1
 60 430 l 1
290 804 m 1
 429 865 l 1
 290 710 l 1
 151 865 l 1
 290 804 l 1
EndSplineSet
EndChar

StartChar: atilde
Encoding: 227 227 274
Width: 446
Flags: MW
HStem: -10 58<98 195.5> 48 249<71 195.5> 297 163<71 269> 431 29<182 230> 460 121<96 269> 654 20G
VStem: 23 96<105.5 132> 41 90<333.5 348> 272 95<53 61 93 265 265 265 294 311 53 355.5>
LayerCount: 2
Fore
SplineSet
367 311 m 2x4e80
 367 53 l 1
 441 83 l 1
 404 12 366 -10 330 -10 c 0
 295 -10 272 11 272 61 c 1
 211 17 l 2
 185 -2 162 -10 131 -10 c 0
 65 -10 23 35 23 102 c 0
 23 162 62 210 140 241 c 2
 272 294 l 1
 272 311 l 2
 272 400 255 431 205 431 c 0
 159 431 131 407 131 348 c 0
 131 316 112 297 85 297 c 0
 57 297 41 319 41 348 c 0
 42 413 132 460 214 460 c 0
 324 460 367 402 367 311 c 2x4e80
272 93 m 1
 272 265 l 1x9680
 207 238 l 2
 142 211 119 169 119 129 c 0
 119 82 140 48 183 48 c 0xa580
 208 48 235 63 272 93 c 1
64 514 m 1
 45 613 93 644 127 649 c 0
 161 655 181 646 215 628 c 0
 259 604 273 596 299 600 c 0xa580
 320 603 348 620 347 674 c 1
 369 576 324 538 281 531 c 0
 244 526 223 532 190 550 c 0
 153 569 133 581 105 581 c 0
 87 581 67 572 64 514 c 1
EndSplineSet
EndChar

StartChar: ntilde
Encoding: 241 241 275
Width: 554
Flags: MW
HStem: 0 21G<20 264 20 20 295 539 295 295> 400 60<305 324> 400 181<170 324> 654 20G
VStem: 94 96<41 337 41 367 367 383 383 383> 369 96<41 283 283 296 41 324>
LayerCount: 2
Fore
SplineSet
295 0 m 1xbc
 369 41 l 1
 369 283 l 2
 369 365 353 400 295 400 c 0
 258 400 217 374 190 337 c 1
 190 41 l 1
 264 0 l 1
 20 0 l 1
 94 41 l 1
 94 383 l 1
 20 405 l 1
 190 460 l 1
 190 367 l 1
 221 405 272 460 338 460 c 0
 437 460 465 395 465 296 c 2
 465 41 l 1
 539 0 l 1
 295 0 l 1xbc
138 514 m 1
 119 613 167 644 201 649 c 0
 235 655 255 646 289 628 c 0xdc
 333 604 347 596 373 600 c 0
 394 603 422 620 421 674 c 1
 443 576 398 538 355 531 c 0
 318 526 297 532 264 550 c 0
 227 569 207 581 179 581 c 0
 161 581 141 572 138 514 c 1
EndSplineSet
EndChar

StartChar: otilde
Encoding: 245 245 276
Width: 479
Flags: MW
HStem: -10 21G<174.5 298.5> 440 20G<179.5 303.5> 654 20G
LayerCount: 2
Fore
SplineSet
22 225 m 0
 22 361 120 460 239 460 c 0
 368 460 457 361 457 225 c 0
 457 89 358 -10 239 -10 c 0
 110 -10 22 89 22 225 c 0
133 210 m 0
 148 91 202 12 264 22 c 0
 336 33 361 121 346 240 c 0
 331 359 276 438 214 428 c 0
 142 420 118 329 133 210 c 0
96 514 m 1
 78 613 125 644 159 649 c 0
 194 655 214 646 248 628 c 0
 291 604 306 596 332 600 c 0
 353 603 380 620 380 674 c 1
 401 576 356 538 313 531 c 0
 277 526 256 532 222 550 c 0
 185 569 165 581 137 581 c 0
 119 581 100 572 96 514 c 1
EndSplineSet
EndChar

StartChar: Ntilde
Encoding: 209 209 277
Width: 712
Flags: MW
HStem: -20 20G<27 266 27 27> -15 21G<595 595> 865 20G
VStem: 117 49<63 523> 546 49<224 587 -15 587>
LayerCount: 2
Fore
SplineSet
166 63 m 1x78
 266 0 l 1
 27 0 l 1
 117 63 l 1
 117 578 l 1
 27 650 l 1
 209 650 l 1
 546 224 l 1
 546 587 l 1
 456 650 l 1
 685 650 l 1
 595 587 l 1
 595 -15 l 1
 166 523 l 1
 166 63 l 1x78
206 719 m 1
 188 818 235 854 272 860 c 0
 310 867 337 857 371 839 c 0
 414 814 439 807 465 811 c 0
 486 814 515 832 515 885 c 1
 537 787 492 743 446 736 c 0
 410 730 379 737 345 754 c 0
 308 774 278 786 250 786 c 0xb8
 232 786 210 777 206 719 c 1
EndSplineSet
EndChar

StartChar: Atilde
Encoding: 195 195 278
Width: 663
Flags: MW
HStem: 0 210<-10 399 184 197 184 402 184 663> 175 35<184 399 184 415 170 399> 865 20G
LayerCount: 2
Fore
SplineSet
-10 0 m 1xa0
 81 61 l 1
 329 665 l 1
 585 50 l 1
 663 0 l 1
 402 0 l 1
 469 45 l 1
 415 175 l 1
 170 175 l 1
 120 55 l 1
 197 0 l 1
 -10 0 l 1xa0
290 471 m 1
 184 210 l 1
 399 210 l 1
 290 471 l 1
181 719 m 1
 162 818 210 854 247 861 c 0
 284 868 311 857 345 839 c 0
 389 814 413 807 439 811 c 0
 460 814 489 832 490 885 c 1xa0
 512 787 467 743 421 736 c 0
 384 730 353 737 320 754 c 0
 283 774 253 786 225 786 c 0x60
 207 786 184 777 181 719 c 1
EndSplineSet
EndChar

StartChar: Otilde
Encoding: 213 213 279
Width: 669
Flags: MW
HStem: -10 32<275.5 394.5 275.5 423> 633 32<275.5 394.5> 633 153<214 394.5> 865 20G
VStem: 30 130<237.5 416.5 237.5 422> 510 129<237.5 416.5>
LayerCount: 2
Fore
SplineSet
30 327 m 0xbc
 30 517 157 665 334 665 c 0
 512 665 639 517 639 327 c 0
 639 137 512 -10 334 -10 c 0
 157 -10 30 137 30 327 c 0xbc
160 327 m 0
 160 148 216 22 335 22 c 0
 454 22 510 148 510 327 c 0
 510 506 454 633 335 633 c 0
 216 633 160 506 160 327 c 0
179 719 m 1
 161 818 208 854 245 860 c 0
 282 867 310 857 343 839 c 0
 387 814 412 807 438 811 c 0
 458 814 488 832 488 885 c 1
 510 787 465 743 419 736 c 0xdc
 382 730 352 737 318 754 c 0
 281 774 251 786 223 786 c 0
 205 786 183 777 179 719 c 1
EndSplineSet
EndChar

StartChar: multiply
Encoding: 215 215 280
Width: 530
Flags: MW
HStem: 165 21G<123 123 407 407> 475 20G<133 133 397 397>
LayerCount: 2
Fore
SplineSet
105 467 m 1
 133 495 l 1
 265 363 l 1
 397 495 l 1
 425 467 l 1
 293 335 l 1
 435 193 l 1
 407 165 l 1
 265 307 l 1
 123 165 l 1
 95 193 l 1
 237 335 l 1
 105 467 l 1
EndSplineSet
EndChar

StartChar: cent
Encoding: 162 162 281
Width: 444
Flags: MW
HStem: -150 21G<203 243 203 203> 297 163<243 362.5> 580 20G<203 243 243 243>
VStem: 22 221<162.5 285> 203 40<-150 -9 -150 -8 -150 -8 83 425 425 425 460 600> 203 209 302 96<337 351 335.5 372>
LayerCount: 2
Fore
SplineSet
203 600 m 1xea
 243 600 l 1
 243 460 l 1
 340 458 395 409 398 351 c 0
 398 320 377 297 348 297 c 0
 315 297 302 326 302 348 c 0
 302 396 279 427 243 430 c 1
 243 70 l 1xf2
 258 68 273 68 287 70 c 0
 334 78 384 116 412 182 c 1xe4
 404 72 337 -2 243 -9 c 1
 243 -150 l 1
 203 -150 l 1
 203 -8 l 1xea
 89 3 22 100 22 225 c 0xf2
 22 345 98 440 203 457 c 1
 203 600 l 1xea
120 209 m 0xea
 132 142 165 103 203 83 c 1
 203 425 l 1
 140 405 100 318 120 209 c 0xea
EndSplineSet
EndChar

StartChar: OE
Encoding: 338 338 282
Width: 881
Flags: MW
HStem: 0 35<246 416 349 416 528 735> 320 35<528 625 528 626 528 625> 615 35<340 349 349 416 528 726 528 528>
VStem: 30 129<236 418 236 423.5> 416 112<35 320 355 615>
LayerCount: 2
Fore
SplineSet
340 650 m 2
 830 650 l 1
 830 430 l 1
 726 615 l 1
 528 615 l 1
 528 355 l 1
 625 355 l 1
 700 458 l 1
 700 218 l 1
 626 320 l 1
 528 320 l 1
 528 35 l 1
 735 35 l 1
 845 220 l 1
 845 0 l 1
 340 0 l 2
 152 0 30 134 30 327 c 0
 30 520 152 650 340 650 c 2
416 615 m 1
 349 615 l 2
 223 615 159 509 159 327 c 0
 159 145 223 35 349 35 c 2
 416 35 l 1
 416 615 l 1
EndSplineSet
EndChar

StartChar: oe
Encoding: 339 339 283
Width: 790
Flags: MW
HStem: -10 21G<174.5 273.5 534 623.5> 261 25 261 199
VStem: 659 97
LayerCount: 2
Fore
SplineSet
22 225 m 0xd0
 22 361 120 460 239 460 c 0
 314 460 373 427 412 374 c 1
 448 426 505 460 574 460 c 0xb0
 703 460 758 389 757 271 c 1
 458 252 l 1
 459 238 459 224 462 209 c 0
 484 95 566 60 631 70 c 0
 680 77 728 112 756 182 c 1
 751 67 676 -10 571 -10 c 0
 497 -10 441 23 407 75 c 1
 367 23 308 -10 239 -10 c 0
 110 -10 22 89 22 225 c 0xd0
133 210 m 0
 148 91 202 12 264 22 c 0
 336 33 361 121 346 240 c 0
 331 359 276 438 214 428 c 0
 142 420 118 329 133 210 c 0
659 293 m 1
 659 398 615 437 556 430 c 0
 500 422 462 362 458 279 c 1
 659 293 l 1
EndSplineSet
EndChar

StartChar: Eth
Encoding: 208 208 284
Width: 669
Flags: MW
HStem: 0 35<233 320 320 329> 310 32<-20 121 -20 121 233 370> 615 35<233 320 233 233>
VStem: 121 112<51 310 35 310 342 599 599 599> 510 129<236 418>
LayerCount: 2
Fore
SplineSet
-20 310 m 1
 -20 342 l 1
 121 342 l 1
 121 599 l 1
 37 650 l 1
 329 650 l 2
 517 650 639 520 639 327 c 0
 639 134 517 0 329 0 c 2
 37 0 l 1
 121 51 l 1
 121 310 l 1
 -20 310 l 1
320 615 m 2
 233 615 l 1
 233 342 l 1
 370 342 l 1
 370 310 l 1
 233 310 l 1
 233 35 l 1
 320 35 l 2
 446 35 510 145 510 327 c 0
 510 509 446 615 320 615 c 2
EndSplineSet
EndChar

StartChar: Ccedilla
Encoding: 199 199 285
Width: 620
Flags: MW
HStem: -220 61<265.5 329.5> -97 41<286.5 333.5> -9 64 632 33<287.5 366 242 404.5>
VStem: 30 128<251.5 417.5 251.5 422> 253 131<-192.5 -114>
LayerCount: 2
Fore
SplineSet
346 -134 m 0
 340 -105 315 -97 297 -97 c 0
 276 -97 259 -102 249 -107 c 1
 319 -9 l 1
 145 0 30 143 30 327 c 0
 30 517 150 665 334 665 c 0
 398 665 438 652 479 620 c 1
 506 635 532 650 559 665 c 1
 559 420 l 1
 512 542 458 632 351 632 c 0
 224 632 158 505 158 330 c 0
 158 173 239 63 358 55 c 0
 375 53 391 54 408 56 c 0
 492 68 550 134 573 227 c 1
 563 89 473 -5 347 -10 c 1
 334 -25 322 -41 311 -56 c 1
 356 -56 384 -90 384 -138 c 0
 384 -185 351 -220 308 -220 c 0
 273 -220 253 -203 253 -182 c 0
 253 -171 259 -159 272 -159 c 0
 305 -159 279 -207 316 -201 c 0
 338 -198 353 -171 346 -134 c 0
EndSplineSet
EndChar

StartChar: ccedilla
Encoding: 231 231 286
Width: 444
Flags: MW
HStem: -220 61<166.5 230.5> -97 41<186.5 234> 297 163<177.5 362.5>
VStem: 302 96<337 351 335.5 377>
LayerCount: 2
Fore
SplineSet
246 -134 m 0
 240 -105 215 -97 197 -97 c 0
 176 -97 160 -102 149 -107 c 1
 217 -10 l 1
 95 -4 22 95 22 225 c 0
 22 358 117 460 238 460 c 0
 338 460 395 410 398 351 c 0
 398 320 377 297 348 297 c 0
 315 297 302 326 302 348 c 0
 302 406 271 438 220 430 c 0
 148 420 98 328 120 209 c 0
 142 92 225 60 287 70 c 0
 334 78 384 116 412 182 c 1
 404 73 338 -1 245 -9 c 1
 211 -56 l 1
 257 -56 285 -90 285 -138 c 0
 285 -185 252 -220 209 -220 c 0
 174 -220 154 -203 153 -182 c 0
 153 -171 160 -159 173 -159 c 0
 205 -159 180 -207 216 -201 c 0
 238 -198 253 -171 246 -134 c 0
EndSplineSet
EndChar

StartChar: ohungarumlaut
Encoding: 337 337 287
Width: 479
Flags: MW
HStem: -10 21G<174.5 298.5> 460 190<179.5 269 161 303.5>
LayerCount: 2
Fore
SplineSet
22 225 m 0
 22 361 120 460 239 460 c 0
 368 460 457 361 457 225 c 0
 457 89 358 -10 239 -10 c 0
 110 -10 22 89 22 225 c 0
133 210 m 0
 148 91 202 12 264 22 c 0
 336 33 361 121 346 240 c 0
 331 359 276 438 214 428 c 0
 142 420 118 329 133 210 c 0
161 650 m 1
 269 650 l 1
 133 500 l 1
 161 650 l 1
307 650 m 1
 415 650 l 1
 279 500 l 1
 307 650 l 1
EndSplineSet
EndChar

StartChar: Dcroat
Encoding: 272 272 288
Width: 669
Flags: MW
HStem: 0 35<233 320 320 329> 310 32<-20 121 -20 121 233 370> 615 35<233 320 233 233>
VStem: 121 112<51 310 35 310 342 599 599 599> 510 129<236 418>
LayerCount: 2
Fore
SplineSet
-20 310 m 1
 -20 342 l 1
 121 342 l 1
 121 599 l 1
 37 650 l 1
 329 650 l 2
 517 650 639 520 639 327 c 0
 639 134 517 0 329 0 c 2
 37 0 l 1
 121 51 l 1
 121 310 l 1
 -20 310 l 1
320 615 m 2
 233 615 l 1
 233 342 l 1
 370 342 l 1
 370 310 l 1
 233 310 l 1
 233 35 l 1
 320 35 l 2
 446 35 510 145 510 327 c 0
 510 509 446 615 320 615 c 2
EndSplineSet
EndChar

StartChar: nacute
Encoding: 324 324 289
Width: 554
Flags: MW
HStem: 0 21G<20 264 20 20 295 539 295 295> 400 60<305 324> 460 190<190 365 305 365 257 387.5>
VStem: 94 96<41 337 41 367 367 383 383 383> 369 96<41 283 283 296 41 324>
LayerCount: 2
Fore
SplineSet
295 0 m 1xb8
 369 41 l 1
 369 283 l 2
 369 365 353 400 295 400 c 0
 258 400 217 374 190 337 c 1
 190 41 l 1
 264 0 l 1
 20 0 l 1
 94 41 l 1
 94 383 l 1
 20 405 l 1
 190 460 l 1
 190 367 l 1xd8
 221 405 272 460 338 460 c 0
 437 460 465 395 465 296 c 2
 465 41 l 1
 539 0 l 1
 295 0 l 1xb8
257 650 m 1
 365 650 l 1
 229 500 l 1
 257 650 l 1
EndSplineSet
EndChar

StartChar: racute
Encoding: 341 341 290
Width: 433
Flags: MW
HStem: 0 21G<20 264 20 20> 346 114<324.5 337.5> 630 20G<187 295 295 295>
VStem: 94 96<44 349 380 383 383 383>
LayerCount: 2
Fore
SplineSet
190 44 m 1
 264 0 l 1
 20 0 l 1
 94 44 l 1
 94 383 l 1
 20 405 l 1
 190 460 l 1
 190 380 l 1
 218 410 l 2
 243 437 269 460 311 460 c 0
 364 460 387 435 388 402 c 0
 389 371 371 346 339 346 c 0
 310 346 298 364 293 384 c 0
 288 403 278 413 263 413 c 0
 253 413 242 406 231 395 c 2
 190 349 l 1
 190 44 l 1
187 650 m 1
 295 650 l 1
 159 500 l 1
 187 650 l 1
EndSplineSet
EndChar

StartChar: cacute
Encoding: 263 263 291
Width: 444
Flags: MW
HStem: -10 21G<163.5 279> 297 163<177.5 362.5> 460 190<207 288>
VStem: 302 96<337 351 335.5 377>
LayerCount: 2
Fore
SplineSet
120 209 m 0xb0
 142 92 225 60 287 70 c 0
 334 78 384 116 412 182 c 1
 404 67 330 -10 228 -10 c 0
 99 -10 22 92 22 225 c 0
 22 358 117 460 238 460 c 0
 338 460 395 410 398 351 c 0
 398 320 377 297 348 297 c 0
 315 297 302 326 302 348 c 0
 302 406 271 438 220 430 c 0
 148 420 98 328 120 209 c 0xb0
207 650 m 1
 315 650 l 1
 179 500 l 1
 207 650 l 1
EndSplineSet
EndChar

StartChar: uhungarumlaut
Encoding: 369 369 292
Width: 545
Flags: MW
HStem: -10 60<214.5 236.5> 630 20G<177 285 285 285 323 431 431 431>
VStem: 77 96<154 167 167 393 393 393> 352 96<67 83 83 83 113 393 393 393>
LayerCount: 2
Fore
SplineSet
3 416 m 1
 173 460 l 1
 173 167 l 2
 173 85 186 50 243 50 c 0
 281 50 325 76 352 113 c 1
 352 393 l 1
 278 416 l 1
 448 460 l 1
 448 67 l 1
 522 45 l 1
 352 -10 l 1
 352 83 l 1
 321 45 269 -10 204 -10 c 0
 105 -10 77 55 77 154 c 2
 77 393 l 1
 3 416 l 1
177 650 m 1
 285 650 l 1
 149 500 l 1
 177 650 l 1
323 650 m 1
 431 650 l 1
 295 500 l 1
 323 650 l 1
EndSplineSet
EndChar

StartChar: uring
Encoding: 367 367 293
Width: 545
Flags: MW
HStem: -10 60<214.5 236.5> 501 34<247 272.5 247 283> 631 34<247 272.5>
VStem: 77 96<154 167 167 393 393 393> 178 34<570 596 570 606> 307 35<570 596> 352 96<67 83 83 83 113 393 393 393>
LayerCount: 2
Fore
SplineSet
3 416 m 1
 173 460 l 1
 173 167 l 2
 173 85 186 50 243 50 c 0
 281 50 325 76 352 113 c 1
 352 393 l 1
 278 416 l 1
 448 460 l 1
 448 67 l 1
 522 45 l 1
 352 -10 l 1
 352 83 l 1
 321 45 269 -10 204 -10 c 0
 105 -10 77 55 77 154 c 2
 77 393 l 1
 3 416 l 1
178 583 m 0
 178 629 214 665 260 665 c 0
 306 665 342 629 342 583 c 0
 342 537 306 501 260 501 c 0
 214 501 178 537 178 583 c 0
212 583 m 0
 212 557 234 535 260 535 c 0
 285 535 307 557 307 583 c 0
 307 609 285 631 260 631 c 0
 234 631 212 609 212 583 c 0
EndSplineSet
EndChar

StartChar: rcaron
Encoding: 345 345 294
Width: 433
Flags: MW
HStem: 0 21G<20 264 20 20> 346 114<324.5 337.5> 645 20G<90 90 334 334>
VStem: 94 96<44 349 380 383 383 383>
LayerCount: 2
Fore
SplineSet
190 44 m 1
 264 0 l 1
 20 0 l 1
 94 44 l 1
 94 383 l 1
 20 405 l 1
 190 460 l 1
 190 380 l 1
 218 410 l 2
 243 437 269 460 311 460 c 0
 364 460 387 435 388 402 c 0
 389 371 371 346 339 346 c 0
 310 346 298 364 293 384 c 0
 288 403 278 413 263 413 c 0
 253 413 242 406 231 395 c 2
 190 349 l 1
 190 44 l 1
212 601 m 1
 334 665 l 1
 212 517 l 1
 90 665 l 1
 212 601 l 1
EndSplineSet
EndChar

StartChar: ncaron
Encoding: 328 328 295
Width: 554
Flags: MW
HStem: 0 21G<20 264 20 20 295 539 295 295> 400 60<305 324> 645 20G<150 150 394 394>
VStem: 94 96<41 337 41 367 367 383 383 383> 369 96<41 283 283 296 41 324>
LayerCount: 2
Fore
SplineSet
295 0 m 1
 369 41 l 1
 369 283 l 2
 369 365 353 400 295 400 c 0
 258 400 217 374 190 337 c 1
 190 41 l 1
 264 0 l 1
 20 0 l 1
 94 41 l 1
 94 383 l 1
 20 405 l 1
 190 460 l 1
 190 367 l 1
 221 405 272 460 338 460 c 0
 437 460 465 395 465 296 c 2
 465 41 l 1
 539 0 l 1
 295 0 l 1
272 601 m 1
 394 665 l 1
 272 517 l 1
 150 665 l 1
 272 601 l 1
EndSplineSet
EndChar

StartChar: ecaron
Encoding: 283 283 296
Width: 446
Flags: MW
HStem: -10 21G<162 280.5> 261 25 261 199 645 20G<100 100 344 344>
VStem: 22 93<245 252 245 279 245 290> 316 98<293 330 271 345.5>
LayerCount: 2
Fore
SplineSet
414 271 m 1xdc
 115 252 l 1
 115 238 116 224 119 209 c 0
 141 95 222 60 287 70 c 0
 336 77 385 112 413 182 c 1
 408 67 333 -10 228 -10 c 0
 96 -10 22 95 22 225 c 0
 22 355 109 460 231 460 c 0
 360 460 414 389 414 271 c 1xdc
316 293 m 1
 316 398 272 437 213 430 c 0
 157 422 118 362 115 279 c 1
 316 293 l 1
222 601 m 1
 344 665 l 1
 222 517 l 1
 100 665 l 1xbc
 222 601 l 1
EndSplineSet
EndChar

StartChar: ccaron
Encoding: 269 269 297
Width: 444
Flags: MW
HStem: -10 21G<163.5 279> 297 163<177.5 362.5> 645 20G<101 101 345 345>
VStem: 302 96<337 351 335.5 377>
LayerCount: 2
Fore
SplineSet
120 209 m 0
 142 92 225 60 287 70 c 0
 334 78 384 116 412 182 c 1
 404 67 330 -10 228 -10 c 0
 99 -10 22 92 22 225 c 0
 22 358 117 460 238 460 c 0
 338 460 395 410 398 351 c 0
 398 320 377 297 348 297 c 0
 315 297 302 326 302 348 c 0
 302 406 271 438 220 430 c 0
 148 420 98 328 120 209 c 0
223 601 m 1
 345 665 l 1
 223 517 l 1
 101 665 l 1
 223 601 l 1
EndSplineSet
EndChar

StartChar: lacute
Encoding: 314 314 298
Width: 277
Flags: MW
HStem: 0 21G<13 13 13 257> 830 20G<120 228 228 228>
VStem: 87 96<45 588 588 588>
LayerCount: 2
Fore
SplineSet
13 0 m 1
 87 45 l 1
 87 588 l 1
 13 610 l 1
 183 665 l 1
 183 45 l 1
 257 0 l 1
 13 0 l 1
120 850 m 1
 228 850 l 1
 92 700 l 1
 120 850 l 1
EndSplineSet
EndChar

StartChar: Uhungarumlaut
Encoding: 368 368 299
Width: 720
Flags: MW
HStem: -10 54<309 453 309 466.5> 650 240<265 304 467 467 467 571 265 696>
VStem: 108 112<191 599 263 599 263 599> 557 49<209 587 259 587 259 587>
LayerCount: 2
Fore
SplineSet
24 650 m 1
 108 599 l 1
 108 254 l 2
 108 128 160 -10 372 -10 c 0
 561 -10 606 143 606 259 c 2
 606 587 l 1
 696 650 l 1
 467 650 l 1
 557 587 l 1
 557 254 l 2
 557 164 525 44 381 44 c 0
 237 44 220 163 220 263 c 2
 220 599 l 1
 304 650 l 1
 24 650 l 1
265 890 m 1
 385 890 l 1
 242 710 l 1
 265 890 l 1
451 890 m 1
 571 890 l 1
 428 710 l 1
 451 890 l 1
EndSplineSet
EndChar

StartChar: Uring
Encoding: 366 366 300
Width: 720
Flags: MW
HStem: -10 54<309 453 309 466.5> 701 34<357 383 357 393> 735 96<357 383> 831 34<357 383>
VStem: 108 112<191 599 263 599 263 599> 322 96<770 796> 557 49<209 587 259 587 259 587>
LayerCount: 2
Fore
SplineSet
24 650 m 1
 108 599 l 1
 108 254 l 2
 108 128 160 -10 372 -10 c 0
 561 -10 606 143 606 259 c 2
 606 587 l 1
 696 650 l 1
 467 650 l 1
 557 587 l 1
 557 254 l 2
 557 164 525 44 381 44 c 0
 237 44 220 163 220 263 c 2
 220 599 l 1
 304 650 l 1
 24 650 l 1
288 783 m 0
 288 829 324 865 370 865 c 0
 416 865 452 829 452 783 c 0
 452 737 416 701 370 701 c 0
 324 701 288 737 288 783 c 0
322 783 m 0
 322 757 344 735 370 735 c 0
 396 735 418 757 418 783 c 0
 418 809 396 831 370 831 c 0
 344 831 322 809 322 783 c 0
EndSplineSet
EndChar

StartChar: Rcaron
Encoding: 344 344 301
Width: 663
Flags: MW
HStem: 0 21G<27 307 27 27 478 666 478 478> 296 35<223 262 223 310> 615 35<223 223 223 307> 845 20G<186 186 464 464>
VStem: 111 112<51 296 51 331 331 599 599 599> 443 122<430.5 530.5>
LayerCount: 2
Fore
SplineSet
27 650 m 1
 326 650 l 2
 459 650 565 608 565 478 c 0
 565 381 496 316 379 305 c 1
 449 294 488 257 519 192 c 2
 583 53 l 1
 666 0 l 1
 478 0 l 1
 389 210 l 2
 362 269 319 296 262 296 c 2
 223 296 l 1
 223 51 l 1
 307 0 l 1
 27 0 l 1
 111 51 l 1
 111 599 l 1
 27 650 l 1
223 615 m 1
 223 331 l 1
 310 331 l 2
 385 331 443 383 443 478 c 0
 443 583 377 615 307 615 c 2
 223 615 l 1
325 804 m 1
 464 865 l 1
 325 710 l 1
 186 865 l 1
 325 804 l 1
EndSplineSet
EndChar

StartChar: Ohungarumlaut
Encoding: 336 336 302
Width: 669
Flags: MW
HStem: -10 32<275.5 394.5 275.5 423> 633 32<275.5 394.5> 870 20G<219 339 339 339 412 532 532 532>
VStem: 30 130<237.5 416.5 237.5 422> 510 129<237.5 416.5>
LayerCount: 2
Fore
SplineSet
30 327 m 0
 30 517 157 665 334 665 c 0
 512 665 639 517 639 327 c 0
 639 137 512 -10 334 -10 c 0
 157 -10 30 137 30 327 c 0
160 327 m 0
 160 148 216 22 335 22 c 0
 454 22 510 148 510 327 c 0
 510 506 454 633 335 633 c 0
 216 633 160 506 160 327 c 0
219 890 m 1
 339 890 l 1
 196 710 l 1
 219 890 l 1
412 890 m 1
 532 890 l 1
 389 710 l 1
 412 890 l 1
EndSplineSet
EndChar

StartChar: Ncaron
Encoding: 327 327 303
Width: 712
Flags: MW
HStem: -20 20G<27 266 27 27> -15 21G<595 595> 845 20G<216 216 494 494>
VStem: 117 49<63 523> 546 49<224 587 -15 587>
LayerCount: 2
Fore
SplineSet
166 63 m 1x78
 266 0 l 1
 27 0 l 1
 117 63 l 1
 117 578 l 1
 27 650 l 1
 209 650 l 1
 546 224 l 1
 546 587 l 1
 456 650 l 1
 685 650 l 1
 595 587 l 1
 595 -15 l 1
 166 523 l 1
 166 63 l 1x78
355 804 m 1
 494 865 l 1
 355 710 l 1
 216 865 l 1xb8
 355 804 l 1
EndSplineSet
EndChar

StartChar: Nacute
Encoding: 323 323 304
Width: 712
Flags: MW
HStem: -20 20G<27 266 266 266> -15 21G<595 595> 650 240<27 470 456 470 350 685 456 456>
VStem: 117 49<63 523 63 578 63 523> 546 49<224 587 224 224>
LayerCount: 2
Fore
SplineSet
266 0 m 1xb8
 166 63 l 1
 166 523 l 1
 595 -15 l 1x78
 595 587 l 1
 685 650 l 1
 456 650 l 1
 546 587 l 1
 546 224 l 1
 209 650 l 1
 27 650 l 1
 117 578 l 1
 117 63 l 1
 27 0 l 1
 266 0 l 1xb8
350 890 m 1xb8
 470 890 l 1
 327 710 l 1
 350 890 l 1xb8
EndSplineSet
EndChar

StartChar: Dcaron
Encoding: 270 270 305
Width: 659
Flags: MW
HStem: 0 35<223 310 310 319> 615 35<223 310 223 223> 845 20G<184 184 462 462>
VStem: 111 112<51 599 599 599> 500 129<236 418>
LayerCount: 2
Fore
SplineSet
27 650 m 1
 319 650 l 2
 507 650 629 520 629 327 c 0
 629 134 507 0 319 0 c 2
 27 0 l 1
 111 51 l 1
 111 599 l 1
 27 650 l 1
310 615 m 2
 223 615 l 1
 223 35 l 1
 310 35 l 2
 436 35 500 145 500 327 c 0
 500 509 436 615 310 615 c 2
323 804 m 1
 462 865 l 1
 323 710 l 1
 184 865 l 1
 323 804 l 1
EndSplineSet
EndChar

StartChar: Ecaron
Encoding: 282 282 306
Width: 596
Flags: MW
HStem: 0 35<223 450 223 560> 320 35<223 337 223 338 223 337> 615 35<223 441 223 223> 845 20G<184 184 462 462>
VStem: 111 112<51 320 355 599 599 599>
LayerCount: 2
Fore
SplineSet
27 0 m 1
 111 51 l 1
 111 599 l 1
 27 650 l 1
 545 650 l 1
 545 430 l 1
 441 615 l 1
 223 615 l 1
 223 355 l 1
 337 355 l 1
 412 458 l 1
 412 218 l 1
 338 320 l 1
 223 320 l 1
 223 35 l 1
 450 35 l 1
 560 220 l 1
 560 0 l 1
 27 0 l 1
323 804 m 1
 462 865 l 1
 323 710 l 1
 184 865 l 1
 323 804 l 1
EndSplineSet
EndChar

StartChar: Ccaron
Encoding: 268 268 307
Width: 620
Flags: MW
HStem: -10 63<308.5 402.5> 632 33<287.5 366 242 404.5> 845 20G<197 197 475 475>
VStem: 30 128<248 417.5 248 422>
LayerCount: 2
Fore
SplineSet
559 665 m 1
 559 420 l 1
 512 542 458 632 351 632 c 0
 224 632 158 505 158 330 c 0
 158 166 244 53 373 53 c 0
 476 53 547 121 573 227 c 1
 563 85 468 -10 337 -10 c 0
 153 -10 30 137 30 327 c 0
 30 517 150 665 334 665 c 0
 398 665 438 652 479 620 c 1
 559 665 l 1
336 804 m 1
 475 865 l 1
 336 710 l 1
 197 865 l 1
 336 804 l 1
EndSplineSet
EndChar

StartChar: Cacute
Encoding: 262 262 308
Width: 620
Flags: MW
HStem: -10 63<308.5 402.5> 632 33<287.5 366 242 404.5> 870 20G<300 420 420 420>
VStem: 30 128<248 417.5 248 422>
LayerCount: 2
Fore
SplineSet
559 665 m 1
 559 420 l 1
 512 542 458 632 351 632 c 0
 224 632 158 505 158 330 c 0
 158 166 244 53 373 53 c 0
 476 53 547 121 573 227 c 1
 563 85 468 -10 337 -10 c 0
 153 -10 30 137 30 327 c 0
 30 517 150 665 334 665 c 0
 398 665 438 652 479 620 c 1
 559 665 l 1
300 890 m 1
 420 890 l 1
 277 710 l 1
 300 890 l 1
EndSplineSet
EndChar

StartChar: Lacute
Encoding: 313 313 309
Width: 603
Flags: MW
HStem: 0 35<223 460 223 570> 650 240<223 327 27 343>
VStem: 111 112<51 589 35 599 51 51>
LayerCount: 2
Fore
SplineSet
570 0 m 1
 570 220 l 1
 460 35 l 1
 223 35 l 1
 223 589 l 1
 327 650 l 1
 27 650 l 1
 111 599 l 1
 111 51 l 1
 27 0 l 1
 570 0 l 1
223 890 m 1
 343 890 l 1
 200 710 l 1
 223 890 l 1
EndSplineSet
EndChar

StartChar: Racute
Encoding: 340 340 310
Width: 663
Flags: MW
HStem: 0 21G<27 307 27 27 478 666 478 478> 296 35<223 262 223 310> 615 35<223 223 223 307> 870 20G<310 430 430 430>
VStem: 111 112<51 296 51 331 331 599 599 599> 443 122<430.5 530.5>
LayerCount: 2
Fore
SplineSet
27 650 m 1
 326 650 l 2
 459 650 565 608 565 478 c 0
 565 381 496 316 379 305 c 1
 449 294 488 257 519 192 c 2
 583 53 l 1
 666 0 l 1
 478 0 l 1
 389 210 l 2
 362 269 319 296 262 296 c 2
 223 296 l 1
 223 51 l 1
 307 0 l 1
 27 0 l 1
 111 51 l 1
 111 599 l 1
 27 650 l 1
223 615 m 1
 223 331 l 1
 310 331 l 2
 385 331 443 383 443 478 c 0
 443 583 377 615 307 615 c 2
 223 615 l 1
310 890 m 1
 430 890 l 1
 287 710 l 1
 310 890 l 1
EndSplineSet
EndChar

StartChar: Lcaron
Encoding: 317 317 311
Width: 603
Flags: MW
HStem: 0 35<223 460 223 570> 845 20G<39 39 317 317>
VStem: 111 112<51 589 35 599 35 599>
LayerCount: 2
Fore
SplineSet
570 220 m 1
 570 0 l 1
 27 0 l 1
 111 51 l 1
 111 599 l 1
 27 650 l 1
 327 650 l 1
 223 589 l 1
 223 35 l 1
 460 35 l 1
 570 220 l 1
178 804 m 1
 317 865 l 1
 178 710 l 1
 39 865 l 1
 178 804 l 1
EndSplineSet
EndChar

StartChar: zdotaccent
Encoding: 380 380 312
Width: 465
Flags: MW
HStem: 0 27<162 331 162 418> 423 27<143 297 297 297> 545 120<209.5 243>
LayerCount: 2
Fore
SplineSet
418 143 m 1
 331 27 l 1
 162 27 l 1
 422 450 l 1
 57 450 l 1
 57 307 l 1
 143 423 l 1
 297 423 l 1
 37 0 l 1
 418 0 l 1
 418 143 l 1
166 604 m 0
 166 638 193 665 226 665 c 0
 260 665 286 638 286 604 c 0
 286 571 260 545 226 545 c 0
 193 545 166 571 166 604 c 0
EndSplineSet
EndChar

StartChar: Zdotaccent
Encoding: 379 379 313
Width: 582
Flags: MW
HStem: 0 35<178 432 178 542> 615 35<170 397 170 170> 720 120<270 303>
LayerCount: 2
Fore
SplineSet
60 430 m 1
 60 650 l 1
 542 650 l 1
 178 35 l 1
 432 35 l 1
 542 220 l 1
 542 0 l 1
 34 0 l 1
 397 615 l 1
 170 615 l 1
 60 430 l 1
227 779 m 0
 227 813 253 840 287 840 c 0
 321 840 347 813 347 779 c 0
 347 746 320 720 286 720 c 0
 253 720 227 746 227 779 c 0
EndSplineSet
EndChar

StartChar: Zacute
Encoding: 377 377 314
Width: 582
Flags: MW
HStem: 0 35<178 432 178 542> 615 35<170 397 170 170> 870 20G<277 397 397 397>
LayerCount: 2
Fore
SplineSet
60 430 m 1
 60 650 l 1
 542 650 l 1
 178 35 l 1
 432 35 l 1
 542 220 l 1
 542 0 l 1
 34 0 l 1
 397 615 l 1
 170 615 l 1
 60 430 l 1
277 890 m 1
 397 890 l 1
 254 710 l 1
 277 890 l 1
EndSplineSet
EndChar

StartChar: Tcaron
Encoding: 356 356 315
Width: 637
Flags: MW
HStem: 0 21G<162 482 162 162> 615 35<140 266 140 140 378 504 378 378> 845 20G<184 184 462 462>
VStem: 266 112<61 615 61 615>
LayerCount: 2
Fore
SplineSet
614 650 m 1
 614 430 l 1
 504 615 l 1
 378 615 l 1
 378 61 l 1
 482 0 l 1
 162 0 l 1
 266 61 l 1
 266 615 l 1
 140 615 l 1
 30 430 l 1
 30 650 l 1
 614 650 l 1
323 804 m 1
 462 865 l 1
 323 710 l 1
 184 865 l 1
 323 804 l 1
EndSplineSet
EndChar

StartChar: Sacute
Encoding: 346 346 316
Width: 543
Flags: MW
HStem: -10 32<271.5 347 245 378.5> 633 32<227.5 290.5 210 310> 870 20G<253 373 373 373>
VStem: 60 62<504.5 542.5> 442 71<128 165.5>
LayerCount: 2
Fore
SplineSet
471 665 m 1
 471 430 l 1
 423 560 359 633 261 633 c 0
 194 633 122 598 122 530 c 0
 122 479 162 454 219 430 c 2
 378 362 l 2
 445 334 513 287 513 173 c 0
 513 83 450 -10 307 -10 c 0
 236 -10 171 20 141 53 c 1
 62 -10 l 1
 62 249 l 1
 113 116 183 22 307 22 c 0
 387 22 442 64 442 132 c 0
 442 199 383 227 341 245 c 2
 184 313 l 2
 112 343 60 393 60 477 c 0
 60 608 160 665 260 665 c 0
 321 665 370 644 398 621 c 1
 471 665 l 1
253 890 m 1
 373 890 l 1
 230 710 l 1
 253 890 l 1
EndSplineSet
EndChar

StartChar: sacute
Encoding: 347 347 317
Width: 395
Flags: MW
HStem: -10 32<187.5 230.5 177 249.5> 428 32<161.5 207.5 143.5 213.5> 428 222<177 213.5>
VStem: 40 63<338.5 366> 289 73<81.5 120>
LayerCount: 2
Fore
SplineSet
285 436 m 1xb8
 337 460 l 1
 333 288 l 1
 295 394 242 428 185 428 c 0
 138 428 103 403 103 361 c 0
 103 316 128 309 178 289 c 2xd8
 262 255 l 2
 339 225 362 181 362 125 c 0
 362 38 291 -10 208 -10 c 0
 167 -10 127 2 104 21 c 1
 42 -10 l 1
 42 164 l 1
 85 62 145 22 209 22 c 0
 252 22 289 44 289 88 c 0
 289 152 218 166 157 189 c 0
 80 217 40 250 40 325 c 0
 40 407 100 460 187 460 c 0
 228 460 269 447 285 436 c 1xb8
177 650 m 1
 285 650 l 1
 149 500 l 1
 177 650 l 1
EndSplineSet
EndChar

StartChar: Tcommaaccent
Encoding: 354 354 318
Width: 637
Flags: MW
HStem: -358 21G -207 120<297.5 320> -20 20G<162 482 162 162> 615 35<140 266 140 140 378 504 378 378>
VStem: 253 142<-164.5 -149.5 -220.5 -131> 266 112<61 615 61 615>
LayerCount: 2
Fore
SplineSet
614 650 m 1xf4
 614 430 l 1
 504 615 l 1
 378 615 l 1
 378 61 l 1
 482 0 l 1
 162 0 l 1
 266 61 l 1
 266 615 l 1
 140 615 l 1
 30 430 l 1
 30 650 l 1
 614 650 l 1xf4
253 -148 m 0xf8
 253 -114 278 -87 317 -87 c 0
 359 -87 395 -112 395 -187 c 0
 395 -254 347 -325 267 -358 c 1
 333 -321 357 -247 350 -196 c 1
 339 -203 328 -207 312 -207 c 0
 277 -207 253 -181 253 -148 c 0xf8
EndSplineSet
EndChar

StartChar: tcommaaccent
Encoding: 355 355 319
Width: 318
Flags: MW
HStem: -358 21G -207 120<145.5 168> 423 27<187 281 187 281> 558 20G<187 187>
VStem: 92 95<87 102 102 423> 102 141<-164.5 -149.5 -220.5 -131>
LayerCount: 2
Fore
SplineSet
20 423 m 1xf4
 187 578 l 1
 187 450 l 1
 281 450 l 1
 281 423 l 1
 187 423 l 1
 187 102 l 2
 187 22 257 50 298 95 c 1
 264 25 220 -10 174 -10 c 0
 123 -10 92 21 92 87 c 2xf8
 92 423 l 1
 20 423 l 1xf4
102 -148 m 0
 102 -114 126 -87 165 -87 c 0
 207 -87 243 -112 243 -187 c 0
 243 -254 195 -325 115 -358 c 1
 181 -321 205 -247 198 -196 c 1
 187 -203 176 -207 160 -207 c 0
 126 -207 102 -181 102 -148 c 0
EndSplineSet
EndChar

StartChar: Scommaaccent
Encoding: 536 536 320
Width: 543
Flags: MW
HStem: -358 21G -207 120<255.5 278> -10 32<271.5 347 245 378.5> 633 32<227.5 290.5 210 310>
VStem: 60 62<504.5 542.5> 212 141<-164.5 -149.5 -220.5 -131> 442 71<128 165.5>
LayerCount: 2
Fore
SplineSet
471 665 m 1
 471 430 l 1
 423 560 359 633 261 633 c 0
 194 633 122 598 122 530 c 0
 122 479 162 454 219 430 c 2
 378 362 l 2
 445 334 513 287 513 173 c 0
 513 83 450 -10 307 -10 c 0
 236 -10 171 20 141 53 c 1
 62 -10 l 1
 62 249 l 1
 113 116 183 22 307 22 c 0
 387 22 442 64 442 132 c 0
 442 199 383 227 341 245 c 2
 184 313 l 2
 112 343 60 393 60 477 c 0
 60 608 160 665 260 665 c 0
 321 665 370 644 398 621 c 1
 471 665 l 1
212 -148 m 0
 212 -114 236 -87 275 -87 c 0
 317 -87 353 -112 353 -187 c 0
 353 -254 305 -325 225 -358 c 1
 291 -321 315 -247 308 -196 c 1
 297 -203 286 -207 270 -207 c 0
 236 -207 212 -181 212 -148 c 0
EndSplineSet
EndChar

StartChar: scommaaccent
Encoding: 537 537 321
Width: 395
Flags: MW
HStem: -358 21G -207 120<171.5 194> -10 32<187.5 230.5 177 249.5> 428 32<161.5 207.5 143.5 213.5>
VStem: 40 63<338.5 366> 269 93 289 73<81.5 120>
LayerCount: 2
Fore
SplineSet
285 436 m 1xfc
 337 460 l 1
 333 288 l 1
 295 394 242 428 185 428 c 0
 138 428 103 403 103 361 c 0
 103 316 128 309 178 289 c 2
 262 255 l 2
 339 225 362 181 362 125 c 0
 362 38 291 -10 208 -10 c 0
 167 -10 127 2 104 21 c 1
 42 -10 l 1
 42 164 l 1
 85 62 145 22 209 22 c 0xfa
 252 22 289 44 289 88 c 0
 289 152 218 166 157 189 c 0
 80 217 40 250 40 325 c 0
 40 407 100 460 187 460 c 0
 228 460 269 447 285 436 c 1xfc
128 -148 m 0
 128 -114 152 -87 191 -87 c 0
 233 -87 269 -112 269 -187 c 0
 269 -254 221 -325 141 -358 c 1
 207 -321 231 -247 224 -196 c 1
 213 -203 202 -207 186 -207 c 0
 152 -207 128 -181 128 -148 c 0
EndSplineSet
EndChar

StartChar: Lslash
Encoding: 321 321 322
Width: 609
Flags: MW
HStem: 0 35<229 466 229 576> 630 20G<33 333 333 333>
VStem: 117 112<51 271 271 271 307 335 372 589>
LayerCount: 2
Fore
SplineSet
3 205 m 1
 -13 232 l 1
 117 307 l 1
 117 599 l 1
 33 650 l 1
 333 650 l 1
 229 589 l 1
 229 372 l 1
 359 447 l 1
 375 420 l 1
 229 335 l 1
 229 35 l 1
 466 35 l 1
 576 220 l 1
 576 0 l 1
 33 0 l 1
 117 51 l 1
 117 271 l 1
 3 205 l 1
EndSplineSet
EndChar

StartChar: lslash
Encoding: 322 322 323
Width: 317
Flags: MW
HStem: 0 21G<33 277 33 33> 645 20G<203 203>
VStem: 107 96<45 270 270 270 306 324 360 588 588 588>
LayerCount: 2
Fore
SplineSet
9 215 m 1
 -7 242 l 1
 107 306 l 1
 107 588 l 1
 33 610 l 1
 203 665 l 1
 203 360 l 1
 305 418 l 1
 321 391 l 1
 203 324 l 1
 203 45 l 1
 277 0 l 1
 33 0 l 1
 107 45 l 1
 107 270 l 1
 9 215 l 1
EndSplineSet
EndChar

StartChar: zacute
Encoding: 378 378 324
Width: 465
Flags: MW
HStem: 0 27<162 331 162 418> 423 27<143 297 143 143> 423 227<200 297 143 308>
LayerCount: 2
Fore
SplineSet
331 27 m 1xa0
 418 143 l 1
 418 0 l 1
 37 0 l 1
 297 423 l 1
 143 423 l 1
 57 307 l 1xc0
 57 450 l 1
 422 450 l 1
 162 27 l 1
 331 27 l 1xa0
200 650 m 1
 308 650 l 1
 172 500 l 1
 200 650 l 1
EndSplineSet
EndChar

StartChar: lcaron
Encoding: 318 318 325
Width: 335
Flags: MW
HStem: 0 21G<13 13 13 257> 511 120<278.5 301> 645 20G<183 183>
VStem: 87 96<45 588 588 588> 235 141<553.5 567.5 496.5 587>
LayerCount: 2
Fore
SplineSet
13 0 m 1
 87 45 l 1
 87 588 l 1
 13 610 l 1
 183 665 l 1
 183 45 l 1
 257 0 l 1
 13 0 l 1
235 570 m 0
 235 604 259 631 298 631 c 0
 340 631 376 605 376 530 c 0
 376 463 328 392 248 359 c 1
 314 396 338 470 331 521 c 1
 320 514 309 511 293 511 c 0
 259 511 235 537 235 570 c 0
EndSplineSet
EndChar

StartChar: tcaron
Encoding: 357 357 326
Width: 414
Flags: MW
HStem: -10 21G<148.5 197> 423 27<187 281 187 281> 507 120<316.5 339>
VStem: 92 95<54 423 102 423 102 423> 273 141<549.5 564.5 493.5 583>
LayerCount: 2
Fore
SplineSet
187 578 m 1
 20 423 l 1
 92 423 l 1
 92 87 l 2
 92 21 123 -10 174 -10 c 0
 220 -10 264 25 298 95 c 1
 257 50 187 22 187 102 c 2
 187 423 l 1
 281 423 l 1
 281 450 l 1
 187 450 l 1
 187 578 l 1
273 566 m 0
 273 600 297 627 336 627 c 0
 378 627 414 602 414 527 c 0
 414 460 366 389 286 356 c 1
 352 393 376 467 369 518 c 1
 358 511 347 507 331 507 c 0
 297 507 273 533 273 566 c 0
EndSplineSet
EndChar

StartChar: dcroat
Encoding: 273 273 327
Width: 522
Flags: MW
HStem: -10 62<147 253> 440 20G<180.5 258> 508 32<217 332 217 332 428 526> 645 20G<428 428>
VStem: 25 103 332 96<67 86 86 86 113 350 350 379 425 508 67 508 540 588 588 588>
LayerCount: 2
Fore
SplineSet
217 508 m 1
 217 540 l 1
 332 540 l 1
 332 588 l 1
 258 610 l 1
 428 665 l 1
 428 540 l 1
 526 540 l 1
 526 508 l 1
 428 508 l 1
 428 67 l 1
 502 45 l 1
 332 -10 l 1
 332 86 l 1
 302 31 258 -10 203 -10 c 0
 91 -10 25 75 25 215 c 0
 25 354 124 460 237 460 c 0
 279 460 309 446 332 425 c 1
 332 508 l 1
 217 508 l 1
128 205 m 0
 134 110 176 51 234 52 c 0
 272 52 305 73 332 113 c 1
 332 350 l 2
 332 408 278 436 231 429 c 0
 159 418 121 323 128 205 c 0
EndSplineSet
EndChar

StartChar: dcaron
Encoding: 271 271 328
Width: 630
Flags: MW
HStem: -10 62<147 253> 440 20G<180.5 258> 511 120<525.5 548> 645 20G<428 428>
VStem: 25 103 332 96<67 86 86 86 113 350 350 379 425 588 588 588> 482 141<553.5 567.5 496.5 587>
LayerCount: 2
Fore
SplineSet
428 665 m 1
 428 67 l 1
 502 45 l 1
 332 -10 l 1
 332 86 l 1
 302 31 258 -10 203 -10 c 0
 91 -10 25 75 25 215 c 0
 25 354 124 460 237 460 c 0
 279 460 309 446 332 425 c 1
 332 588 l 1
 258 610 l 1
 428 665 l 1
128 205 m 0
 134 110 176 51 234 52 c 0
 272 52 305 73 332 113 c 1
 332 350 l 2
 332 408 278 436 231 429 c 0
 159 418 121 323 128 205 c 0
482 570 m 0
 482 604 506 631 545 631 c 0
 587 631 623 605 623 530 c 0
 623 463 575 392 495 359 c 1
 561 396 585 470 578 521 c 1
 567 514 556 511 540 511 c 0
 506 511 482 537 482 570 c 0
EndSplineSet
EndChar

StartChar: abreve
Encoding: 259 259 329
Width: 446
Flags: MW
HStem: -10 58<98 195.5> 297 163<71 269> 431 29<182 230> 537 63<191.5 244.5 191.5 257.5> 644 20G
VStem: 23 96<105.5 132> 41 90<333.5 348> 272 95<53 61 93 265 93 93 294 311 294 294>
LayerCount: 2
Fore
SplineSet
367 53 m 1xdb
 367 311 l 2
 367 402 324 460 214 460 c 0
 132 460 42 413 41 348 c 0
 41 319 57 297 85 297 c 0
 112 297 131 316 131 348 c 0xdb
 131 407 159 431 205 431 c 0
 255 431 272 400 272 311 c 2
 272 294 l 1
 140 241 l 2
 62 210 23 162 23 102 c 0xbd
 23 35 65 -10 131 -10 c 0
 162 -10 185 -2 211 17 c 2
 272 61 l 1
 272 11 295 -10 330 -10 c 0
 366 -10 404 12 441 83 c 1
 367 53 l 1xdb
272 93 m 1
 235 63 208 48 183 48 c 0
 140 48 119 82 119 129 c 0xdd
 119 169 142 211 207 238 c 2
 272 265 l 1
 272 93 l 1
218 537 m 0
 138 537 91 591 82 664 c 1
 117 615 165 600 218 600 c 0
 271 600 319 615 354 664 c 1
 344 591 297 537 218 537 c 0
EndSplineSet
EndChar

StartChar: Abreve
Encoding: 258 258 330
Width: 663
Flags: MW
HStem: 0 210<-10 399 184 197 184 402 184 663> 175 35<184 399 184 415 170 399> 737 63<300.5 353.5 300.5 366.5> 844 20G
LayerCount: 2
Fore
SplineSet
-10 0 m 1xb0
 81 61 l 1
 329 665 l 1
 585 50 l 1
 663 0 l 1
 402 0 l 1xb0
 469 45 l 1
 415 175 l 1
 170 175 l 1x70
 120 55 l 1
 197 0 l 1
 -10 0 l 1xb0
290 471 m 1
 184 210 l 1
 399 210 l 1
 290 471 l 1
327 737 m 0
 247 737 200 791 191 864 c 1
 226 815 274 800 327 800 c 0
 380 800 428 815 463 864 c 1
 453 791 406 737 327 737 c 0
EndSplineSet
EndChar

StartChar: aogonek
Encoding: 261 261 331
Width: 446
Flags: MW
HStem: -197 67<376 403.5> -10 58<98 195.5> 297 163<71 269> 431 29<182 230>
VStem: 23 96<105.5 132> 41 90<333.5 348> 272 95<53 61 93 265 265 265 294 311 53 355.5>
LayerCount: 2
Fore
SplineSet
272 61 m 1xea
 211 17 l 2
 185 -2 162 -10 131 -10 c 0
 65 -10 23 35 23 102 c 0
 23 162 62 210 140 241 c 2
 272 294 l 1
 272 311 l 2
 272 400 255 431 205 431 c 0
 159 431 131 407 131 348 c 0
 131 316 112 297 85 297 c 0
 57 297 41 319 41 348 c 0
 42 413 132 460 214 460 c 0
 324 460 367 402 367 311 c 2
 367 53 l 1
 441 83 l 1
 403 38 354 -14 348 -72 c 0
 344 -109 361 -130 391 -130 c 0
 427 -130 441 -96 446 -77 c 1
 456 -121 439 -197 368 -197 c 0xda
 326 -197 292 -168 292 -116 c 0
 292 -74 316 -36 342 -9 c 1
 338 -10 334 -10 330 -10 c 0xe6
 295 -10 272 11 272 61 c 1xea
272 93 m 1
 272 265 l 1
 207 238 l 2
 142 211 119 169 119 129 c 0xe6
 119 82 140 48 183 48 c 0
 208 48 235 63 272 93 c 1
EndSplineSet
EndChar

StartChar: eogonek
Encoding: 281 281 332
Width: 446
Flags: MW
HStem: -160 68<349 374.5> 261 25 261 199
VStem: 22 93<245 252 245 279 245 290> 316 98<293 330 271 345.5>
LayerCount: 2
Fore
SplineSet
414 271 m 1xd8
 115 252 l 1
 115 238 116 224 119 209 c 0
 141 95 222 60 287 70 c 0
 336 77 385 112 413 182 c 1
 410 128 391 86 363 49 c 0
 343 22 326 0 323 -35 c 0
 320 -72 335 -92 363 -92 c 0
 399 -92 412 -59 417 -40 c 1
 427 -84 410 -160 339 -160 c 0
 299 -160 267 -134 267 -87 c 0
 267 -49 284 -20 303 5 c 1
 280 -5 255 -10 228 -10 c 0
 96 -10 22 95 22 225 c 0
 22 355 109 460 231 460 c 0xb8
 360 460 414 389 414 271 c 1xd8
316 293 m 1
 316 398 272 437 213 430 c 0
 157 422 118 362 115 279 c 1
 316 293 l 1
EndSplineSet
EndChar

StartChar: Aogonek
Encoding: 260 260 333
Width: 663
Flags: MW
HStem: -197 67<542 569.5> 0 210<-10 399 184 197 184 402 184 517 184 548 184 663> 175 35<184 399 184 415 170 399> 645 20G<329 329>
LayerCount: 2
Fore
SplineSet
-10 0 m 1xd0
 81 61 l 1
 329 665 l 1
 585 50 l 1
 663 0 l 1
 548 0 l 1
 532 -24 516 -47 514 -72 c 0
 510 -109 527 -130 557 -130 c 0
 593 -130 607 -96 612 -77 c 1
 622 -121 605 -197 534 -197 c 0
 492 -197 459 -168 459 -116 c 0
 459 -69 488 -29 517 0 c 1
 402 0 l 1xd0
 469 45 l 1
 415 175 l 1
 170 175 l 1xb0
 120 55 l 1
 197 0 l 1
 -10 0 l 1xd0
290 471 m 1
 184 210 l 1
 399 210 l 1
 290 471 l 1
EndSplineSet
EndChar

StartChar: Eogonek
Encoding: 280 280 334
Width: 596
Flags: MW
HStem: -197 67<518 545.5> 0 35<223 450 223 493> 320 35<223 337 223 338 223 337> 615 35<223 441 223 223>
VStem: 111 112<51 320 355 599 599 599>
LayerCount: 2
Fore
SplineSet
27 0 m 1
 111 51 l 1
 111 599 l 1
 27 650 l 1
 545 650 l 1
 545 430 l 1
 441 615 l 1
 223 615 l 1
 223 355 l 1
 337 355 l 1
 412 458 l 1
 412 218 l 1
 338 320 l 1
 223 320 l 1
 223 35 l 1
 450 35 l 1
 560 220 l 1
 560 0 l 1
 524 0 l 1
 508 -24 492 -47 490 -72 c 0
 486 -109 503 -130 533 -130 c 0
 569 -130 583 -96 588 -77 c 1
 598 -121 581 -197 510 -197 c 0
 468 -197 435 -168 435 -116 c 0
 435 -69 464 -29 493 0 c 1
 27 0 l 1
EndSplineSet
EndChar

StartChar: ae
Encoding: 230 230 335
Width: 694
Flags: MW
HStem: -10 58<166 177> 261 32 297 163<71 246.5> 431 29<182 230>
VStem: 23 92<105.5 155> 41 90<333.5 348> 272 91<252 311 252 355.5> 564 97
LayerCount: 2
Fore
SplineSet
662 271 m 1xe7
 363 252 l 1
 366 103 465 59 535 70 c 0
 584 77 633 112 661 182 c 1
 656 67 581 -10 476 -10 c 0
 402 -10 345 23 310 76 c 1
 260 20 206 -10 148 -10 c 0
 68 -10 23 35 23 102 c 0
 23 208 141 242 272 294 c 1
 272 311 l 2
 272 400 255 431 205 431 c 0xdb
 159 431 131 407 131 348 c 0
 131 316 112 297 85 297 c 0
 57 297 41 319 41 348 c 0
 42 413 132 460 214 460 c 0
 279 460 317 437 337 399 c 1
 373 437 422 460 479 460 c 0
 608 460 662 389 662 271 c 1xe7
271 225 m 2
 271 266 l 1
 160 222 115 189 115 129 c 0
 115 82 141 48 191 48 c 0
 214 48 253 55 298 98 c 1
 279 135 271 178 271 225 c 2
564 293 m 1
 564 398 520 437 461 430 c 0
 405 422 366 362 363 279 c 1
 430 284 497 288 564 293 c 1
EndSplineSet
EndChar

StartChar: germandbls
Encoding: 223 223 336
Width: 567
Flags: MW
HStem: -20 20G<13 233 13 13> -10 32<380 417 366 435> 633 32<264 344>
VStem: 87 96<45 454 454 460 45 527> 252 63<330 376> 419 36<546 571>
LayerCount: 2
Fore
SplineSet
316 21 m 1x7c
 254 -10 l 1
 254 164 l 1
 297 62 334 22 398 22 c 0
 436 22 464 60 455 101 c 0
 447 149 405 167 349 189 c 0
 272 220 252 260 252 318 c 0
 252 434 419 452 419 547 c 0
 419 595 383 633 305 633 c 0
 223 633 183 568 183 460 c 2
 183 45 l 1x7c
 233 0 l 1
 13 0 l 1
 38 15 62 29 87 44 c 1
 87 454 l 2
 87 600 199 665 304 665 c 0
 415 665 455 601 455 546 c 0
 453 452 315 420 315 352 c 0
 315 308 333 302 434 255 c 0
 506 221 534 181 534 125 c 0xbc
 534 38 473 -10 397 -10 c 0
 363 -10 339 2 316 21 c 1x7c
EndSplineSet
EndChar

StartChar: eth
Encoding: 240 240 337
Width: 473
Flags: MW
HStem: -10 21G<167 304.5> 440 20G<174 250> 657 20G<398 398>
LayerCount: 2
Fore
SplineSet
162 505 m 1
 146 532 l 1
 250 592 l 1
 201 641 135 662 67 650 c 1
 90 658 124 665 158 665 c 0
 207 665 255 648 297 618 c 1
 398 677 l 1
 414 650 l 1
 322 597 l 1
 400 528 451 412 450 278 c 0
 448 107 379 -10 230 -10 c 0
 104 -10 18 96 23 235 c 0
 27 377 123 460 225 460 c 0
 275 460 319 431 336 400 c 1
 326 469 303 526 271 568 c 1
 162 505 l 1
133 210 m 0
 148 91 203 12 265 22 c 0
 336 33 361 121 346 240 c 0
 331 359 277 438 215 428 c 0
 143 420 118 329 133 210 c 0
EndSplineSet
EndChar

StartChar: AE
Encoding: 198 198 338
Width: 962
Flags: MW
HStem: 0 35<589 816 589 926> 200 35<253 477 253 477 231 477> 320 35<589 703 589 704 589 703> 615 35<589 807 589 589>
VStem: 477 112<51 200 200 200 235 320 355 590 590 590>
LayerCount: 2
Fore
SplineSet
10 0 m 1
 101 61 l 1
 451 609 l 1
 367 650 l 1
 911 650 l 1
 911 430 l 1
 807 615 l 1
 589 615 l 1
 589 355 l 1
 703 355 l 1
 778 458 l 1
 778 218 l 1
 704 320 l 1
 589 320 l 1
 589 35 l 1
 816 35 l 1
 926 220 l 1
 926 0 l 1
 393 0 l 1
 477 51 l 1
 477 200 l 1
 231 200 l 1
 140 55 l 1
 217 0 l 1
 10 0 l 1
253 235 m 1
 477 235 l 1
 477 590 l 1
 253 235 l 1
EndSplineSet
EndChar

StartChar: yen
Encoding: 165 165 339
Width: 682
Flags: MW
HStem: 0 176<212 296 408 492 212 212> 144 32<153 296 153 296 408 551> 234 32<153 296 153 296 408 551> 630 20G<10 276 276 276 466 675 675 675>
VStem: 296 112<51 144 51 144 176 234 51 234 266 282 282 282>
LayerCount: 2
Fore
SplineSet
153 234 m 1xb8
 153 266 l 1
 296 266 l 1
 296 282 l 1
 227 389 158 496 89 602 c 1
 63 618 36 634 10 650 c 1
 276 650 l 1
 254 636 233 622 211 608 c 1
 268 521 325 433 382 345 c 1
 432 429 483 513 534 597 c 1
 511 614 488 632 466 650 c 1
 675 650 l 1
 643 631 612 611 580 592 c 1
 523 496 465 399 408 303 c 1
 408 266 l 1
 551 266 l 1
 551 234 l 1
 408 234 l 1
 408 176 l 1
 551 176 l 1
 551 144 l 1
 408 144 l 1x78
 408 51 l 1
 436 34 464 17 492 0 c 1
 212 0 l 1xb8
 240 17 268 34 296 51 c 1
 296 144 l 1
 153 144 l 1x78
 153 176 l 1
 296 176 l 1
 296 234 l 1
 153 234 l 1xb8
EndSplineSet
EndChar

StartChar: afii10051
Encoding: 1026 1026 340
Width: 749
Flags: MW
HStem: -10 21G<532 610> 0 125<162 518> 350 60<509 549.5> 615 35<140 266 140 140 378 378 378 504>
VStem: 266 112<61 287 61 317 317 615> 623 96<206 216 216 222 139.5 264>
LayerCount: 2
Fore
SplineSet
719 222 m 2x7c
 719 206 l 2
 719 73 659 -10 561 -10 c 0xbc
 503 -10 455 11 450 64 c 0
 447 99 465 125 500 125 c 0
 536 125 547 96 547 65 c 0
 547 40 552 19 574 19 c 0
 625 19 623 82 623 206 c 2
 623 216 l 2
 623 312 590 350 509 350 c 0
 452 350 405 324 378 287 c 1
 378 61 l 1
 452 0 l 1
 162 0 l 1
 266 61 l 1
 266 615 l 1
 140 615 l 1
 30 430 l 1
 30 650 l 1
 614 650 l 1
 614 430 l 1
 504 615 l 1
 378 615 l 1
 378 317 l 1
 409 355 466 410 552 410 c 0
 671 410 719 335 719 222 c 2x7c
EndSplineSet
EndChar

StartChar: afii10108
Encoding: 1115 1115 341
Width: 571
Flags: MW
HStem: 0 21G<18 261 18 18 312 556 312 312> 350 60<307 336> 510 27<187 281 187 281> 645 20G<187 187>
VStem: 92 95<41 287 317 510> 386 96<41 233 233 246 41 274>
LayerCount: 2
Fore
SplineSet
20 510 m 1
 187 665 l 1
 187 537 l 1
 281 537 l 1
 281 510 l 1
 187 510 l 1
 187 317 l 1
 218 355 269 410 345 410 c 0
 454 410 482 345 482 246 c 2
 482 41 l 1
 556 0 l 1
 312 0 l 1
 386 41 l 1
 386 233 l 2
 386 315 370 350 302 350 c 0
 255 350 214 324 187 287 c 1
 187 41 l 1
 261 0 l 1
 18 0 l 1
 92 41 l 1
 92 510 l 1
 20 510 l 1
EndSplineSet
EndChar

StartChar: afii10099
Encoding: 1106 1106 342
Width: 571
Flags: MW
HStem: -210 29<326 362.5 326 373> -210 135<245.5 373> -20 20G<18 261 18 18> 350 60<307 336> 510 27<187 281 187 281> 645 20G<187 187>
VStem: 92 95<41 287 317 510> 386 96<13 233 233 246>
LayerCount: 2
Fore
SplineSet
20 510 m 1xbf
 187 665 l 1
 187 537 l 1
 281 537 l 1
 281 510 l 1
 187 510 l 1
 187 317 l 1
 218 355 269 410 345 410 c 0
 454 410 482 345 482 246 c 2
 482 13 l 2
 482 -120 422 -210 324 -210 c 0
 266 -210 218 -189 213 -136 c 0
 210 -101 228 -75 263 -75 c 0
 299 -75 310 -104 310 -135 c 0x7f
 310 -160 315 -181 337 -181 c 0
 388 -181 386 -111 386 13 c 2
 386 233 l 2
 386 315 370 350 302 350 c 0
 255 350 214 324 187 287 c 1
 187 41 l 1
 261 0 l 1
 18 0 l 1
 92 41 l 1
 92 510 l 1
 20 510 l 1xbf
EndSplineSet
EndChar
